<svg xmlns="http://www.w3.org/2000/svg" width="76" height="76" viewBox="0 0 76 76">
  <g id="Grupo_53534" data-name="Grupo 53534" transform="translate(-507 -8684)">
    <g id="Elipse_1199" data-name="Elipse 1199" transform="translate(507 8684)" fill="#f3f9ff" stroke="#9a4cbc" stroke-width="2">
      <circle cx="38" cy="38" r="38" stroke="none"/>
      <circle cx="38" cy="38" r="37" fill="none"/>
    </g>
    <g id="registro" transform="translate(509.632 8701)">
      <g id="Grupo_53347" data-name="Grupo 53347" transform="translate(16.244 0.629)">
        <path id="Trazado_98729" data-name="Trazado 98729" d="M52.509,81H27.286a1.48,1.48,0,0,1-1.48-1.48V43.689a1.48,1.48,0,0,1,1.48-1.48H52.509a1.48,1.48,0,0,1,1.48,1.48V79.52A1.48,1.48,0,0,1,52.509,81Z" transform="translate(-25.806 -39.297)" fill="#c8effe"/>
        <g id="Grupo_53346" data-name="Grupo 53346" transform="translate(33.941 12.486)">
          <path id="Trazado_98730" data-name="Trazado 98730" d="M0,0H14.717V4.938H0Z" transform="translate(4.938 3.939) rotate(90)" fill="#d83131"/>
          <path id="Trazado_98731" data-name="Trazado 98731" d="M430.29,157.086v3.149h4.938v-3.149a.79.79,0,0,0-.79-.79H431.08A.79.79,0,0,0,430.29,157.086Z" transform="translate(-430.29 -156.296)" fill="#f47c7c"/>
          <path id="Trazado_98732" data-name="Trazado 98732" d="M435.228,378.614H430.29l2.065,4.137a.423.423,0,0,0,.807,0Z" transform="translate(-430.29 -359.959)" fill="#f9c6c6"/>
          <path id="Trazado_98733" data-name="Trazado 98733" d="M0,0H14.717V4.938H0Z" transform="translate(4.938 3.939) rotate(90)" fill="#d83131"/>
          <path id="Trazado_98734" data-name="Trazado 98734" d="M430.29,157.086v3.149h4.938v-3.149a.79.79,0,0,0-.79-.79H431.08A.79.79,0,0,0,430.29,157.086Z" transform="translate(-430.29 -156.296)" fill="#f47c7c"/>
          <path id="Trazado_98735" data-name="Trazado 98735" d="M435.228,378.614H430.29l2.065,4.137a.423.423,0,0,0,.807,0Z" transform="translate(-430.29 -359.959)" fill="#f9c6c6"/>
          <path id="Trazado_98736" data-name="Trazado 98736" d="M460.786,203.233h2.379V217.95h-2.379Z" transform="translate(-458.227 -199.294)" fill="#ca2c2c"/>
          <path id="Trazado_98737" data-name="Trazado 98737" d="M453.751,156.3h-2.379a.79.79,0,0,1,.79.79v3.149h2.379v-3.149A.79.79,0,0,0,453.751,156.3Z" transform="translate(-449.603 -156.296)" fill="#ee6161"/>
          <path id="Trazado_98738" data-name="Trazado 98738" d="M446.818,378.614l-1.279,2.563.786,1.574a.423.423,0,0,0,.807,0l2.065-4.137Z" transform="translate(-444.259 -359.959)" fill="#f9b1b1"/>
        </g>
        <path id="Trazado_98739" data-name="Trazado 98739" d="M87.055,7.5H61.832a1.48,1.48,0,0,0-1.48,1.48v1.432h23.79a1.48,1.48,0,0,1,1.48,1.48v34.4h1.432a1.48,1.48,0,0,0,1.48-1.48V8.98A1.48,1.48,0,0,0,87.055,7.5Z" transform="translate(-57.453 -7.5)" fill="#3c87d0"/>
        <path id="Trazado_98740" data-name="Trazado 98740" d="M69.858,411.736H66.389a.671.671,0,0,1-.671-.671V407.6a.671.671,0,0,1,.671-.671h3.468a.671.671,0,0,1,.671.671v3.468A.671.671,0,0,1,69.858,411.736Z" transform="translate(-62.369 -373.409)" fill="#7ca1b1"/>
        <path id="Trazado_98741" data-name="Trazado 98741" d="M77.714,95.286H66.557a.839.839,0,0,1-.839-.839V83.29a.839.839,0,0,1,.839-.839H77.714a.839.839,0,0,1,.839.839V94.447A.839.839,0,0,1,77.714,95.286Z" transform="translate(-62.369 -76.162)" fill="#fee2ca"/>
        <circle id="Elipse_1210" data-name="Elipse 1210" cx="2.246" cy="2.246" r="2.246" transform="translate(7.52 8.556)" fill="#ffcebf"/>
        <path id="Trazado_98742" data-name="Trazado 98742" d="M113.006,166.814h4.9v-1.359a2.45,2.45,0,0,0-4.9,0Z" transform="translate(-105.689 -149.956)" fill="#e94444"/>
        <path id="Trazado_98743" data-name="Trazado 98743" d="M315.37,42.209h-2.625a1.48,1.48,0,0,1,1.48,1.48V79.52a1.48,1.48,0,0,1-1.48,1.48h2.625a1.48,1.48,0,0,0,1.48-1.48V43.689A1.48,1.48,0,0,0,315.37,42.209Z" transform="translate(-288.668 -39.297)" fill="#b3dafe"/>
      </g>
      <g id="Grupo_53348" data-name="Grupo 53348" transform="translate(15.368 0)">
        <path id="Trazado_98744" data-name="Trazado 98744" d="M45.845,0H20.623a2.112,2.112,0,0,0-2.109,2.109v.8H17.477a2.112,2.112,0,0,0-2.109,2.109V31.984a.629.629,0,1,0,1.259,0V5.022a.852.852,0,0,1,.851-.851H42.7a.852.852,0,0,1,.851.851V40.853a.852.852,0,0,1-.851.851H17.477a.852.852,0,0,1-.851-.851V34.921a.629.629,0,0,0-1.259,0v5.932a2.112,2.112,0,0,0,2.109,2.109H42.7a2.112,2.112,0,0,0,2.109-2.109v-.8h1.036a2.112,2.112,0,0,0,2.109-2.109V10.11a.629.629,0,0,0-1.259,0v27.83a.852.852,0,0,1-.851.851h-.8V5.022a2.112,2.112,0,0,0-2.109-2.109H19.772v-.8a.852.852,0,0,1,.851-.851H45.845a.852.852,0,0,1,.851.851V7.174a.629.629,0,1,0,1.259,0V2.109A2.112,2.112,0,0,0,45.845,0Z" transform="translate(-15.368 0)" fill="#23147b"/>
        <path id="Trazado_98745" data-name="Trazado 98745" d="M427.566,148.8h-3.358a1.421,1.421,0,0,0-1.419,1.419V168.08c0,.012,0,.024,0,.036s0,.013,0,.02a.629.629,0,0,0,.03.145l.005.015c.007.019.015.038.024.057l0,.009,2.065,4.137a1.048,1.048,0,0,0,1.934,0l2.065-4.137,0-.011q.012-.026.022-.052l.007-.018a.623.623,0,0,0,.018-.066v0a.625.625,0,0,0,.01-.072c0-.008,0-.016,0-.025s0-.021,0-.032V150.215A1.421,1.421,0,0,0,427.566,148.8Zm-1.679,22.821-1.451-2.908h2.9Zm1.839-4.166h-3.679V153.993h3.679Zm0-14.717h-3.679v-2.519a.161.161,0,0,1,.161-.161h3.358a.161.161,0,0,1,.161.161v2.519Z" transform="translate(-388.602 -136.31)" fill="#23147b"/>
        <path id="Trazado_98746" data-name="Trazado 98746" d="M58.218,391.824a1.3,1.3,0,0,0,1.3,1.3h3.468a1.3,1.3,0,0,0,1.3-1.3V388.51l1.436-1.527a.629.629,0,1,0-.917-.862l-1.09,1.159a1.293,1.293,0,0,0-.73-.225H59.519a1.3,1.3,0,0,0-1.3,1.3Zm4.811-1.975v1.975a.042.042,0,0,1-.042.042H61.122a.627.627,0,0,0,.071-.063Zm-3.552-1.493a.042.042,0,0,1,.042-.042h3.226l-1.922,2.045-1.128-1.719a.626.626,0,0,0-.217-.2v-.082Zm0,2.247c.8,1.214.758,1.176.869,1.263h-.827a.042.042,0,0,1-.042-.042Z" transform="translate(-54.622 -353.539)" fill="#23147b"/>
        <path id="Trazado_98747" data-name="Trazado 98747" d="M162.791,428.091h-13.37a.629.629,0,1,0,0,1.259h13.37a.629.629,0,0,0,0-1.259Z" transform="translate(-137.596 -392.169)" fill="#23147b"/>
        <path id="Trazado_98748" data-name="Trazado 98748" d="M59.686,89.045H70.843a1.47,1.47,0,0,0,1.468-1.468V76.419a1.47,1.47,0,0,0-1.468-1.468H59.686a1.47,1.47,0,0,0-1.468,1.468V87.576A1.47,1.47,0,0,0,59.686,89.045Zm-.21-12.625a.21.21,0,0,1,.21-.21H70.843a.21.21,0,0,1,.21.21V87.576a.21.21,0,0,1-.21.21H59.686a.21.21,0,0,1-.21-.21Z" transform="translate(-54.622 -68.662)" fill="#23147b"/>
        <path id="Trazado_98749" data-name="Trazado 98749" d="M106.138,111.526a.63.63,0,0,0,.63-.628v-1.359a1.827,1.827,0,0,1,1.812-1.821h.016a1.827,1.827,0,0,1,1.812,1.821v.73h-1.333a.629.629,0,1,0,0,1.259h1.963a.629.629,0,0,0,.629-.629v-1.359a3.058,3.058,0,0,0-.9-2.178,3.115,3.115,0,0,0-.348-.3,2.876,2.876,0,1,0-3.657,0,3.119,3.119,0,0,0-.349.3,3.058,3.058,0,0,0-.9,2.177V110.9a.627.627,0,0,0,.628.628Zm2.45-8.3a1.617,1.617,0,0,1,.005,3.234h-.011a1.617,1.617,0,0,1,.005-3.234Z" transform="translate(-97.946 -93.411)" fill="#23147b"/>
        <path id="Trazado_98750" data-name="Trazado 98750" d="M242.466,112.826h5.562a.629.629,0,0,0,0-1.259h-5.562a.629.629,0,0,0,0,1.259Z" transform="translate(-222.834 -102.205)" fill="#23147b"/>
        <path id="Trazado_98751" data-name="Trazado 98751" d="M242.466,155.347h5.562a.629.629,0,0,0,0-1.259h-5.562a.629.629,0,0,0,0,1.259Z" transform="translate(-222.834 -141.158)" fill="#23147b"/>
        <path id="Trazado_98752" data-name="Trazado 98752" d="M242.466,200.7h5.562a.629.629,0,0,0,0-1.259h-5.562a.629.629,0,0,0,0,1.259Z" transform="translate(-222.834 -182.706)" fill="#23147b"/>
        <path id="Trazado_98753" data-name="Trazado 98753" d="M58.847,273.124h20.97a.629.629,0,1,0,0-1.259H58.847a.629.629,0,1,0,0,1.259Z" transform="translate(-54.622 -249.052)" fill="#23147b"/>
        <path id="Trazado_98754" data-name="Trazado 98754" d="M58.847,315.644h20.97a.629.629,0,1,0,0-1.259H58.847a.629.629,0,1,0,0,1.259Z" transform="translate(-54.622 -288.005)" fill="#23147b"/>
        <path id="Trazado_98755" data-name="Trazado 98755" d="M58.847,358.164h20.97a.629.629,0,1,0,0-1.259H58.847a.629.629,0,1,0,0,1.259Z" transform="translate(-54.622 -326.957)" fill="#23147b"/>
      </g>
    </g>
  </g>
</svg>
