<svg xmlns="http://www.w3.org/2000/svg" width="76" height="76" viewBox="0 0 76 76">
  <g id="Grupo_53538" data-name="Grupo 53538" transform="translate(-783 -8839)">
    <g id="Elipse_1204" data-name="Elipse 1204" transform="translate(783 8839)" fill="#f3f9ff" stroke="#9a4cbc" stroke-width="2">
      <circle cx="38" cy="38" r="38" stroke="none"/>
      <circle cx="38" cy="38" r="37" fill="none"/>
    </g>
    <g id="archivos" transform="translate(802 8855.519)">
      <path id="Trazado_98841" data-name="Trazado 98841" d="M14.74,45.9l-.022-.038q-.063-.109-.121-.22l-.012-.023a4.4,4.4,0,0,1-.224-.528l0-.011a4.391,4.391,0,0,1-.242-1.433V15.865a1.908,1.908,0,0,1,1.908-1.908H36V12.822A2.822,2.822,0,0,0,33.181,10H12.827A2.822,2.822,0,0,0,10,12.822V43.552a2.822,2.822,0,0,0,2.822,2.822h2.236l-.012-.017a4.385,4.385,0,0,1-.311-.452Zm0,0" transform="translate(-9.165 -9.161)" fill="#fab05f"/>
      <g id="Grupo_53354" data-name="Grupo 53354" transform="translate(4.951 4.796)">
        <path id="Trazado_98842" data-name="Trazado 98842" d="M127.065,495.881c-.077-.036-.153-.075-.228-.115C126.912,495.806,126.988,495.845,127.065,495.881Zm0,0" transform="translate(-121.144 -458.962)" fill="#cac3f5"/>
        <path id="Trazado_98843" data-name="Trazado 98843" d="M118.508,490.2q-.084-.062-.164-.128Q118.425,490.137,118.508,490.2Zm0,0" transform="translate(-113.364 -453.744)" fill="#cac3f5"/>
        <path id="Trazado_98844" data-name="Trazado 98844" d="M73.028,446.647c-.065-.062-.128-.128-.188-.193C72.9,446.519,72.963,446.584,73.028,446.647Zm0,0" transform="translate(-71.679 -413.787)" fill="#cac3f5"/>
        <path id="Trazado_98845" data-name="Trazado 98845" d="M121.076,492.171q-.111-.07-.217-.147Q120.965,492.1,121.076,492.171Zm0,0" transform="translate(-115.668 -455.533)" fill="#cac3f5"/>
        <path id="Trazado_98846" data-name="Trazado 98846" d="M70.771,444.053c-.046-.052-.091-.1-.134-.158C70.68,443.948,70.725,444,70.771,444.053Zm0,0" transform="translate(-69.66 -411.443)" fill="#cac3f5"/>
        <path id="Trazado_98847" data-name="Trazado 98847" d="M75.082,448.758,78.46,452c.063.061.129.119.2.176-.067-.057-.132-.115-.2-.176Zm0,0" transform="translate(-73.733 -415.898)" fill="#cac3f5"/>
        <path id="Trazado_98848" data-name="Trazado 98848" d="M124.069,494.164q-.1-.055-.193-.114Q123.971,494.109,124.069,494.164Zm0,0" transform="translate(-118.432 -457.39)" fill="#cac3f5"/>
        <path id="Trazado_98849" data-name="Trazado 98849" d="M133.336,498.693c-.074-.023-.147-.049-.219-.076Q133.226,498.658,133.336,498.693Zm0,0" transform="translate(-126.898 -461.573)" fill="#cac3f5"/>
        <path id="Trazado_98850" data-name="Trazado 98850" d="M129.866,497.27c-.084-.033-.167-.068-.249-.106C129.7,497.2,129.782,497.237,129.866,497.27Zm0,0" transform="translate(-123.692 -460.243)" fill="#cac3f5"/>
        <path id="Trazado_98851" data-name="Trazado 98851" d="M61.93,428.234a4.4,4.4,0,0,0,.224.528A4.4,4.4,0,0,1,61.93,428.234Zm0,0" transform="translate(-61.684 -397.096)" fill="#cac3f5"/>
        <path id="Trazado_98852" data-name="Trazado 98852" d="M77.475,86.589a17.555,17.555,0,0,1-12.8-5.719,1.872,1.872,0,0,1,0-2.5A17.108,17.108,0,0,1,85,74.43V59.068a1.908,1.908,0,0,0-1.908-1.908H60.908A1.908,1.908,0,0,0,59,59.068V86.854a4.381,4.381,0,0,0,.242,1.433q-.047-.136-.085-.274h5.237a1.349,1.349,0,0,1,1.349,1.349v5c-.089-.022-.177-.046-.265-.073a4.382,4.382,0,0,0,1.289.195H83.091A1.908,1.908,0,0,0,85,92.58V84.808a16.894,16.894,0,0,1-7.524,1.781Zm0,0" transform="translate(-59 -57.16)" fill="#cac3f5"/>
        <path id="Trazado_98853" data-name="Trazado 98853" d="M66.434,437.883a4.43,4.43,0,0,0,.31.452A4.43,4.43,0,0,1,66.434,437.883Zm0,0" transform="translate(-65.81 -405.936)" fill="#cac3f5"/>
        <path id="Trazado_98854" data-name="Trazado 98854" d="M64.738,434.809c.038.074.078.148.121.22Q64.8,434.921,64.738,434.809Zm0,0" transform="translate(-64.257 -403.12)" fill="#cac3f5"/>
      </g>
      <path id="Trazado_98855" data-name="Trazado 98855" d="M67.457,426.182a1.349,1.349,0,0,0-1.349-1.349H60.871c.025.092.054.184.085.274l0,.011a4.4,4.4,0,0,0,.224.528l.012.023q.057.112.121.22l.022.038a4.4,4.4,0,0,0,.31.452l.013.017.029.035c.044.054.088.107.134.158l.05.056c.061.066.123.131.188.194l3.378,3.244c.063.061.129.119.2.176l.056.047q.081.066.164.129l.047.035c.071.051.143.1.217.147l.037.023c.063.04.128.077.193.114l.055.03c.075.04.151.079.228.115l0,0c.082.038.165.073.249.106l.045.017q.108.041.218.076l.041.013c.087.027.175.051.265.073v-5Zm0,0" transform="translate(-55.763 -389.184)" fill="#fab05f"/>
      <path id="Trazado_98856" data-name="Trazado 98856" d="M147.018,247.454a18.681,18.681,0,0,0-5.273-3.938,17.108,17.108,0,0,0-20.321,3.938,1.872,1.872,0,0,0,0,2.5,17.555,17.555,0,0,0,12.8,5.719,6.97,6.97,0,1,1,6.97-6.97,6.97,6.97,0,0,1-6.97,6.97,16.9,16.9,0,0,0,7.524-1.781,18.682,18.682,0,0,0,5.273-3.938,1.872,1.872,0,0,0,0-2.5Zm0,0" transform="translate(-110.796 -221.451)" fill="#d6effb"/>
      <path id="Trazado_98857" data-name="Trazado 98857" d="M210.042,248.705a6.97,6.97,0,1,0-6.97,6.97A6.971,6.971,0,0,0,210.042,248.705Zm-6.97,3.412a3.412,3.412,0,1,1,3.412-3.412A3.412,3.412,0,0,1,203.071,252.117Zm0,0" transform="translate(-179.646 -221.451)" fill="#00b7ec"/>
      <path id="Trazado_98858" data-name="Trazado 98858" d="M245.328,287.553a3.412,3.412,0,1,1-3.412-3.412A3.412,3.412,0,0,1,245.328,287.553Zm0,0" transform="translate(-218.49 -260.298)" fill="#d6effb"/>
      <path id="Trazado_98859" data-name="Trazado 98859" d="M36.833,25.427a19.656,19.656,0,0,0-5.045-3.874V6.7a2.75,2.75,0,0,0-2.746-2.747H27.677v-.3A3.666,3.666,0,0,0,24.016,0H3.661A3.666,3.666,0,0,0,0,3.661V34.39a3.665,3.665,0,0,0,3.661,3.661H5.514c.073.079.138.146.2.208h0L9.1,41.505c.047.046.1.091.153.14l.079.068h0l.042.033.025.023c.063.052.128.1.194.152h0l.03.021.026.021c.085.062.171.121.258.176l.027.014.017.012c.074.046.151.092.23.136l.035.017c.011.006.02.014.031.019.1.052.187.1.272.137h0l0,0c.094.043.191.085.3.126l.031.01.021.01h0l.152.055.108.035.024.007.024.009h0c.108.033.21.061.311.086l.026.006a5.226,5.226,0,0,0,1.195.139H29.042a2.75,2.75,0,0,0,2.746-2.747V32.957a19.658,19.658,0,0,0,5.045-3.874,2.7,2.7,0,0,0,0-3.655ZM10.855,40.754l-.016-.01-.021-.011-.009-.006c-.058-.037-.117-.077-.175-.12l-.016-.01-.021-.017c-.045-.034-.09-.069-.134-.1l-.026-.019-.019-.018-.066-.057c-.034-.03-.065-.058-.093-.085h0L6.882,37.051h0c-.046-.044-.1-.1-.152-.156l-.018-.018c-.008-.01-.015-.019-.023-.029q-.056-.063-.108-.128L6.565,36.7l-.018-.024h0l0,0c-.048-.061-.092-.124-.135-.187h3.937a.511.511,0,0,1,.51.51Zm19.255-.538a1.069,1.069,0,0,1-1.068,1.068H12.719q-.093,0-.186,0V37a2.191,2.191,0,0,0-2.189-2.189H5.805V34.8c0-.034,0-.069-.007-.1,0-.017,0-.034,0-.051,0-.051,0-.1,0-.154V29.7a.839.839,0,0,0-1.678,0v4.785c0,.067,0,.134,0,.2,0,.021,0,.043,0,.064,0,.046.005.092.009.138,0,.025,0,.049.007.073,0,.044.009.088.014.131,0,.024.006.048.009.072.006.046.013.092.02.138,0,.021.006.042.01.062q.016.093.035.187l0,.011q.021.1.046.2c0,.019.01.037.015.056.009.034.018.069.028.1,0,.011.007.022.01.033.009.031.019.063.029.094s.014.049.023.073h0l.018.054L4.4,36.2h0l0,.013c.011.032.023.065.035.1s.016.045.025.067h-.8A1.985,1.985,0,0,1,1.678,34.39V3.661A1.985,1.985,0,0,1,3.661,1.678H24.016A1.985,1.985,0,0,1,26,3.661v.3H6.858A2.75,2.75,0,0,0,4.112,6.7V22.991a.839.839,0,0,0,1.678,0V6.7A1.07,1.07,0,0,1,6.858,5.635H29.042A1.07,1.07,0,0,1,30.11,6.7V20.764q-.708-.289-1.436-.516l-.085-.027-.233-.07-.206-.059-.209-.057q-.161-.043-.322-.082l-.1-.025a17.427,17.427,0,0,0-5.468-.43l-.088.008-.3.028-.167.017-.181.022q-.217.027-.432.058l-.045.007a17.748,17.748,0,0,0-4.408,1.257l-.064.027-.282.125-.086.04q-.407.187-.806.4l-.162.085-.193.1-.189.105-.174.1-.241.142-.121.072q-.176.107-.35.219l-.119.078q-.125.081-.248.164l-.126.085q-.128.088-.255.178l-.1.072q-.177.128-.353.26l-.022.017q-.164.123-.326.251l-.1.079q-.126.1-.252.2l-.1.086c-.093.077-.185.156-.276.236l-.063.054q-.168.147-.333.3l-.075.069q-.127.118-.252.237l-.1.1q-.116.112-.229.226l-.1.1q-.158.16-.314.324a2.7,2.7,0,0,0,0,3.655c.1.11.208.217.314.324l.1.1c.076.076.152.151.229.226l.1.1q.125.12.253.238l.074.069q.166.152.334.3l.062.053q.138.12.277.237l.1.085q.126.1.253.206l.1.078q.163.129.328.254l.019.015q.176.133.355.26l.1.071.258.18.123.084q.125.085.252.166l.116.076q.175.112.352.22l.115.069.246.146.17.1.193.108.189.1.169.089q.394.206.8.392l.092.043.278.124.069.03a17.721,17.721,0,0,0,4.405,1.255l.045.007q.213.031.428.057l.186.022.165.017.3.028.085.007a17.426,17.426,0,0,0,5.474-.431l.09-.022q.171-.042.342-.088l.174-.048.23-.066.222-.067.1-.032q.721-.226,1.424-.512v6.472ZM13.294,29.806c-.072-.056-.144-.114-.215-.171l-.1-.078-.188-.156-.131-.112c-.055-.047-.11-.093-.164-.141q-.136-.12-.27-.243l-.115-.107c-.063-.058-.125-.117-.187-.176l-.112-.108q-.1-.1-.2-.194l-.094-.095c-.1-.1-.191-.2-.285-.295a.788.788,0,0,1-.058-.069,1.01,1.01,0,0,1-.192-.605.987.987,0,0,1,.25-.675q.143-.15.287-.3l.087-.087.2-.2.106-.1c.065-.062.13-.124.2-.184l.108-.1q.138-.126.278-.249l.151-.13.141-.12.183-.152.1-.084.21-.167.033-.025a17.164,17.164,0,0,1,4.051-2.357,7.794,7.794,0,0,0,0,9.866,17.172,17.172,0,0,1-4.058-2.362l-.024-.019Zm10.131,3.58a6.131,6.131,0,1,1,6.131-6.131A6.138,6.138,0,0,1,23.426,33.386Zm12.187-5.456a17.863,17.863,0,0,1-5.08,3.783q-.526.259-1.06.477a7.793,7.793,0,0,0,0-9.87c.264.108.526.223.787.345l.011.005c.086.04.171.082.256.124a17.868,17.868,0,0,1,5.085,3.786,1.035,1.035,0,0,1,0,1.35Zm0,0" fill="#23147b"/>
      <path id="Trazado_98860" data-name="Trazado 98860" d="M232.755,274.141a4.251,4.251,0,1,0,4.251,4.251A4.256,4.256,0,0,0,232.755,274.141Zm0,6.824a2.573,2.573,0,1,1,2.573-2.573A2.576,2.576,0,0,1,232.755,280.965Zm0,0" transform="translate(-209.33 -251.138)" fill="#23147b"/>
      <path id="Trazado_98861" data-name="Trazado 98861" d="M108.948,105.678h14.769a.839.839,0,1,0,0-1.678H108.948a.839.839,0,1,0,0,1.678Zm0,0" transform="translate(-99.037 -95.274)" fill="#23147b"/>
      <path id="Trazado_98862" data-name="Trazado 98862" d="M108.948,160.678h10.678a.839.839,0,1,0,0-1.678H108.948a.839.839,0,1,0,0,1.678Zm0,0" transform="translate(-99.037 -145.658)" fill="#23147b"/>
      <path id="Trazado_98863" data-name="Trazado 98863" d="M108.948,215.678h4.567a.839.839,0,0,0,0-1.678h-4.567a.839.839,0,0,0,0,1.678Zm0,0" transform="translate(-99.037 -196.043)" fill="#23147b"/>
      <path id="Trazado_98864" data-name="Trazado 98864" d="M50.61,304.524a.848.848,0,0,0-.077-.145.819.819,0,0,0-.1-.128.859.859,0,0,0-.128-.1.891.891,0,0,0-.144-.076.8.8,0,0,0-.157-.048.846.846,0,0,0-.757.229.8.8,0,0,0-.1.128.848.848,0,0,0-.077.145.871.871,0,0,0-.048.157.849.849,0,0,0-.017.165.834.834,0,0,0,.017.164.857.857,0,0,0,.125.3.811.811,0,0,0,.1.128.86.86,0,0,0,.128.1.9.9,0,0,0,.145.076.874.874,0,0,0,.157.048.813.813,0,0,0,.328,0,.861.861,0,0,0,.157-.048.931.931,0,0,0,.144-.076.881.881,0,0,0,.128-.1.834.834,0,0,0,.1-.128.857.857,0,0,0,.125-.3.834.834,0,0,0,.017-.164.849.849,0,0,0-.017-.165.871.871,0,0,0-.048-.157Zm0,0" transform="translate(-44.885 -278.498)" fill="#23147b"/>
    </g>
  </g>
</svg>
