<svg xmlns="http://www.w3.org/2000/svg" width="61.828" height="60" viewBox="0 0 61.828 60">
  <g id="Grupo_53545" data-name="Grupo 53545" transform="translate(-702.261 -9680.501)">
    <ellipse id="Elipse_1196" data-name="Elipse 1196" cx="30.914" cy="30" rx="30.914" ry="30" transform="translate(702.261 9680.501)" fill="#9a4cbc"/>
    <path id="Trazado_99212" data-name="Trazado 99212" d="M1.7,29V7.672H8.687a11.122,11.122,0,0,1,6.189,1.472,4.918,4.918,0,0,1,2.219,4.387,5.175,5.175,0,0,1-.7,2.7,4.33,4.33,0,0,1-2.2,1.78,4.434,4.434,0,0,1,2.82,1.7,5,5,0,0,1,.916,2.974A5.562,5.562,0,0,1,15.835,27.4,9.752,9.752,0,0,1,9.829,29ZM6.65,19.845v5.347H9.829a3.794,3.794,0,0,0,2.373-.623,2.283,2.283,0,0,0,.791-1.912,2.818,2.818,0,0,0-.7-2.065A3.267,3.267,0,0,0,10,19.845H6.65Zm0-3.281H8.6a4.631,4.631,0,0,0,2.666-.623,2.123,2.123,0,0,0,.879-1.853,2.3,2.3,0,0,0-.85-1.985,4.423,4.423,0,0,0-2.607-.623H6.65Z" transform="translate(724.589 9690.501)" fill="#fff"/>
  </g>
</svg>
