<svg xmlns="http://www.w3.org/2000/svg" width="61.828" height="60" viewBox="0 0 61.828 60">
  <g id="Grupo_53546" data-name="Grupo 53546" transform="translate(-702.261 -9873.501)">
    <ellipse id="Elipse_1197" data-name="Elipse 1197" cx="30.914" cy="30" rx="30.914" ry="30" transform="translate(702.261 9873.501)" fill="#9a4cbc"/>
    <path id="Trazado_99213" data-name="Trazado 99213" d="M1.7,29V7.672H9.507a8.7,8.7,0,0,1,6.3,2.454,8.375,8.375,0,0,1,2.534,6.292v3.838a8.369,8.369,0,0,1-2.534,6.3A8.713,8.713,0,0,1,9.507,29ZM6.65,11.48V25.191H9.507a3.393,3.393,0,0,0,2.776-1.377,5.558,5.558,0,0,0,1.091-3.56V16.388a5.51,5.51,0,0,0-1.091-3.53A3.393,3.393,0,0,0,9.507,11.48Z" transform="translate(724.589 9883.501)" fill="#fff"/>
  </g>
</svg>
