<svg xmlns="http://www.w3.org/2000/svg" width="484" height="395.092" viewBox="0 0 484 395.092">
  <g id="Grupo_53532" data-name="Grupo 53532" transform="translate(-745 -156)">
    <circle id="Elipse_1" data-name="Elipse 1" cx="189" cy="189" r="189" transform="translate(851 156)" fill="#5242b1"/>
    <g id="Grupo_53530" data-name="Grupo 53530" transform="translate(643.276 114.046)">
      <g id="Grupo_53397" data-name="Grupo 53397">
        <g id="Grupo_53391" data-name="Grupo 53391" opacity="0.1" style="mix-blend-mode: multiply;isolation: isolate">
          <path id="Trazado_98954" data-name="Trazado 98954" d="M160.546,131.936v23.147L230.7,195.591l70.155-40.508V131.936L230.7,91.429Z"/>
          <path id="Trazado_98955" data-name="Trazado 98955" d="M230.7,172.444l-70.155-40.508L230.7,91.429l70.155,40.507Z"/>
          <path id="Trazado_98956" data-name="Trazado 98956" d="M256.55,161.574c7.306-4.4,14.71-8.629,22.062-12.95,7.416-4.207,14.781-8.506,22.244-12.633-7.3,4.4-14.71,8.63-22.062,12.95C271.377,153.148,264.013,157.446,256.55,161.574Z"/>
          <path id="Trazado_98957" data-name="Trazado 98957" d="M237.724,176.5c10.444-6.211,20.986-12.252,31.475-18.385,10.554-6.019,21.056-12.129,31.657-18.067-10.443,6.212-20.985,12.252-31.474,18.384C258.827,164.449,248.325,170.559,237.724,176.5Z"/>
          <path id="Trazado_98958" data-name="Trazado 98958" d="M230.7,184.609c8.109-4.863,16.316-9.556,24.471-14.34,8.22-4.671,16.387-9.433,24.653-14.024-8.108,4.864-16.315,9.557-24.471,14.34C247.134,175.256,238.967,180.018,230.7,184.609Z"/>
          <path id="Trazado_98959" data-name="Trazado 98959" d="M250.493,177.237c8.315-4.983,16.729-9.795,25.09-14.7,8.426-4.791,16.8-9.672,25.273-14.382-8.315,4.983-16.729,9.795-25.09,14.7C267.339,167.645,258.965,172.526,250.493,177.237Z"/>
          <path id="Trazado_98960" data-name="Trazado 98960" d="M230.7,192.72c9.944-5.923,19.986-11.675,29.975-17.519,10.055-5.731,20.057-11.552,30.158-17.2-9.943,5.924-19.985,11.676-29.975,17.519C250.8,181.248,240.8,187.069,230.7,192.72Z"/>
          <path id="Trazado_98961" data-name="Trazado 98961" d="M180.9,134.13l-3.362-1.938,54.972-31.741,3.407,1.965Z"/>
          <path id="Trazado_98962" data-name="Trazado 98962" d="M187.65,138.084l-3.362-1.938L239.26,104.4l3.407,1.965Z"/>
          <path id="Trazado_98963" data-name="Trazado 98963" d="M194.4,142.038,191.04,140.1l54.972-31.741,3.407,1.965Z"/>
          <path id="Trazado_98964" data-name="Trazado 98964" d="M201.154,145.992l-3.362-1.939,54.972-31.741,3.407,1.965Z"/>
          <path id="Trazado_98965" data-name="Trazado 98965" d="M207.906,149.946l-3.362-1.938,54.972-31.741,3.407,1.965Z"/>
          <path id="Trazado_98966" data-name="Trazado 98966" d="M182.894,152.814c8.046,4.464,15.994,9.1,24,13.644,7.935,4.656,15.923,9.222,23.812,13.96-8.047-4.464-16-9.1-24-13.644C198.771,162.117,190.783,157.551,182.894,152.814Z"/>
          <path id="Trazado_98967" data-name="Trazado 98967" d="M160.546,143.829c5.266,2.859,10.433,5.888,15.653,8.827,5.154,3.051,10.361,6.011,15.469,9.143-5.266-2.859-10.433-5.888-15.652-8.827C170.862,149.92,165.655,146.96,160.546,143.829Z"/>
          <path id="Trazado_98968" data-name="Trazado 98968" d="M160.546,147.748c11.771,6.615,23.444,13.4,35.169,20.1,11.66,6.807,23.373,13.524,34.986,20.412-11.771-6.614-23.444-13.4-35.169-20.1C183.873,161.352,172.16,154.635,160.546,147.748Z"/>
          <path id="Trazado_98969" data-name="Trazado 98969" d="M160.546,151.666c9.252,5.161,18.406,10.493,27.613,15.733,9.141,5.353,18.335,10.615,27.429,16.049-9.252-5.16-18.406-10.492-27.612-15.733C178.835,162.362,169.641,157.1,160.546,151.666Z"/>
          <path id="Trazado_98970" data-name="Trazado 98970" d="M160.546,135.991c11.771,6.616,23.444,13.4,35.169,20.1,11.66,6.807,23.373,13.524,34.986,20.412-11.771-6.615-23.444-13.4-35.169-20.1C183.873,149.6,172.16,142.879,160.546,135.991Z"/>
          <path id="Trazado_98971" data-name="Trazado 98971" d="M261.58,154.614s18-17.363,8.541-40.038c0,0-2.012,9.439-15.272,13.94C254.849,128.516,263.942,143.04,261.58,154.614Z"/>
        </g>
        <g id="Grupo_53396" data-name="Grupo 53396">
          <g id="Grupo_53395" data-name="Grupo 53395">
            <path id="Trazado_98972" data-name="Trazado 98972" d="M160.546,128.936v23.147L230.7,192.591l70.155-40.508V128.936L230.7,88.429Z" fill="#d2e1f1"/>
            <path id="Trazado_98973" data-name="Trazado 98973" d="M230.7,169.444l-70.155-40.508L230.7,88.429l70.155,40.507Z" fill="#f3f9ff"/>
            <g id="Grupo_53392" data-name="Grupo 53392">
              <path id="Trazado_98974" data-name="Trazado 98974" d="M256.55,158.574c7.306-4.4,14.71-8.629,22.062-12.95,7.416-4.207,14.781-8.506,22.244-12.633-7.3,4.4-14.71,8.63-22.062,12.95C271.377,150.148,264.013,154.446,256.55,158.574Z" fill="#233e71"/>
              <path id="Trazado_98975" data-name="Trazado 98975" d="M237.724,173.5c10.444-6.211,20.986-12.252,31.475-18.385,10.554-6.019,21.056-12.129,31.657-18.067-10.443,6.212-20.985,12.252-31.474,18.384C258.827,161.449,248.325,167.559,237.724,173.5Z" fill="#233e71"/>
              <path id="Trazado_98976" data-name="Trazado 98976" d="M230.7,181.609c8.109-4.863,16.316-9.556,24.471-14.34,8.22-4.671,16.387-9.433,24.653-14.024-8.108,4.864-16.315,9.557-24.471,14.34C247.134,172.256,238.967,177.018,230.7,181.609Z" fill="#233e71"/>
              <path id="Trazado_98977" data-name="Trazado 98977" d="M250.493,174.237c8.315-4.983,16.729-9.795,25.09-14.7,8.426-4.791,16.8-9.672,25.273-14.382-8.315,4.983-16.729,9.795-25.09,14.7C267.339,164.645,258.965,169.526,250.493,174.237Z" fill="#233e71"/>
              <path id="Trazado_98978" data-name="Trazado 98978" d="M230.7,189.72c9.944-5.923,19.986-11.675,29.975-17.519,10.055-5.731,20.057-11.552,30.158-17.2-9.943,5.924-19.985,11.676-29.975,17.519C250.8,178.248,240.8,184.069,230.7,189.72Z" fill="#233e71"/>
            </g>
            <g id="Grupo_53393" data-name="Grupo 53393">
              <path id="Trazado_98979" data-name="Trazado 98979" d="M180.9,131.13l-3.362-1.938,54.972-31.741,3.407,1.965Z" fill="#233e71"/>
              <path id="Trazado_98980" data-name="Trazado 98980" d="M187.65,135.084l-3.362-1.938L239.26,101.4l3.407,1.965Z" fill="#233e71"/>
              <path id="Trazado_98981" data-name="Trazado 98981" d="M194.4,139.038,191.04,137.1l54.972-31.741,3.407,1.965Z" fill="#233e71"/>
              <path id="Trazado_98982" data-name="Trazado 98982" d="M201.154,142.992l-3.362-1.939,54.972-31.741,3.407,1.965Z" fill="#233e71"/>
              <path id="Trazado_98983" data-name="Trazado 98983" d="M207.906,146.946l-3.362-1.938,54.972-31.741,3.407,1.965Z" fill="#233e71"/>
            </g>
            <g id="Grupo_53394" data-name="Grupo 53394">
              <path id="Trazado_98984" data-name="Trazado 98984" d="M182.894,149.814c8.046,4.464,15.994,9.1,24,13.644,7.935,4.656,15.923,9.222,23.812,13.96-8.047-4.464-16-9.1-24-13.644C198.771,159.117,190.783,154.551,182.894,149.814Z" fill="#233e71"/>
              <path id="Trazado_98985" data-name="Trazado 98985" d="M160.546,140.829c5.266,2.859,10.433,5.888,15.653,8.827,5.154,3.051,10.361,6.011,15.469,9.143-5.266-2.859-10.433-5.888-15.652-8.827C170.862,146.92,165.655,143.96,160.546,140.829Z" fill="#233e71"/>
              <path id="Trazado_98986" data-name="Trazado 98986" d="M160.546,144.748c11.771,6.615,23.444,13.4,35.169,20.1,11.66,6.807,23.373,13.524,34.986,20.412-11.771-6.614-23.444-13.4-35.169-20.1C183.873,158.352,172.16,151.635,160.546,144.748Z" fill="#233e71"/>
              <path id="Trazado_98987" data-name="Trazado 98987" d="M160.546,148.666c9.252,5.161,18.406,10.493,27.613,15.733,9.141,5.353,18.335,10.615,27.429,16.049-9.252-5.16-18.406-10.492-27.612-15.733C178.835,159.362,169.641,154.1,160.546,148.666Z" fill="#233e71"/>
              <path id="Trazado_98988" data-name="Trazado 98988" d="M160.546,132.991c11.771,6.616,23.444,13.4,35.169,20.1,11.66,6.807,23.373,13.524,34.986,20.412-11.771-6.615-23.444-13.4-35.169-20.1C183.873,146.6,172.16,139.879,160.546,132.991Z" fill="#233e71"/>
            </g>
            <path id="Trazado_98989" data-name="Trazado 98989" d="M261.58,151.614s18-17.363,8.541-40.038c0,0-2.012,9.439-15.272,13.94C254.849,125.516,263.942,140.04,261.58,151.614Z" fill="#d2e1f1"/>
          </g>
        </g>
      </g>
      <g id="Grupo_53422" data-name="Grupo 53422">
        <g id="Grupo_53398" data-name="Grupo 53398" opacity="0.1" style="mix-blend-mode: multiply;isolation: isolate">
          <path id="Trazado_98990" data-name="Trazado 98990" d="M151.42,272.4v-9.251L392.193,124.125,552.17,216.5v10.182L312.2,365.234Z"/>
          <path id="Trazado_98991" data-name="Trazado 98991" d="M151.42,263.147,312.2,355.052,552.17,216.5v10.1L312.2,365.157,151.42,272.32Z"/>
          <path id="Trazado_98992" data-name="Trazado 98992" d="M181.407,258.9,387.935,139.651l137.225,79.233L319.323,337.734Z"/>
          <path id="Trazado_98993" data-name="Trazado 98993" d="M355.08,175.25l19.176-11.072,19.176,11.072-19.176,11.072Z"/>
          <path id="Trazado_98994" data-name="Trazado 98994" d="M479.771,225.034,474.661,228l-76.689-44.238,5.166-2.982Z"/>
          <path id="Trazado_98995" data-name="Trazado 98995" d="M470.1,230.634l-5.11,2.954-76.8-44.28,5.166-2.982Z"/>
          <path id="Trazado_98996" data-name="Trazado 98996" d="M365.089,180.889V169.053h3.337v7.794l23.512-4.525.63,3.277Z"/>
          <path id="Trazado_98997" data-name="Trazado 98997" d="M324.286,192.986l19.176-11.072,19.176,11.072-19.176,11.072Z"/>
          <path id="Trazado_98998" data-name="Trazado 98998" d="M448.977,242.77l-5.11,2.968L367.178,201.5l5.166-2.982Z"/>
          <path id="Trazado_98999" data-name="Trazado 98999" d="M439.3,248.369l-5.11,2.954-76.8-44.28,5.166-2.982Z"/>
          <path id="Trazado_99000" data-name="Trazado 99000" d="M334.3,198.625V186.789h3.337v7.794l23.512-4.525.63,3.277Z"/>
          <path id="Trazado_99001" data-name="Trazado 99001" d="M293.492,210.721l19.175-11.072,19.176,11.072-19.176,11.072Z"/>
          <path id="Trazado_99002" data-name="Trazado 99002" d="M418.184,260.505l-5.11,2.968-76.689-44.238,5.166-2.982Z"/>
          <path id="Trazado_99003" data-name="Trazado 99003" d="M408.51,266.1l-5.11,2.954-76.8-44.28,5.166-2.982Z"/>
          <path id="Trazado_99004" data-name="Trazado 99004" d="M303.5,216.36V204.525h3.337v7.793l23.512-4.525.631,3.277Z"/>
          <path id="Trazado_99005" data-name="Trazado 99005" d="M262.7,228.457l19.176-11.072,19.176,11.072-19.176,11.072Z"/>
          <path id="Trazado_99006" data-name="Trazado 99006" d="M387.39,278.241l-5.11,2.968L305.591,236.97l5.166-2.982Z"/>
          <path id="Trazado_99007" data-name="Trazado 99007" d="M377.716,283.841l-5.11,2.954-76.8-44.28,5.166-2.982Z"/>
          <path id="Trazado_99008" data-name="Trazado 99008" d="M272.707,234.1V222.26h3.337v7.794l23.512-4.526.631,3.277Z"/>
          <path id="Trazado_99009" data-name="Trazado 99009" d="M337.854,307.985l-.642.37L287.1,279.464l.686-.392Z"/>
          <path id="Trazado_99010" data-name="Trazado 99010" d="M298.518,276.875c2.326.17,4.658.276,6.986.264,1.164-.009,2.329-.039,3.482-.153a8.052,8.052,0,0,0,3.279-.87c1.459-.734-.486-1.11-1.459-1.1a18.261,18.261,0,0,0-3.432.267,43.1,43.1,0,0,0-6.7,1.8,31.761,31.761,0,0,0-3.2,1.313,9.046,9.046,0,0,0-2.773,1.835c-.345.41-.445.79-.159,1.119a5.116,5.116,0,0,0,1.3.912,10.166,10.166,0,0,0,3.219.964c1.129.173,2.282.238,3.451.319.585.043,1.176.092,1.775.185a3.266,3.266,0,0,1,1.835.759,1.421,1.421,0,0,1,.313,1.127,4.341,4.341,0,0,1-.246.934,3.777,3.777,0,0,0-.366,1.5c.074.783,1.5.835,2.578.887a37.94,37.94,0,0,0,6.887-.5,13.117,13.117,0,0,0,3.249-.86c.254-.1.345-.332.3-.156a.749.749,0,0,0-.154-.129,1.322,1.322,0,0,0-.3-.156,3.473,3.473,0,0,0-1.549-.116,10.307,10.307,0,0,0-3.2.99,7.527,7.527,0,0,0-2.645,1.958c-.308.418-.468.887-.235,1.229a2.568,2.568,0,0,0,1.223.844,10.587,10.587,0,0,0,3.319.576c2.3.131,4.666-.111,7.025.455a4.691,4.691,0,0,1,2.926,2.09,7.111,7.111,0,0,1,.826,3.467,3.287,3.287,0,0,0,1.477,2.832,7.864,7.864,0,0,0,3.232,1.076,21.681,21.681,0,0,0,6.939-.333,21.771,21.771,0,0,1-6.965.546,8.112,8.112,0,0,1-3.381-1.019,3.362,3.362,0,0,1-1.265-1.307,4.89,4.89,0,0,1-.459-1.752,6.71,6.71,0,0,0-.812-3.25,4.181,4.181,0,0,0-2.653-1.825c-2.212-.5-4.57-.238-6.916-.329a11.093,11.093,0,0,1-3.551-.571,3.162,3.162,0,0,1-1.582-1.14,1.8,1.8,0,0,1,.267-2.014,8.153,8.153,0,0,1,2.9-2.2,11.026,11.026,0,0,1,3.445-1.081,4.216,4.216,0,0,1,1.906.151,2.122,2.122,0,0,1,.473.243,1.085,1.085,0,0,1,.439.494.752.752,0,0,1-.217.8,1.931,1.931,0,0,1-.449.313,13.563,13.563,0,0,1-3.483.958,38.777,38.777,0,0,1-7.047.548,10.282,10.282,0,0,1-1.813-.19,1.787,1.787,0,0,1-1.548-1.418,4.256,4.256,0,0,1,.415-1.879c.2-.53.32-1.052.092-1.263a2.758,2.758,0,0,0-1.362-.505c-.553-.088-1.125-.141-1.7-.186-1.156-.087-2.335-.158-3.511-.345a10.9,10.9,0,0,1-3.444-1.058,5.519,5.519,0,0,1-1.529-1.116,1.369,1.369,0,0,1-.3-1.1,2.006,2.006,0,0,1,.484-.937,9.581,9.581,0,0,1,3.022-2,32.454,32.454,0,0,1,3.292-1.287,43.584,43.584,0,0,1,6.828-1.71,18.821,18.821,0,0,1,3.537-.216,5.571,5.571,0,0,1,1.792.332,1.25,1.25,0,0,1,.437.288.592.592,0,0,1,.14.621,1.55,1.55,0,0,1-.728.693,8.417,8.417,0,0,1-3.456.819c-1.172.08-2.342.076-3.509.051C303.167,277.288,300.839,277.113,298.518,276.875Z"/>
          <path id="Trazado_99011" data-name="Trazado 99011" d="M248.254,263.385a2.013,2.013,0,0,0-.389.314l-1.04-.53a2.411,2.411,0,0,1,.721-.472c.409-.208,1.066-.529,1.979-.965l1.458-.7a6.539,6.539,0,0,0,1.6-.922c.145-.172-.04-.389-.563-.656l-1.029-.6-6.513,3.113-1.046-.533,13.2-6.312,2.1,1.07c.839.428,1.214.81,1.118,1.137a1.352,1.352,0,0,1-.631.709,17.457,17.457,0,0,1-1.713.9,10.525,10.525,0,0,1-2.174.79,3.6,3.6,0,0,1-1.811-.008.636.636,0,0,1,.247.29.36.36,0,0,1-.09.343c-.3.416-1.571,1.159-3.832,2.24C248.913,263.045,248.38,263.306,248.254,263.385Zm5.488-4.058a3.128,3.128,0,0,0,.934-.159,16.4,16.4,0,0,0,1.921-.817l.1-.046a10.47,10.47,0,0,0,1.368-.743c.253-.179.364-.327.332-.452s-.189-.261-.486-.412l-1.169-.6-5.013,2.4,1.092.556a2.15,2.15,0,0,0,.924.273"/>
          <path id="Trazado_99012" data-name="Trazado 99012" d="M278.594,266.316l-.871.416-2.216-1.129-5.165,2.469,2.08,1.06-.906.433-2.08-1.06-5.379,2.571,2.19,1.116-.885.423-3.236-1.649,13.2-6.312Z"/>
          <path id="Trazado_99013" data-name="Trazado 99013" d="M291.6,267.227c2.8,1.428,2.643,3.757-.357,5.191L277.4,279.03a13.435,13.435,0,0,1-10.524.011L218.44,254.36c-2.8-1.429-2.649-3.76.351-5.2l13.835-6.612a13.451,13.451,0,0,1,10.531-.007ZM275.97,278.3l13.835-6.612c2.157-1.031,2.265-2.7.257-3.727l-48.44-24.681a9.632,9.632,0,0,0-7.556.008L220.232,249.9c-2.15,1.028-2.272,2.7-.257,3.727l48.44,24.681a9.656,9.656,0,0,0,7.555-.008"/>
          <path id="Trazado_99014" data-name="Trazado 99014" d="M241.11,247.217,230.1,254.645l-1.008-.514,2.269-1.486-2.468-1.257-3.044,1.091-.988-.5,15.188-5.3Zm-11.16,3.8,2.19,1.116,6.343-4.148-.019-.01-8.514,3.042"/>
          <path id="Trazado_99015" data-name="Trazado 99015" d="M246.753,252.359c-.4.222-.888.476-1.49.764l-.131.062a16.485,16.485,0,0,1-2.627,1.058,7.106,7.106,0,0,1-1.462.252,4.381,4.381,0,0,1-2.179-.489l-1.04-.53-5.171,2.472-1.04-.53,13.2-6.312,2.144,1.093a1.744,1.744,0,0,1,.891.754.571.571,0,0,1-.1.621A4.351,4.351,0,0,1,246.753,252.359Zm-2.681.3.352-.169a8.227,8.227,0,0,0,1.868-1.1q.418-.4-.211-.722l-1.156-.589-6.161,2.944,1.111.566a2.212,2.212,0,0,0,1.523.127,14.644,14.644,0,0,0,2.674-1.061"/>
          <path id="Trazado_99016" data-name="Trazado 99016" d="M252.657,255.368c-.39.224-.888.475-1.49.763l-.131.063a16.133,16.133,0,0,1-2.627,1.058,6.714,6.714,0,0,1-1.462.252,4.343,4.343,0,0,1-2.173-.486l-1.04-.53-5.171,2.472-1.046-.534,13.205-6.311,2.144,1.092a1.723,1.723,0,0,1,.891.755.56.56,0,0,1-.09.623A4.16,4.16,0,0,1,252.657,255.368Zm-2.675.3.353-.168a8.218,8.218,0,0,0,1.867-1.1c.273-.27.209-.508-.211-.722l-1.156-.589-6.16,2.945,1.111.565a2.2,2.2,0,0,0,1.522.127,14.97,14.97,0,0,0,2.674-1.061"/>
          <path id="Trazado_99017" data-name="Trazado 99017" d="M265.116,261.347c-.432.258-1,.555-1.692.886l-5.621,2.686a17.318,17.318,0,0,1-2.607,1.061,7.376,7.376,0,0,1-1.435.259,4.339,4.339,0,0,1-2.16-.486c-1.02-.52-1.183-1.074-.5-1.655a11.509,11.509,0,0,1,2.369-1.387l5.621-2.687a10.749,10.749,0,0,1,3.687-1.207,4.788,4.788,0,0,1,2.451.525c.781.4,1.041.8.792,1.209A2.586,2.586,0,0,1,265.116,261.347Zm-8.353,3.042,5.711-2.729a8.8,8.8,0,0,0,2-1.166c.287-.278.2-.525-.236-.749a2.357,2.357,0,0,0-1.574-.153,11.337,11.337,0,0,0-2.437.916l-5.717,2.733a10.24,10.24,0,0,0-2.149,1.205c-.223.221-.315.393-.27.512a.894.894,0,0,0,.424.352,2.112,2.112,0,0,0,.7.22,3.361,3.361,0,0,0,1.038-.113,14.863,14.863,0,0,0,2.511-1.028"/>
          <path id="Trazado_99018" data-name="Trazado 99018" d="M273.769,263.858l-15.195,5.3-1.085-.553,11.009-7.431,1,.51-9.1,6.05,12.364-4.385Z"/>
          <path id="Trazado_99019" data-name="Trazado 99019" d="M280.808,271.165l-5.649,2.707a10.874,10.874,0,0,1-3.467,1.121,4.933,4.933,0,0,1-2.744-.551l-1.86-.948,13.2-6.312,1.9.968q1.667.849.66,1.776A8.493,8.493,0,0,1,280.808,271.165Zm-8.873,3.01a12.518,12.518,0,0,0,2.294-.886l5.656-2.71a5.047,5.047,0,0,0,1.771-1.153c.215-.306.107-.573-.333-.8l-.923-.471-11.311,5.406.859.438a2.793,2.793,0,0,0,1.987.173"/>
          <path id="Trazado_99020" data-name="Trazado 99020" d="M483.283,159.857l-.119,7.651s-.982,3.029-5.236,4.6v-5.231S483.248,163.776,483.283,159.857Z"/>
          <path id="Trazado_99021" data-name="Trazado 99021" d="M512.479,186.667l-27.7,16L404.777,156.5l27.714-16.018,22.858,13.2s11.43-6.591,22.859,0c11.429,6.607,0,13.2,0,13.2Z"/>
          <path id="Trazado_99022" data-name="Trazado 99022" d="M404.777,156.5l80,46.167,27.7-16v6.911l-27.43,16.32-80.272-46.186Z"/>
        </g>
        <g id="Grupo_53421" data-name="Grupo 53421">
          <g id="Grupo_53420" data-name="Grupo 53420">
            <g id="Grupo_53418" data-name="Grupo 53418">
              <path id="Trazado_99023" data-name="Trazado 99023" d="M151.42,269.4v-9.251L392.193,121.125,552.17,213.5v10.182L312.2,362.234Z" fill="#f5deff"/>
              <path id="Trazado_99024" data-name="Trazado 99024" d="M151.42,260.147,312.2,352.052,552.17,213.5v10.1L312.2,362.157,151.42,269.32Z" fill="#cac3f5"/>
              <path id="Trazado_99025" data-name="Trazado 99025" d="M181.407,255.9,387.935,136.651l137.225,79.233L319.323,334.734Z" fill="#fff"/>
              <g id="Grupo_53400" data-name="Grupo 53400">
                <g id="Grupo_53399" data-name="Grupo 53399">
                  <path id="Trazado_99026" data-name="Trazado 99026" d="M355.08,172.25l19.176-11.072,19.176,11.072-19.176,11.072Z" fill="#5880b2"/>
                  <path id="Trazado_99027" data-name="Trazado 99027" d="M479.771,222.034,474.661,225l-76.689-44.238,5.166-2.982Z" fill="#466799"/>
                  <path id="Trazado_99028" data-name="Trazado 99028" d="M470.1,227.634l-5.11,2.954-76.8-44.28,5.166-2.982Z" fill="#466799"/>
                  <path id="Trazado_99029" data-name="Trazado 99029" d="M365.089,177.889V166.053h3.337v7.794l23.512-4.525.63,3.277Z" fill="#233e71"/>
                </g>
              </g>
              <g id="Grupo_53402" data-name="Grupo 53402">
                <g id="Grupo_53401" data-name="Grupo 53401">
                  <path id="Trazado_99030" data-name="Trazado 99030" d="M324.286,189.986l19.176-11.072,19.176,11.072-19.176,11.072Z" fill="#5880b2"/>
                  <path id="Trazado_99031" data-name="Trazado 99031" d="M448.977,239.77l-5.11,2.968L367.178,198.5l5.166-2.982Z" fill="#466799"/>
                  <path id="Trazado_99032" data-name="Trazado 99032" d="M439.3,245.369l-5.11,2.954-76.8-44.28,5.166-2.982Z" fill="#466799"/>
                  <path id="Trazado_99033" data-name="Trazado 99033" d="M334.3,195.625V183.789h3.337v7.794l23.512-4.525.63,3.277Z" fill="#233e71"/>
                </g>
              </g>
              <g id="Grupo_53404" data-name="Grupo 53404">
                <g id="Grupo_53403" data-name="Grupo 53403">
                  <path id="Trazado_99034" data-name="Trazado 99034" d="M293.492,207.721l19.175-11.072,19.176,11.072-19.176,11.072Z" fill="#5880b2"/>
                  <path id="Trazado_99035" data-name="Trazado 99035" d="M418.184,257.505l-5.11,2.968-76.689-44.238,5.166-2.982Z" fill="#466799"/>
                  <path id="Trazado_99036" data-name="Trazado 99036" d="M408.51,263.1l-5.11,2.954-76.8-44.28,5.166-2.982Z" fill="#466799"/>
                  <path id="Trazado_99037" data-name="Trazado 99037" d="M303.5,213.36V201.525h3.337v7.793l23.512-4.525.631,3.277Z" fill="#233e71"/>
                </g>
              </g>
              <g id="Grupo_53406" data-name="Grupo 53406">
                <g id="Grupo_53405" data-name="Grupo 53405">
                  <path id="Trazado_99038" data-name="Trazado 99038" d="M262.7,225.457l19.176-11.072,19.176,11.072-19.176,11.072Z" fill="#5880b2"/>
                  <path id="Trazado_99039" data-name="Trazado 99039" d="M387.39,275.241l-5.11,2.968L305.591,233.97l5.166-2.982Z" fill="#466799"/>
                  <path id="Trazado_99040" data-name="Trazado 99040" d="M377.716,280.841l-5.11,2.954-76.8-44.28,5.166-2.982Z" fill="#466799"/>
                  <path id="Trazado_99041" data-name="Trazado 99041" d="M272.707,231.1V219.26h3.337v7.794l23.512-4.526.631,3.277Z" fill="#233e71"/>
                </g>
              </g>
              <path id="Trazado_99042" data-name="Trazado 99042" d="M337.854,304.985l-.642.37L287.1,276.464l.686-.392Z" fill="#466799"/>
              <path id="Trazado_99043" data-name="Trazado 99043" d="M298.518,273.875c2.326.17,4.658.276,6.986.264,1.164-.009,2.329-.039,3.482-.153a8.052,8.052,0,0,0,3.279-.87c1.459-.734-.486-1.11-1.459-1.1a18.261,18.261,0,0,0-3.432.267,43.1,43.1,0,0,0-6.7,1.8,31.761,31.761,0,0,0-3.2,1.313,9.046,9.046,0,0,0-2.773,1.835c-.345.41-.445.79-.159,1.119a5.116,5.116,0,0,0,1.3.912,10.166,10.166,0,0,0,3.219.964c1.129.173,2.282.238,3.451.319.585.043,1.176.092,1.775.185a3.266,3.266,0,0,1,1.835.759,1.421,1.421,0,0,1,.313,1.127,4.341,4.341,0,0,1-.246.934,3.777,3.777,0,0,0-.366,1.5c.074.783,1.5.835,2.578.887a37.94,37.94,0,0,0,6.887-.5,13.117,13.117,0,0,0,3.249-.86c.254-.1.345-.332.3-.156a.749.749,0,0,0-.154-.129,1.322,1.322,0,0,0-.3-.156,3.473,3.473,0,0,0-1.549-.116,10.307,10.307,0,0,0-3.2.99,7.527,7.527,0,0,0-2.645,1.958c-.308.418-.468.887-.235,1.229a2.568,2.568,0,0,0,1.223.844,10.587,10.587,0,0,0,3.319.576c2.3.131,4.666-.111,7.025.455a4.691,4.691,0,0,1,2.926,2.09,7.111,7.111,0,0,1,.826,3.467,3.287,3.287,0,0,0,1.477,2.832,7.864,7.864,0,0,0,3.232,1.076,21.681,21.681,0,0,0,6.939-.333,21.771,21.771,0,0,1-6.965.546,8.112,8.112,0,0,1-3.381-1.019,3.362,3.362,0,0,1-1.265-1.307,4.89,4.89,0,0,1-.459-1.752,6.71,6.71,0,0,0-.812-3.25,4.181,4.181,0,0,0-2.653-1.825c-2.212-.5-4.57-.238-6.916-.329a11.093,11.093,0,0,1-3.551-.571,3.162,3.162,0,0,1-1.582-1.14,1.8,1.8,0,0,1,.267-2.014,8.153,8.153,0,0,1,2.9-2.2,11.026,11.026,0,0,1,3.445-1.081,4.216,4.216,0,0,1,1.906.151,2.122,2.122,0,0,1,.473.243,1.085,1.085,0,0,1,.439.494.752.752,0,0,1-.217.8,1.931,1.931,0,0,1-.449.313,13.563,13.563,0,0,1-3.483.958,38.777,38.777,0,0,1-7.047.548,10.282,10.282,0,0,1-1.813-.19,1.787,1.787,0,0,1-1.548-1.418,4.256,4.256,0,0,1,.415-1.879c.2-.53.32-1.052.092-1.263a2.758,2.758,0,0,0-1.362-.505c-.553-.088-1.125-.141-1.7-.186-1.156-.087-2.335-.158-3.511-.345a10.9,10.9,0,0,1-3.444-1.058,5.519,5.519,0,0,1-1.529-1.116,1.369,1.369,0,0,1-.3-1.1,2.006,2.006,0,0,1,.484-.937,9.581,9.581,0,0,1,3.022-2,32.454,32.454,0,0,1,3.292-1.287,43.584,43.584,0,0,1,6.828-1.71,18.821,18.821,0,0,1,3.537-.216,5.571,5.571,0,0,1,1.792.332,1.25,1.25,0,0,1,.437.288.592.592,0,0,1,.14.621,1.55,1.55,0,0,1-.728.693,8.417,8.417,0,0,1-3.456.819c-1.172.08-2.342.076-3.509.051C303.167,274.288,300.839,274.113,298.518,273.875Z" fill="#233e71"/>
              <g id="Grupo_53417" data-name="Grupo 53417">
                <g id="Grupo_53416" data-name="Grupo 53416" style="isolation: isolate">
                  <g id="Grupo_53407" data-name="Grupo 53407">
                    <path id="Trazado_99044" data-name="Trazado 99044" d="M248.254,260.385a2.013,2.013,0,0,0-.389.314l-1.04-.53a2.411,2.411,0,0,1,.721-.472c.409-.208,1.066-.529,1.979-.965l1.458-.7a6.539,6.539,0,0,0,1.6-.922c.145-.172-.04-.389-.563-.656l-1.029-.6-6.513,3.113-1.046-.533,13.2-6.312,2.1,1.07c.839.428,1.214.81,1.118,1.137a1.352,1.352,0,0,1-.631.709,17.454,17.454,0,0,1-1.713.9,10.525,10.525,0,0,1-2.174.79,3.6,3.6,0,0,1-1.811-.008.636.636,0,0,1,.247.29.36.36,0,0,1-.09.343c-.3.416-1.571,1.159-3.832,2.24C248.913,260.045,248.38,260.306,248.254,260.385Zm5.488-4.058a3.128,3.128,0,0,0,.934-.159,16.393,16.393,0,0,0,1.921-.817l.1-.046a10.466,10.466,0,0,0,1.368-.743c.253-.179.364-.327.332-.452s-.189-.261-.486-.412l-1.169-.6-5.013,2.4,1.092.556a2.15,2.15,0,0,0,.924.273" fill="#e27d5e"/>
                  </g>
                  <g id="Grupo_53408" data-name="Grupo 53408">
                    <path id="Trazado_99045" data-name="Trazado 99045" d="M278.594,263.316l-.871.416-2.216-1.129-5.165,2.469,2.08,1.06-.906.433-2.08-1.06-5.379,2.571,2.19,1.116-.885.423-3.236-1.649,13.2-6.312Z" fill="#e27d5e"/>
                  </g>
                  <g id="Grupo_53409" data-name="Grupo 53409">
                    <path id="Trazado_99046" data-name="Trazado 99046" d="M291.6,264.227c2.8,1.428,2.643,3.757-.357,5.191L277.4,276.03a13.435,13.435,0,0,1-10.524.011L218.44,251.36c-2.8-1.429-2.649-3.76.351-5.2l13.835-6.612a13.451,13.451,0,0,1,10.531-.007ZM275.97,275.3l13.835-6.612c2.157-1.031,2.265-2.7.257-3.727l-48.44-24.681a9.632,9.632,0,0,0-7.556.008L220.232,246.9c-2.15,1.028-2.272,2.7-.257,3.727l48.44,24.681a9.656,9.656,0,0,0,7.555-.008" fill="#e27d5e"/>
                  </g>
                  <g id="Grupo_53410" data-name="Grupo 53410">
                    <path id="Trazado_99047" data-name="Trazado 99047" d="M241.11,244.217,230.1,251.645l-1.008-.514,2.269-1.486-2.468-1.257-3.044,1.091-.988-.5,15.188-5.3Zm-11.16,3.8,2.19,1.116,6.343-4.148-.019-.01-8.514,3.042" fill="#e27d5e"/>
                  </g>
                  <g id="Grupo_53411" data-name="Grupo 53411">
                    <path id="Trazado_99048" data-name="Trazado 99048" d="M246.753,249.359c-.4.222-.888.476-1.49.764l-.131.062a16.485,16.485,0,0,1-2.627,1.058,7.106,7.106,0,0,1-1.462.252,4.381,4.381,0,0,1-2.179-.489l-1.04-.53-5.171,2.472-1.04-.53,13.2-6.312,2.144,1.093a1.744,1.744,0,0,1,.891.754.571.571,0,0,1-.1.621A4.351,4.351,0,0,1,246.753,249.359Zm-2.681.3.352-.169a8.227,8.227,0,0,0,1.868-1.1q.418-.4-.211-.722l-1.156-.589-6.161,2.944,1.111.566a2.217,2.217,0,0,0,1.523.127,14.644,14.644,0,0,0,2.674-1.061" fill="#e27d5e"/>
                  </g>
                  <g id="Grupo_53412" data-name="Grupo 53412">
                    <path id="Trazado_99049" data-name="Trazado 99049" d="M252.657,252.368c-.39.224-.888.475-1.49.763l-.131.063a16.133,16.133,0,0,1-2.627,1.058,6.714,6.714,0,0,1-1.462.252,4.343,4.343,0,0,1-2.173-.486l-1.04-.53-5.171,2.472-1.046-.534,13.205-6.311,2.144,1.092a1.723,1.723,0,0,1,.891.755.56.56,0,0,1-.09.623A4.16,4.16,0,0,1,252.657,252.368Zm-2.675.3.353-.168a8.218,8.218,0,0,0,1.867-1.1c.273-.27.209-.508-.211-.722l-1.156-.589-6.16,2.945,1.111.565a2.2,2.2,0,0,0,1.522.127,14.97,14.97,0,0,0,2.674-1.061" fill="#e27d5e"/>
                  </g>
                  <g id="Grupo_53413" data-name="Grupo 53413">
                    <path id="Trazado_99050" data-name="Trazado 99050" d="M265.116,258.347c-.432.258-1,.555-1.692.886l-5.621,2.686a17.318,17.318,0,0,1-2.607,1.061,7.376,7.376,0,0,1-1.435.259,4.339,4.339,0,0,1-2.16-.486c-1.02-.52-1.183-1.074-.5-1.655a11.509,11.509,0,0,1,2.369-1.387l5.621-2.687a10.749,10.749,0,0,1,3.687-1.207,4.788,4.788,0,0,1,2.451.525c.781.4,1.041.8.792,1.209A2.586,2.586,0,0,1,265.116,258.347Zm-8.353,3.042,5.711-2.729a8.8,8.8,0,0,0,2-1.166c.287-.278.2-.525-.236-.749a2.357,2.357,0,0,0-1.574-.153,11.337,11.337,0,0,0-2.437.916l-5.717,2.733a10.24,10.24,0,0,0-2.149,1.205c-.223.221-.315.393-.27.512a.894.894,0,0,0,.424.352,2.112,2.112,0,0,0,.7.22,3.361,3.361,0,0,0,1.038-.113,14.863,14.863,0,0,0,2.511-1.028" fill="#e27d5e"/>
                  </g>
                  <g id="Grupo_53414" data-name="Grupo 53414">
                    <path id="Trazado_99051" data-name="Trazado 99051" d="M273.769,260.858l-15.195,5.3-1.085-.553,11.009-7.431,1,.51-9.1,6.05,12.364-4.385Z" fill="#e27d5e"/>
                  </g>
                  <g id="Grupo_53415" data-name="Grupo 53415">
                    <path id="Trazado_99052" data-name="Trazado 99052" d="M280.808,268.165l-5.649,2.707a10.874,10.874,0,0,1-3.467,1.121,4.933,4.933,0,0,1-2.744-.551l-1.86-.948,13.2-6.312,1.9.968q1.667.849.66,1.776A8.493,8.493,0,0,1,280.808,268.165Zm-8.873,3.01a12.518,12.518,0,0,0,2.294-.886l5.656-2.71a5.047,5.047,0,0,0,1.771-1.153c.215-.306.107-.573-.333-.8l-.923-.471-11.311,5.406.859.438a2.793,2.793,0,0,0,1.987.173" fill="#e27d5e"/>
                  </g>
                </g>
              </g>
            </g>
            <g id="Grupo_53419" data-name="Grupo 53419">
              <path id="Trazado_99053" data-name="Trazado 99053" d="M483.283,156.857l-.119,7.651s-.982,3.029-5.236,4.6v-5.231S483.248,160.776,483.283,156.857Z" fill="#72318e"/>
              <path id="Trazado_99054" data-name="Trazado 99054" d="M512.479,183.667l-27.7,16L404.777,153.5l27.714-16.018,22.858,13.2s11.43-6.591,22.859,0c11.429,6.607,0,13.2,0,13.2Z" fill="#9a4cbc"/>
              <path id="Trazado_99055" data-name="Trazado 99055" d="M404.777,153.5l80,46.167,27.7-16v6.911l-27.43,16.32-80.272-46.186Z" fill="#72318e"/>
            </g>
          </g>
        </g>
      </g>
      <g id="Grupo_53448" data-name="Grupo 53448">
        <path id="Trazado_99056" data-name="Trazado 99056" d="M414.808,116.642l144.857,83.387,11.032-6.363-144.64-83.721Z" fill="#272726" opacity="0.1"/>
        <g id="Grupo_53447" data-name="Grupo 53447">
          <g id="Grupo_53430" data-name="Grupo 53430">
            <g id="Grupo_53429" data-name="Grupo 53429" style="isolation: isolate">
              <g id="Grupo_53423" data-name="Grupo 53423">
                <path id="Trazado_99057" data-name="Trazado 99057" d="M406.857,77.151l6.346-3.42,17.746,6.612-6.346,3.42Z" fill="#dbb31b"/>
              </g>
              <g id="Grupo_53424" data-name="Grupo 53424">
                <path id="Trazado_99058" data-name="Trazado 99058" d="M443.931,111.412l6.346-3.42,2.165,21.866-6.346,3.42Z" fill="#dbb31b"/>
              </g>
              <g id="Grupo_53425" data-name="Grupo 53425">
                <path id="Trazado_99059" data-name="Trazado 99059" d="M433.228,69.374l6.346-3.42,6.784,22.582-6.347,3.42Z" fill="#dbb31b"/>
              </g>
              <g id="Grupo_53426" data-name="Grupo 53426">
                <path id="Trazado_99060" data-name="Trazado 99060" d="M433.228,69.374l6.784,22.582,17.471,12.113-13.552,7.342,2.165,21.866-15.162-18.037-16.126,1.4,4.183-18.491-12.134-21L424.6,83.763Z" fill="#42e0e6"/>
              </g>
              <g id="Grupo_53427" data-name="Grupo 53427">
                <path id="Trazado_99061" data-name="Trazado 99061" d="M440.012,91.956l6.347-3.42,17.47,12.113-6.346,3.42Z" fill="#dbb31b"/>
              </g>
              <g id="Grupo_53428" data-name="Grupo 53428">
                <path id="Trazado_99062" data-name="Trazado 99062" d="M457.483,104.07l6.346-3.42-13.552,7.342-6.346,3.42Z" fill="#efc299"/>
              </g>
            </g>
          </g>
          <g id="Grupo_53438" data-name="Grupo 53438">
            <g id="Grupo_53437" data-name="Grupo 53437" style="isolation: isolate">
              <g id="Grupo_53431" data-name="Grupo 53431">
                <path id="Trazado_99063" data-name="Trazado 99063" d="M517.4,140.72l6.346-3.42,17.746,6.612-6.346,3.42Z" fill="#dbb31b"/>
              </g>
              <g id="Grupo_53432" data-name="Grupo 53432">
                <path id="Trazado_99064" data-name="Trazado 99064" d="M554.477,174.981l6.346-3.42,2.165,21.866-6.346,3.42Z" fill="#dbb31b"/>
              </g>
              <g id="Grupo_53433" data-name="Grupo 53433">
                <path id="Trazado_99065" data-name="Trazado 99065" d="M543.773,132.943l6.346-3.42,6.784,22.582-6.346,3.42Z" fill="#dbb31b"/>
              </g>
              <g id="Grupo_53434" data-name="Grupo 53434">
                <path id="Trazado_99066" data-name="Trazado 99066" d="M543.773,132.943l6.784,22.583,17.47,12.113-13.552,7.342,2.165,21.866L541.479,178.81l-16.126,1.4,4.183-18.491-12.134-21,17.746,6.611Z" fill="#42e0e6"/>
              </g>
              <g id="Grupo_53435" data-name="Grupo 53435">
                <path id="Trazado_99067" data-name="Trazado 99067" d="M550.558,155.525l6.346-3.42,17.47,12.113-6.346,3.42Z" fill="#dbb31b"/>
              </g>
              <g id="Grupo_53436" data-name="Grupo 53436">
                <path id="Trazado_99068" data-name="Trazado 99068" d="M568.028,167.638l6.346-3.42-13.552,7.342-6.346,3.42Z" fill="#efc299"/>
              </g>
            </g>
          </g>
          <g id="Grupo_53446" data-name="Grupo 53446">
            <g id="Grupo_53445" data-name="Grupo 53445" style="isolation: isolate">
              <g id="Grupo_53439" data-name="Grupo 53439">
                <path id="Trazado_99069" data-name="Trazado 99069" d="M454.625,93.711l8.351-4.5,23.35,8.7-8.351,4.5Z" fill="#dbb31b"/>
              </g>
              <g id="Grupo_53440" data-name="Grupo 53440">
                <path id="Trazado_99070" data-name="Trazado 99070" d="M503.408,138.792l8.351-4.5,2.849,28.772-8.351,4.5Z" fill="#dbb31b"/>
              </g>
              <g id="Grupo_53441" data-name="Grupo 53441">
                <path id="Trazado_99071" data-name="Trazado 99071" d="M489.324,83.478l8.351-4.5,8.927,29.714-8.351,4.5Z" fill="#dbb31b"/>
              </g>
              <g id="Grupo_53442" data-name="Grupo 53442">
                <path id="Trazado_99072" data-name="Trazado 99072" d="M489.324,83.478l8.927,29.714,22.988,15.939-17.831,9.661,2.849,28.772-19.951-23.733-21.219,1.843,5.5-24.33L454.625,93.711l23.35,8.7Z" fill="#42e0e6"/>
              </g>
              <g id="Grupo_53443" data-name="Grupo 53443">
                <path id="Trazado_99073" data-name="Trazado 99073" d="M498.251,113.192l8.351-4.5,22.988,15.939-8.351,4.5Z" fill="#dbb31b"/>
              </g>
              <g id="Grupo_53444" data-name="Grupo 53444">
                <path id="Trazado_99074" data-name="Trazado 99074" d="M521.239,129.131l8.351-4.5-17.832,9.661-8.351,4.5Z" fill="#efc299"/>
              </g>
            </g>
          </g>
        </g>
      </g>
      <g id="Grupo_53471" data-name="Grupo 53471">
        <g id="Grupo_53449" data-name="Grupo 53449" opacity="0.1" style="mix-blend-mode: multiply;isolation: isolate">
          <path id="Trazado_99075" data-name="Trazado 99075" d="M402.464,388.486l.238,10.186-2.277,3.334-.238-10.186Z"/>
          <path id="Trazado_99076" data-name="Trazado 99076" d="M400.146,402.89l-.238-10.186a1.515,1.515,0,0,1,.279-.884l.239,10.186A1.512,1.512,0,0,0,400.146,402.89Z"/>
          <path id="Trazado_99077" data-name="Trazado 99077" d="M347.679,397.911l.238,10.187-4.673-2.542-.238-10.187Z"/>
          <path id="Trazado_99078" data-name="Trazado 99078" d="M348.995,399.6l.238,10.186a2.113,2.113,0,0,0-1.316-1.688l-.238-10.187A2.119,2.119,0,0,1,348.995,399.6Z"/>
          <path id="Trazado_99079" data-name="Trazado 99079" d="M397.377,405.6l.239,10.186c-.055-2.334-1.9-4.534-5.1-6.163a25.537,25.537,0,0,0-7.742-2.319c-9.883-1.473-20.608,1.319-23.953,6.247a5.286,5.286,0,0,0-1.007,3.121l-.239-10.187a5.3,5.3,0,0,1,1.007-3.121c3.345-4.927,14.071-7.719,23.953-6.247a25.489,25.489,0,0,1,7.742,2.32C395.473,401.065,397.323,403.266,397.377,405.6Z"/>
          <path id="Trazado_99080" data-name="Trazado 99080" d="M420.583,406.962l.238,10.187-6.978.805-.238-10.187Z"/>
          <path id="Trazado_99081" data-name="Trazado 99081" d="M413.6,407.768l.239,10.186c-2.027.241-3.6,1.027-4.159,2.015a8.463,8.463,0,0,1-.5.808l-.238-10.187a8.421,8.421,0,0,0,.5-.808C410.007,408.8,411.578,408.008,413.6,407.768Z"/>
          <path id="Trazado_99082" data-name="Trazado 99082" d="M408.185,422.668l-.238-10.187a1.7,1.7,0,0,1,.412-1.1c.2-.257.408-.524.585-.8l.238,10.187c-.177.271-.381.537-.585.794A1.711,1.711,0,0,0,408.185,422.668Z"/>
          <path id="Trazado_99083" data-name="Trazado 99083" d="M340.865,416.188l.238,10.187-4.495-11.07-.238-10.186Z"/>
          <path id="Trazado_99084" data-name="Trazado 99084" d="M347.8,415.387l.238,10.187-6.931.8-.238-10.187Z"/>
          <path id="Trazado_99085" data-name="Trazado 99085" d="M355.555,417.582l.239,10.186c-.262-.128-.422-.208-.58-.288q-.945-.482-1.789-1c-.1-.06-.2-.117-.308-.171a9.374,9.374,0,0,0-5.082-.732l-.239-10.187a9.378,9.378,0,0,1,5.083.732c.107.055.209.112.308.171q.846.523,1.789,1C355.134,417.374,355.293,417.453,355.555,417.582Z"/>
          <path id="Trazado_99086" data-name="Trazado 99086" d="M357.049,419.374l.239,10.186c-.016-.666-.541-1.306-1.494-1.792l-.239-10.186C356.509,418.067,357.034,418.707,357.049,419.374Z"/>
          <path id="Trazado_99087" data-name="Trazado 99087" d="M391.95,421.979l.238,10.187a9.547,9.547,0,0,0-5.5-.715c-1.109.157-2.244.291-3.377.389-2.06.185-3.783.894-4.456,1.872l-.238-10.187c.672-.978,2.4-1.686,4.456-1.872,1.132-.1,2.267-.232,3.376-.389A9.567,9.567,0,0,1,391.95,421.979Z"/>
          <path id="Trazado_99088" data-name="Trazado 99088" d="M396.614,424.517l.238,10.187-4.664-2.538-.238-10.187Z"/>
          <path id="Trazado_99089" data-name="Trazado 99089" d="M413.947,416.712l.239,10.187L396.852,434.7l-.238-10.187Z"/>
          <path id="Trazado_99090" data-name="Trazado 99090" d="M378.612,423.525l.238,10.187-2.258,3.334-.238-10.186Z"/>
          <path id="Trazado_99091" data-name="Trazado 99091" d="M376.354,426.859l.238,10.186-21.865-3.264-.238-10.187Z"/>
          <path id="Trazado_99092" data-name="Trazado 99092" d="M409.264,414.174l4.683,2.538-17.333,7.8-4.664-2.538a9.567,9.567,0,0,0-5.506-.715c-1.109.157-2.244.292-3.376.389-2.06.186-3.784.894-4.456,1.872l-2.258,3.335L354.489,423.6l2.277-3.334c.647-.96.163-1.98-1.211-2.679-.262-.129-.421-.208-.579-.289q-.945-.482-1.789-1c-.1-.059-.2-.116-.308-.171a9.378,9.378,0,0,0-5.083-.732l-6.931.8-4.495-11.069,6.932-.8c2.044-.232,3.615-1.027,4.187-2.028a9.279,9.279,0,0,1,.511-.8,9.38,9.38,0,0,1,.586-.8c.764-.96.456-2.029-.907-2.771l-4.673-2.542,17.333-7.8,4.682,2.537a9.589,9.589,0,0,0,5.515.72c1.1-.162,2.225-.291,3.368-.393,2.05-.181,3.765-.894,4.437-1.873l2.267-3.338,21.856,3.269-2.277,3.334c-.638.955-.163,1.98,1.211,2.68.26.127.418.206.574.285q.939.479,1.785,1c.1.064.213.124.327.183a9.323,9.323,0,0,0,5.054.725l6.95-.8,4.495,11.069-6.979.806c-2.026.24-3.6,1.027-4.158,2.014a8.421,8.421,0,0,1-.5.808c-.177.271-.382.538-.585.8C407.594,412.354,407.892,413.427,409.264,414.174Zm-36.874.794c9.892,1.477,20.637-1.324,23.981-6.251,2.317-3.407.507-6.936-4.1-9.28a25.489,25.489,0,0,0-7.742-2.32c-9.882-1.472-20.608,1.32-23.953,6.247-2.319,3.411-.506,6.946,4.1,9.292a25.439,25.439,0,0,0,7.711,2.312"/>
        </g>
        <g id="Grupo_53470" data-name="Grupo 53470">
          <g id="Grupo_53469" data-name="Grupo 53469">
            <g id="Grupo_53468" data-name="Grupo 53468" style="isolation: isolate">
              <g id="Grupo_53450" data-name="Grupo 53450">
                <path id="Trazado_99093" data-name="Trazado 99093" d="M402.464,385.486l.238,10.186-2.277,3.334-.238-10.186Z" fill="#071426"/>
              </g>
              <g id="Grupo_53451" data-name="Grupo 53451">
                <path id="Trazado_99094" data-name="Trazado 99094" d="M400.146,399.89l-.238-10.186a1.515,1.515,0,0,1,.279-.884l.239,10.186A1.512,1.512,0,0,0,400.146,399.89Z" fill="#5880b2"/>
              </g>
              <g id="Grupo_53452" data-name="Grupo 53452">
                <path id="Trazado_99095" data-name="Trazado 99095" d="M347.679,394.911l.238,10.187-4.673-2.542-.238-10.187Z" fill="#071426"/>
              </g>
              <g id="Grupo_53453" data-name="Grupo 53453">
                <path id="Trazado_99096" data-name="Trazado 99096" d="M348.995,396.6l.238,10.186a2.113,2.113,0,0,0-1.316-1.688l-.238-10.187A2.119,2.119,0,0,1,348.995,396.6Z" fill="#071426"/>
              </g>
              <g id="Grupo_53454" data-name="Grupo 53454">
                <path id="Trazado_99097" data-name="Trazado 99097" d="M397.377,402.6l.239,10.186c-.055-2.334-1.9-4.534-5.1-6.163a25.537,25.537,0,0,0-7.742-2.319c-9.883-1.473-20.608,1.319-23.953,6.247a5.286,5.286,0,0,0-1.007,3.121l-.239-10.187a5.3,5.3,0,0,1,1.007-3.121c3.345-4.927,14.071-7.719,23.953-6.247a25.489,25.489,0,0,1,7.742,2.32C395.473,398.065,397.323,400.266,397.377,402.6Z" fill="#071426"/>
              </g>
              <g id="Grupo_53455" data-name="Grupo 53455">
                <path id="Trazado_99098" data-name="Trazado 99098" d="M420.583,403.962l.238,10.187-6.978.805-.238-10.187Z" fill="#071426"/>
              </g>
              <g id="Grupo_53456" data-name="Grupo 53456">
                <path id="Trazado_99099" data-name="Trazado 99099" d="M413.6,404.768l.239,10.186c-2.027.241-3.6,1.027-4.159,2.015a8.463,8.463,0,0,1-.5.808l-.238-10.187a8.421,8.421,0,0,0,.5-.808C410.007,405.8,411.578,405.008,413.6,404.768Z" fill="#071426"/>
              </g>
              <g id="Grupo_53457" data-name="Grupo 53457">
                <path id="Trazado_99100" data-name="Trazado 99100" d="M408.185,419.668l-.238-10.187a1.7,1.7,0,0,1,.412-1.1c.2-.257.408-.524.585-.8l.238,10.187c-.177.271-.381.537-.585.794A1.711,1.711,0,0,0,408.185,419.668Z" fill="#071426"/>
              </g>
              <g id="Grupo_53458" data-name="Grupo 53458">
                <path id="Trazado_99101" data-name="Trazado 99101" d="M340.865,413.188l.238,10.187-4.495-11.07-.238-10.186Z" fill="#0a1b30"/>
              </g>
              <g id="Grupo_53459" data-name="Grupo 53459">
                <path id="Trazado_99102" data-name="Trazado 99102" d="M347.8,412.387l.238,10.187-6.931.8-.238-10.187Z" fill="#071426"/>
              </g>
              <g id="Grupo_53460" data-name="Grupo 53460">
                <path id="Trazado_99103" data-name="Trazado 99103" d="M355.555,414.582l.239,10.186c-.262-.128-.422-.208-.58-.288q-.945-.482-1.789-1c-.1-.06-.2-.117-.308-.171a9.374,9.374,0,0,0-5.082-.732l-.239-10.187a9.378,9.378,0,0,1,5.083.732c.107.055.209.112.308.171q.846.523,1.789,1C355.134,414.374,355.293,414.453,355.555,414.582Z" fill="#071426"/>
              </g>
              <g id="Grupo_53461" data-name="Grupo 53461">
                <path id="Trazado_99104" data-name="Trazado 99104" d="M357.049,416.374l.239,10.186c-.016-.666-.541-1.306-1.494-1.792l-.239-10.186C356.509,415.067,357.034,415.707,357.049,416.374Z" fill="#071426"/>
              </g>
              <g id="Grupo_53462" data-name="Grupo 53462">
                <path id="Trazado_99105" data-name="Trazado 99105" d="M391.95,418.979l.238,10.187a9.547,9.547,0,0,0-5.5-.715c-1.109.157-2.244.291-3.377.389-2.06.185-3.783.894-4.456,1.872l-.238-10.187c.672-.978,2.4-1.686,4.456-1.872,1.132-.1,2.267-.232,3.376-.389A9.567,9.567,0,0,1,391.95,418.979Z" fill="#071426"/>
              </g>
              <g id="Grupo_53463" data-name="Grupo 53463">
                <path id="Trazado_99106" data-name="Trazado 99106" d="M396.614,421.517l.238,10.187-4.664-2.538-.238-10.187Z" fill="#071426"/>
              </g>
              <g id="Grupo_53464" data-name="Grupo 53464">
                <path id="Trazado_99107" data-name="Trazado 99107" d="M413.947,413.712l.239,10.187L396.852,431.7l-.238-10.187Z" fill="#0a1b30"/>
              </g>
              <g id="Grupo_53465" data-name="Grupo 53465">
                <path id="Trazado_99108" data-name="Trazado 99108" d="M378.612,420.525l.238,10.187-2.258,3.334-.238-10.186Z" fill="#071426"/>
              </g>
              <g id="Grupo_53466" data-name="Grupo 53466">
                <path id="Trazado_99109" data-name="Trazado 99109" d="M376.354,423.859l.238,10.186-21.865-3.264-.238-10.187Z" fill="#0a1b30"/>
              </g>
              <g id="Grupo_53467" data-name="Grupo 53467">
                <path id="Trazado_99110" data-name="Trazado 99110" d="M409.264,411.174l4.683,2.538-17.333,7.8-4.664-2.538a9.567,9.567,0,0,0-5.506-.715c-1.109.157-2.244.292-3.376.389-2.06.186-3.784.894-4.456,1.872l-2.258,3.335L354.489,420.6l2.277-3.334c.647-.96.163-1.98-1.211-2.679-.262-.129-.421-.208-.579-.289q-.945-.482-1.789-1c-.1-.059-.2-.116-.308-.171a9.378,9.378,0,0,0-5.083-.732l-6.931.8-4.495-11.069,6.932-.8c2.044-.232,3.615-1.027,4.187-2.028a9.279,9.279,0,0,1,.511-.8,9.38,9.38,0,0,1,.586-.8c.764-.96.456-2.029-.907-2.771l-4.673-2.542,17.333-7.8,4.682,2.537a9.589,9.589,0,0,0,5.515.72c1.1-.162,2.225-.291,3.368-.393,2.05-.181,3.765-.894,4.437-1.873l2.267-3.338,21.856,3.269-2.277,3.334c-.638.955-.163,1.98,1.211,2.68.26.127.418.206.574.285q.939.479,1.785,1c.1.064.213.124.327.183a9.323,9.323,0,0,0,5.054.725l6.95-.8,4.495,11.069-6.979.806c-2.026.24-3.6,1.027-4.158,2.014a8.421,8.421,0,0,1-.5.808c-.177.271-.382.538-.585.8C407.594,409.354,407.892,410.427,409.264,411.174Zm-36.874.794c9.892,1.477,20.637-1.324,23.981-6.251,2.317-3.407.507-6.936-4.1-9.28a25.489,25.489,0,0,0-7.742-2.32c-9.882-1.472-20.608,1.32-23.953,6.247-2.319,3.411-.506,6.946,4.1,9.292a25.439,25.439,0,0,0,7.711,2.312" fill="#12263f"/>
              </g>
            </g>
          </g>
        </g>
      </g>
      <g id="Grupo_53494" data-name="Grupo 53494">
        <g id="Grupo_53472" data-name="Grupo 53472" opacity="0.1" style="mix-blend-mode: multiply;isolation: isolate">
          <path id="Trazado_99111" data-name="Trazado 99111" d="M380.7,337.13l.238,10.187-1.131-2.362-.238-10.187Z"/>
          <path id="Trazado_99112" data-name="Trazado 99112" d="M380.8,337.515l.238,10.186a.931.931,0,0,0-.094-.384L380.7,337.13A.955.955,0,0,1,380.8,337.515Z"/>
          <path id="Trazado_99113" data-name="Trazado 99113" d="M420.2,340.143l.238,10.186-3.618,1.729-.239-10.186Z"/>
          <path id="Trazado_99114" data-name="Trazado 99114" d="M415.621,353.474l-.238-10.187c-.012-.52.4-1.035,1.2-1.415l.238,10.186C416.025,352.439,415.609,352.953,415.621,353.474Z"/>
          <path id="Trazado_99115" data-name="Trazado 99115" d="M407.115,346.968l.238,10.187c-.037-1.571-1.219-3.121-3.567-4.317-4.989-2.542-13.364-2.534-18.7.018-2.832,1.354-4.244,3.152-4.2,4.923l-.238-10.187c-.042-1.77,1.371-3.569,4.2-4.922,5.34-2.552,13.715-2.561,18.7-.019C405.9,343.848,407.078,345.4,407.115,346.968Z"/>
          <path id="Trazado_99116" data-name="Trazado 99116" d="M369.02,348.147l.239,10.187-4.73-.624-.238-10.186Z"/>
          <path id="Trazado_99117" data-name="Trazado 99117" d="M372.373,351.259l.239,10.187a1.052,1.052,0,0,0-.155-.514,6.931,6.931,0,0,1-.544-1.151,1.928,1.928,0,0,0-.995-.97,5.142,5.142,0,0,0-1.659-.477l-.239-10.187a5.148,5.148,0,0,1,1.66.478,1.931,1.931,0,0,1,.995.969,6.941,6.941,0,0,0,.544,1.152A1.057,1.057,0,0,1,372.373,351.259Z"/>
          <path id="Trazado_99118" data-name="Trazado 99118" d="M413.99,354.1l.239,10.187a6.832,6.832,0,0,0-3.875.591l-.238-10.186A6.818,6.818,0,0,1,413.99,354.1Z"/>
          <path id="Trazado_99119" data-name="Trazado 99119" d="M418.757,354.734,419,364.92l-4.767-.633L413.99,354.1Z"/>
          <path id="Trazado_99120" data-name="Trazado 99120" d="M423.466,347.033l.238,10.186L419,364.92l-.238-10.187Z"/>
          <path id="Trazado_99121" data-name="Trazado 99121" d="M410.116,354.692l.238,10.186c-.279.143-.559.285-.848.423s-.6.276-.893.41l-.239-10.187c.3-.133.605-.271.894-.409S409.836,354.834,410.116,354.692Z"/>
          <path id="Trazado_99122" data-name="Trazado 99122" d="M407.2,367.213l-.238-10.186c-.013-.564.508-1.115,1.41-1.5l.239,10.187C407.711,366.1,407.189,366.649,407.2,367.213Z"/>
          <path id="Trazado_99123" data-name="Trazado 99123" d="M391.323,359.511l.238,10.186a1.934,1.934,0,0,0-.918-.835,5.592,5.592,0,0,0-1.928-.52c-.776-.082-1.56-.187-2.315-.305a7.049,7.049,0,0,0-3.948.449l-.239-10.187a7.062,7.062,0,0,1,3.949-.449c.755.119,1.538.223,2.314.3a5.62,5.62,0,0,1,1.929.52A1.941,1.941,0,0,1,391.323,359.511Z"/>
          <path id="Trazado_99124" data-name="Trazado 99124" d="M378.6,360.028l.238,10.187L367.8,364.59l-.239-10.186Z"/>
          <path id="Trazado_99125" data-name="Trazado 99125" d="M382.213,358.3l.238,10.186-3.618,1.729-.238-10.187Z"/>
          <path id="Trazado_99126" data-name="Trazado 99126" d="M408.374,355.524c-1.112.478-1.646,1.2-1.312,1.9l1.131,2.362-15.757,2.081-1.113-2.353a1.941,1.941,0,0,0-.918-.836,5.62,5.62,0,0,0-1.929-.52c-.776-.082-1.559-.186-2.314-.3a7.062,7.062,0,0,0-3.949.449l-3.617,1.729-11.04-5.624,3.618-1.73c1.059-.506,1.445-1.249,1.045-1.928a6.941,6.941,0,0,1-.544-1.152,1.931,1.931,0,0,0-.995-.969,5.148,5.148,0,0,0-1.66-.478l-4.73-.624,4.718-7.706,4.739.629a6.8,6.8,0,0,0,3.884-.587c.27-.147.568-.289.857-.427s.587-.281.894-.41c1.112-.478,1.646-1.2,1.321-1.892l-1.131-2.362,15.748-2.076,1.121,2.357a1.97,1.97,0,0,0,.916.827,5.668,5.668,0,0,0,1.941.524c.776.082,1.551.183,2.306.3a7.072,7.072,0,0,0,3.939-.454l3.618-1.729,11.039,5.625-3.618,1.729c-1.058.506-1.445,1.25-1.045,1.929a6.93,6.93,0,0,1,.544,1.151,1.921,1.921,0,0,0,1,.972,5.2,5.2,0,0,0,1.648.48l4.74.629-4.709,7.7-4.767-.634a6.818,6.818,0,0,0-3.874.592c-.28.142-.559.285-.848.423S408.672,355.391,408.374,355.524ZM384.2,351.9c4.989,2.542,13.382,2.533,18.723-.019s5.615-6.687.626-9.23-13.364-2.533-18.7.019-5.634,6.688-.645,9.23"/>
          <path id="Trazado_99127" data-name="Trazado 99127" d="M392.436,361.864l.238,10.186-1.113-2.353-.238-10.186Z"/>
          <path id="Trazado_99128" data-name="Trazado 99128" d="M408.193,359.783l.239,10.187-15.757,2.081-.238-10.186Z"/>
        </g>
        <g id="Grupo_53493" data-name="Grupo 53493">
          <g id="Grupo_53492" data-name="Grupo 53492">
            <g id="Grupo_53491" data-name="Grupo 53491" style="isolation: isolate">
              <g id="Grupo_53473" data-name="Grupo 53473">
                <path id="Trazado_99129" data-name="Trazado 99129" d="M380.7,334.13l.238,10.187-1.131-2.362-.238-10.187Z" fill="#071426"/>
              </g>
              <g id="Grupo_53474" data-name="Grupo 53474">
                <path id="Trazado_99130" data-name="Trazado 99130" d="M380.8,334.515l.238,10.186a.931.931,0,0,0-.094-.384L380.7,334.13A.955.955,0,0,1,380.8,334.515Z" fill="#233e71"/>
              </g>
              <g id="Grupo_53475" data-name="Grupo 53475">
                <path id="Trazado_99131" data-name="Trazado 99131" d="M420.2,337.143l.238,10.186-3.618,1.729-.239-10.186Z" fill="#071426"/>
              </g>
              <g id="Grupo_53476" data-name="Grupo 53476">
                <path id="Trazado_99132" data-name="Trazado 99132" d="M415.621,350.474l-.238-10.187c-.012-.52.4-1.035,1.2-1.415l.238,10.186C416.025,349.439,415.609,349.953,415.621,350.474Z" fill="#071426"/>
              </g>
              <g id="Grupo_53477" data-name="Grupo 53477">
                <path id="Trazado_99133" data-name="Trazado 99133" d="M407.115,343.968l.238,10.187c-.037-1.571-1.219-3.121-3.567-4.317-4.989-2.542-13.364-2.534-18.7.018-2.832,1.354-4.244,3.152-4.2,4.923l-.238-10.187c-.042-1.77,1.371-3.569,4.2-4.922,5.34-2.552,13.715-2.561,18.7-.019C405.9,340.848,407.078,342.4,407.115,343.968Z" fill="#071426"/>
              </g>
              <g id="Grupo_53478" data-name="Grupo 53478">
                <path id="Trazado_99134" data-name="Trazado 99134" d="M369.02,345.147l.239,10.187-4.73-.624-.238-10.186Z" fill="#071426"/>
              </g>
              <g id="Grupo_53479" data-name="Grupo 53479">
                <path id="Trazado_99135" data-name="Trazado 99135" d="M372.373,348.259l.239,10.187a1.052,1.052,0,0,0-.155-.514,6.931,6.931,0,0,1-.544-1.151,1.928,1.928,0,0,0-.995-.97,5.142,5.142,0,0,0-1.659-.477l-.239-10.187a5.148,5.148,0,0,1,1.66.478,1.931,1.931,0,0,1,.995.969,6.941,6.941,0,0,0,.544,1.152A1.057,1.057,0,0,1,372.373,348.259Z" fill="#071426"/>
              </g>
              <g id="Grupo_53480" data-name="Grupo 53480">
                <path id="Trazado_99136" data-name="Trazado 99136" d="M413.99,351.1l.239,10.187a6.832,6.832,0,0,0-3.875.591l-.238-10.186A6.818,6.818,0,0,1,413.99,351.1Z" fill="#071426"/>
              </g>
              <g id="Grupo_53481" data-name="Grupo 53481">
                <path id="Trazado_99137" data-name="Trazado 99137" d="M418.757,351.734,419,361.92l-4.767-.633L413.99,351.1Z" fill="#071426"/>
              </g>
              <g id="Grupo_53482" data-name="Grupo 53482">
                <path id="Trazado_99138" data-name="Trazado 99138" d="M423.466,344.033l.238,10.186L419,361.92l-.238-10.187Z" fill="#0a1b30"/>
              </g>
              <g id="Grupo_53483" data-name="Grupo 53483">
                <path id="Trazado_99139" data-name="Trazado 99139" d="M410.116,351.692l.238,10.186c-.279.143-.559.285-.848.423s-.6.276-.893.41l-.239-10.187c.3-.133.605-.271.894-.409S409.836,351.834,410.116,351.692Z" fill="#071426"/>
              </g>
              <g id="Grupo_53484" data-name="Grupo 53484">
                <path id="Trazado_99140" data-name="Trazado 99140" d="M407.2,364.213l-.238-10.186c-.013-.564.508-1.115,1.41-1.5l.239,10.187C407.711,363.1,407.189,363.649,407.2,364.213Z" fill="#071426"/>
              </g>
              <g id="Grupo_53485" data-name="Grupo 53485">
                <path id="Trazado_99141" data-name="Trazado 99141" d="M391.323,356.511l.238,10.186a1.934,1.934,0,0,0-.918-.835,5.592,5.592,0,0,0-1.928-.52c-.776-.082-1.56-.187-2.315-.305a7.049,7.049,0,0,0-3.948.449l-.239-10.187a7.062,7.062,0,0,1,3.949-.449c.755.119,1.538.223,2.314.3a5.62,5.62,0,0,1,1.929.52A1.941,1.941,0,0,1,391.323,356.511Z" fill="#071426"/>
              </g>
              <g id="Grupo_53486" data-name="Grupo 53486">
                <path id="Trazado_99142" data-name="Trazado 99142" d="M378.6,357.028l.238,10.187L367.8,361.59l-.239-10.186Z" fill="#0a1b30"/>
              </g>
              <g id="Grupo_53487" data-name="Grupo 53487">
                <path id="Trazado_99143" data-name="Trazado 99143" d="M382.213,355.3l.238,10.186-3.618,1.729-.238-10.187Z" fill="#071426"/>
              </g>
              <g id="Grupo_53488" data-name="Grupo 53488">
                <path id="Trazado_99144" data-name="Trazado 99144" d="M408.374,352.524c-1.112.478-1.646,1.2-1.312,1.9l1.131,2.362-15.757,2.081-1.113-2.353a1.941,1.941,0,0,0-.918-.836,5.62,5.62,0,0,0-1.929-.52c-.776-.082-1.559-.186-2.314-.3a7.062,7.062,0,0,0-3.949.449l-3.617,1.729-11.04-5.624,3.618-1.73c1.059-.506,1.445-1.249,1.045-1.928a6.941,6.941,0,0,1-.544-1.152,1.931,1.931,0,0,0-.995-.969,5.148,5.148,0,0,0-1.66-.478l-4.73-.624,4.718-7.706,4.739.629a6.8,6.8,0,0,0,3.884-.587c.27-.147.568-.289.857-.427s.587-.281.894-.41c1.112-.478,1.646-1.2,1.321-1.892l-1.131-2.362,15.748-2.076,1.121,2.357a1.97,1.97,0,0,0,.916.827,5.668,5.668,0,0,0,1.941.524c.776.082,1.551.183,2.306.3a7.072,7.072,0,0,0,3.939-.454l3.618-1.729,11.039,5.625-3.618,1.729c-1.058.506-1.445,1.25-1.045,1.929a6.93,6.93,0,0,1,.544,1.151,1.921,1.921,0,0,0,1,.972,5.2,5.2,0,0,0,1.648.48l4.74.629-4.709,7.7-4.767-.634a6.818,6.818,0,0,0-3.874.592c-.28.142-.559.285-.848.423S408.672,352.391,408.374,352.524ZM384.2,348.9c4.989,2.542,13.382,2.533,18.723-.019s5.615-6.687.626-9.23-13.364-2.533-18.7.019-5.634,6.688-.645,9.23" fill="#12263f"/>
              </g>
              <g id="Grupo_53489" data-name="Grupo 53489">
                <path id="Trazado_99145" data-name="Trazado 99145" d="M392.436,358.864l.238,10.186-1.113-2.353-.238-10.186Z" fill="#071426"/>
              </g>
              <g id="Grupo_53490" data-name="Grupo 53490">
                <path id="Trazado_99146" data-name="Trazado 99146" d="M408.193,356.783l.239,10.187-15.757,2.081-.238-10.186Z" fill="#0a1b30"/>
              </g>
            </g>
          </g>
        </g>
      </g>
      <g id="Grupo_53499" data-name="Grupo 53499">
        <g id="Grupo_53495" data-name="Grupo 53495" opacity="0.1" style="mix-blend-mode: multiply;isolation: isolate">
          <path id="Trazado_99147" data-name="Trazado 99147" d="M131.648,310a7.112,7.112,0,0,1,4.754-8.829l105.49,60.91s-5.347,2.632-5.344,8.526Z"/>
          <path id="Trazado_99148" data-name="Trazado 99148" d="M236.548,370.61l16.586,3.366-11.242-11.892S236.3,365,236.548,370.61Z"/>
          <path id="Trazado_99149" data-name="Trazado 99149" d="M253.135,373.971l-4.639-.936A6.667,6.667,0,0,1,250,370.664Z"/>
          <path id="Trazado_99150" data-name="Trazado 99150" d="M141.919,309.631l12.032,6.741,11.993,6.808L189.87,336.9l23.839,13.873,11.889,6.99,11.849,7.058-12.033-6.74-11.993-6.808L189.5,337.551l-23.838-13.874-11.888-6.99Z"/>
          <path id="Trazado_99151" data-name="Trazado 99151" d="M136.715,312.936l-5.064-2.927a7.117,7.117,0,0,1,4.756-8.839l5.327,3.088A8.121,8.121,0,0,0,136.715,312.936Z"/>
        </g>
        <g id="Grupo_53498" data-name="Grupo 53498">
          <g id="Grupo_53497" data-name="Grupo 53497">
            <path id="Trazado_99152" data-name="Trazado 99152" d="M131.648,307a7.112,7.112,0,0,1,4.754-8.829l105.49,60.91s-5.347,2.632-5.344,8.526Z" fill="#efc299"/>
            <path id="Trazado_99153" data-name="Trazado 99153" d="M236.548,367.61l16.586,3.366-11.242-11.892S236.3,362,236.548,367.61Z" fill="#fff"/>
            <path id="Trazado_99154" data-name="Trazado 99154" d="M253.135,370.971l-4.639-.936A6.667,6.667,0,0,1,250,367.664Z" fill="#233e71"/>
            <g id="Grupo_53496" data-name="Grupo 53496">
              <path id="Trazado_99155" data-name="Trazado 99155" d="M141.919,306.631l12.032,6.741,11.993,6.808L189.87,333.9l23.839,13.873,11.889,6.99,11.849,7.058-12.033-6.74-11.993-6.808L189.5,334.551l-23.838-13.874-11.888-6.99Z" fill="#fadfc8"/>
            </g>
            <path id="Trazado_99156" data-name="Trazado 99156" d="M136.715,309.936l-5.064-2.927a7.117,7.117,0,0,1,4.756-8.839l5.327,3.088A8.121,8.121,0,0,0,136.715,309.936Z" fill="#f4a093"/>
          </g>
        </g>
      </g>
      <g id="Grupo_53503" data-name="Grupo 53503">
        <g id="Grupo_53500" data-name="Grupo 53500" opacity="0.1" style="mix-blend-mode: multiply;isolation: isolate">
          <path id="Trazado_99157" data-name="Trazado 99157" d="M111.583,321.762a7.112,7.112,0,0,1,4.754-8.829l105.49,60.91s-5.347,2.632-5.344,8.526Z"/>
          <path id="Trazado_99158" data-name="Trazado 99158" d="M216.483,382.369l16.586,3.366-11.242-11.892S216.237,376.759,216.483,382.369Z"/>
          <path id="Trazado_99159" data-name="Trazado 99159" d="M233.07,385.73l-4.638-.936a6.652,6.652,0,0,1,1.507-2.371Z"/>
        </g>
        <g id="Grupo_53502" data-name="Grupo 53502">
          <g id="Grupo_53501" data-name="Grupo 53501">
            <path id="Trazado_99160" data-name="Trazado 99160" d="M111.583,318.762a7.112,7.112,0,0,1,4.754-8.829l105.49,60.91s-5.347,2.632-5.344,8.526Z" fill="#e27d5e"/>
            <path id="Trazado_99161" data-name="Trazado 99161" d="M216.483,379.369l16.586,3.366-11.242-11.892S216.237,373.759,216.483,379.369Z" fill="#fff"/>
            <path id="Trazado_99162" data-name="Trazado 99162" d="M233.07,382.73l-4.638-.936a6.652,6.652,0,0,1,1.507-2.371Z" fill="#233e71"/>
          </g>
        </g>
      </g>
      <g id="Grupo_53511" data-name="Grupo 53511">
        <g id="Grupo_53504" data-name="Grupo 53504" opacity="0.1" style="mix-blend-mode: multiply;isolation: isolate">
          <path id="Trazado_99163" data-name="Trazado 99163" d="M111.745,264.78l-10.022-5.787V224.272l10.022,5.787Z"/>
          <path id="Trazado_99164" data-name="Trazado 99164" d="M111.745,264.78V230.059l10.022-5.787v34.721Z"/>
          <path id="Trazado_99165" data-name="Trazado 99165" d="M101.723,224.272l10.022-5.787,10.022,5.787-10.022,5.787Z"/>
          <path id="Trazado_99166" data-name="Trazado 99166" d="M131.79,253.206l-10.022-5.787V195.4l10.022,5.787Z"/>
          <path id="Trazado_99167" data-name="Trazado 99167" d="M131.79,253.206V201.192l10.022-5.787v52.014Z"/>
          <path id="Trazado_99168" data-name="Trazado 99168" d="M121.768,195.4l10.022-5.787,10.022,5.787-10.022,5.787Z"/>
          <path id="Trazado_99169" data-name="Trazado 99169" d="M151.834,241.633l-10.022-5.787V173.588l10.022,5.787Z"/>
          <path id="Trazado_99170" data-name="Trazado 99170" d="M151.834,241.633V179.374l10.022-5.787v62.258Z"/>
          <path id="Trazado_99171" data-name="Trazado 99171" d="M141.812,173.588l10.022-5.787,10.022,5.787-10.022,5.787Z"/>
          <path id="Trazado_99172" data-name="Trazado 99172" d="M171.878,230.059l-10.022-5.787V154.7l10.022,5.787Z"/>
          <path id="Trazado_99173" data-name="Trazado 99173" d="M171.878,230.059V160.484L181.9,154.7v69.575Z"/>
          <path id="Trazado_99174" data-name="Trazado 99174" d="M161.856,154.7l10.022-5.787L181.9,154.7l-10.022,5.787Z"/>
        </g>
        <g id="Grupo_53510" data-name="Grupo 53510">
          <g id="Grupo_53509" data-name="Grupo 53509">
            <g id="Grupo_53505" data-name="Grupo 53505">
              <path id="Trazado_99175" data-name="Trazado 99175" d="M111.745,261.78l-10.022-5.787V221.272l10.022,5.787Z" fill="#efc299"/>
              <path id="Trazado_99176" data-name="Trazado 99176" d="M111.745,261.78V227.059l10.022-5.787v34.721Z" fill="#fadfc8"/>
              <path id="Trazado_99177" data-name="Trazado 99177" d="M101.723,221.272l10.022-5.787,10.022,5.787-10.022,5.787Z" fill="#fbe9db"/>
            </g>
            <g id="Grupo_53506" data-name="Grupo 53506">
              <path id="Trazado_99178" data-name="Trazado 99178" d="M131.79,250.206l-10.022-5.787V192.4l10.022,5.787Z" fill="#efc299"/>
              <path id="Trazado_99179" data-name="Trazado 99179" d="M131.79,250.206V198.192l10.022-5.787v52.014Z" fill="#fadfc8"/>
              <path id="Trazado_99180" data-name="Trazado 99180" d="M121.768,192.4l10.022-5.787,10.022,5.787-10.022,5.787Z" fill="#fbe9db"/>
            </g>
            <g id="Grupo_53507" data-name="Grupo 53507">
              <path id="Trazado_99181" data-name="Trazado 99181" d="M151.834,238.633l-10.022-5.787V170.588l10.022,5.787Z" fill="#efc299"/>
              <path id="Trazado_99182" data-name="Trazado 99182" d="M151.834,238.633V176.374l10.022-5.787v62.258Z" fill="#fadfc8"/>
              <path id="Trazado_99183" data-name="Trazado 99183" d="M141.812,170.588l10.022-5.787,10.022,5.787-10.022,5.787Z" fill="#fbe9db"/>
            </g>
            <g id="Grupo_53508" data-name="Grupo 53508">
              <path id="Trazado_99184" data-name="Trazado 99184" d="M171.878,227.059l-10.022-5.787V151.7l10.022,5.787Z" fill="#efc299"/>
              <path id="Trazado_99185" data-name="Trazado 99185" d="M171.878,227.059V157.484L181.9,151.7v69.575Z" fill="#fadfc8"/>
              <path id="Trazado_99186" data-name="Trazado 99186" d="M161.856,151.7l10.022-5.787L181.9,151.7l-10.022,5.787Z" fill="#fbe9db"/>
            </g>
          </g>
        </g>
      </g>
      <g id="Grupo_53529" data-name="Grupo 53529" transform="translate(-73.902 56)">
        <ellipse id="Elipse_1219" data-name="Elipse 1219" cx="31.579" cy="11.661" rx="31.579" ry="11.661" transform="translate(585.118 261.169)" fill="#272726" opacity="0.1"/>
        <g id="Grupo_53528" data-name="Grupo 53528">
          <g id="Grupo_53527" data-name="Grupo 53527">
            <g id="Grupo_53516" data-name="Grupo 53516">
              <g id="Grupo_53515" data-name="Grupo 53515">
                <g id="Grupo_53512" data-name="Grupo 53512">
                  <path id="Trazado_99187" data-name="Trazado 99187" d="M577.819,158.258c-.577-.891-2.879-4.043-2.952-4.284A6.636,6.636,0,0,1,578.4,151.5c.481-.041,3.194,4.258,3.194,4.258Z" fill="#fadfc8"/>
                </g>
                <g id="Grupo_53514" data-name="Grupo 53514">
                  <g id="Grupo_53513" data-name="Grupo 53513">
                    <path id="Trazado_99188" data-name="Trazado 99188" d="M579.335,135.327c-1-1.013-8.059.279-8.38.8-.5.808,3.858,13.926,4.623,14.3s7.343.144,7.646-.378C583.625,149.35,580.127,136.133,579.335,135.327Z" fill="#1b3258"/>
                    <path id="Trazado_99189" data-name="Trazado 99189" d="M571.864,136.876a.546.546,0,1,0,.661-.4A.545.545,0,0,0,571.864,136.876Z" fill="#466799"/>
                  </g>
                  <path id="Trazado_99190" data-name="Trazado 99190" d="M572.042,144.794c-.1.816,2.825,9.18,2.825,9.18s2.073,2.653,3.291.776.188-5.581.188-5.581,3.124-2,3.215-2.66c.078-.629-3.813.36-4.107.431.325-.147,4.433-2.007,3.817-2.449s-5.176.886-5.442.964c.242-.126,4.486-2.337,3.81-2.685-.372-.2-2.375.273-4.18.917,1.254-.913,2.409-1.839,2.364-2.186C577.694,140.52,572.137,143.977,572.042,144.794Z" fill="#fadfc8"/>
                </g>
              </g>
              <path id="Trazado_99191" data-name="Trazado 99191" d="M605.272,143.91c-2.252.469-4.468,2.9-5.932,5.446a156.846,156.846,0,0,0-7.962,16.886s-9.6-12.631-10.271-12.477c-2.756.634-5.331,6.088-5.331,6.088.89,3.335,13.262,21.053,16.645,21.265,4.81.3,12.082-22.935,12.83-26.927C606.241,148.907,606.6,143.634,605.272,143.91Z" fill="#1b3258"/>
            </g>
            <g id="Grupo_53517" data-name="Grupo 53517">
              <path id="Trazado_99192" data-name="Trazado 99192" d="M615.078,269.467a33.128,33.128,0,0,0,0,3.938,20.577,20.577,0,0,1,1.491,1.777,54.019,54.019,0,0,0,1.462,5.388c.385.577,3.931,3.021,5.19,2.586s2-3.425,1.952-4.209-3.484-6.239-3.516-6.464-.193-3.016-.193-3.016Z" fill="#233e71"/>
              <path id="Trazado_99193" data-name="Trazado 99193" d="M599.908,259.243s-1.284,2.338-1.457,2.5-7.549,6.712-6.652,7.819,5.4.53,6.806,0,4.416-4.116,4.512-4.188,3.179-1.216,3.179-1.216l.09-4.916Z" fill="#233e71"/>
              <path id="Trazado_99194" data-name="Trazado 99194" d="M598.7,261.036l-2.767-62.787q-.062-1.395,0-2.791l.294-9.773c9.338,6.653,28.063,2.491,28.063,2.491s1.32,12.1.925,16.9l-3.3,66.13s-3.213,2.4-7.375-1.1l-2.7-38.816L609.6,204.165l-1.109-.255L607.488,231.3l-.834,29.764S603.42,263.187,598.7,261.036Z" fill="#466799"/>
            </g>
            <g id="Grupo_53518" data-name="Grupo 53518">
              <path id="Trazado_99195" data-name="Trazado 99195" d="M607.969,142.008a52.944,52.944,0,0,0-5.213,3.281c-.866.818-5.428,13.473-5.524,14.58s-1.3,17.035-1.1,18.142-1.189,16.007-1.189,16.007,7.038,5.579,10.613,5.656l1.141-8.134s1.784,8.643,2.227,8.836a55.025,55.025,0,0,0,10.526-1.7c1.445-.554,5.8-3.959,5.8-3.959s-1.3-17.81-1.3-18.965,2.092-23.311,1.744-25.518-6.991-7.132-8.772-8.014S609.22,141.238,607.969,142.008Z" fill="#233e71"/>
              <path id="Trazado_99196" data-name="Trazado 99196" d="M607.969,142.008s-2.792,7.365-2.792,8.712.96,11.79.96,11.79,6.974-11.3,7.833-12.913c.975-1.833,2.248-7.6,2.248-7.6a10.035,10.035,0,0,0-3.953-.652A9.3,9.3,0,0,0,607.969,142.008Z" fill="#5880b2"/>
              <path id="Trazado_99197" data-name="Trazado 99197" d="M607.969,142.008l-5.07,8.648,3.239,20.249v-19.19Z" fill="#1b3258"/>
              <path id="Trazado_99198" data-name="Trazado 99198" d="M616.218,142l-3.512,8.943L605.69,162.51v3.613L616.7,152.036Z" fill="#1b3258"/>
            </g>
            <g id="Grupo_53523" data-name="Grupo 53523">
              <g id="Grupo_53522" data-name="Grupo 53522">
                <g id="Grupo_53519" data-name="Grupo 53519">
                  <path id="Trazado_99199" data-name="Trazado 99199" d="M606.9,140.373a5.076,5.076,0,0,1,.74,1.888c.043.8-1.239,4.336-.37,4.766s6.123-1.23,7.294-2.52a5.1,5.1,0,0,0,.953-3.9c-.087-.654-.544-5.305-.544-5.305Z" fill="#fadfc8"/>
                  <path id="Trazado_99200" data-name="Trazado 99200" d="M615.237,137.882c-1.759,3.767-5.936,4.495-7.611,4.634a1.156,1.156,0,0,0,.021-.257,5.165,5.165,0,0,0-.744-1.883l8.072-5.084S615.1,136.577,615.237,137.882Z" fill="#efc299"/>
                </g>
                <g id="Grupo_53521" data-name="Grupo 53521">
                  <path id="Trazado_99201" data-name="Trazado 99201" d="M601.2,134.793a2.735,2.735,0,0,0,.156.708,12.47,12.47,0,0,0,1.55,2.609c.891,1.343,1.744,2.612,3.064,2.721,2.1.171,7.233-.8,9.133-4.594s3.049-10.578,1.507-13.334c-2.772-4.964-11.057-4.38-13.307-1.137-1.655,2.383-1.417,6.93-1.452,8.063a12.734,12.734,0,0,1-.23,1.514A15.106,15.106,0,0,0,601.2,134.793Z" fill="#fadfc8"/>
                  <path id="Trazado_99202" data-name="Trazado 99202" d="M615.574,133.179c-1.1-.058-2.948-2.479-3.092-3.393s.1-4.381,0-4.862-1.4-.963-1.9-1.155-3.762,1.107-4.745.987-2.066-1.372-2.547-1.469-1.037,1.142-1.037,1.142a13.449,13.449,0,0,1-1.586-3.139c-.169-.987.7-4.26,1.179-4.6s.746,1.059.746,1.059.515-2.471,1.564-2.624,1.18,1.469,1.18,1.469.467-.943,1.256-.821,1.342,1.518,1.379,1.543a67.288,67.288,0,0,1,6.727,1.059c1.348.457,2.5,3.52,2.5,3.52a24.123,24.123,0,0,1,1.86,2.761c.458.939-2.14,9.919-3.946,11.578Z" fill="#1b3258"/>
                  <g id="Grupo_53520" data-name="Grupo 53520">
                    <path id="Trazado_99203" data-name="Trazado 99203" d="M614.292,132.48s2.476-3.212,3.863-2.642c1.243.511,1.287,2.746.332,4.121a3.831,3.831,0,0,1-4.244,1.274Z" fill="#fadfc8"/>
                    <path id="Trazado_99204" data-name="Trazado 99204" d="M615.8,132.208a3.861,3.861,0,0,1,2.115-1.378c.027-.006.034.03.014.042a9.256,9.256,0,0,0-3.291,3.846c-.025.049-.115.042-.1-.023A5.912,5.912,0,0,1,615.8,132.208Z" fill="#efc299"/>
                  </g>
                </g>
              </g>
              <path id="Trazado_99205" data-name="Trazado 99205" d="M607.592,141.98l-1.757,3.7.694,4.531,1.525-2.636s.948,3.375,1.017,3.329,7.147-6.171,7.147-6.171l-.644-3.676-7.034,5.233Z" fill="#466799"/>
            </g>
            <g id="Grupo_53526" data-name="Grupo 53526">
              <g id="Grupo_53525" data-name="Grupo 53525">
                <g id="Grupo_53524" data-name="Grupo 53524">
                  <path id="Trazado_99206" data-name="Trazado 99206" d="M629.1,213.495c-.168-.219,1.888-2.859,2.093-3.233-.334.413-3.121,3.82-3.626,3.361s2.11-3.5,2.437-3.9c-.324.325-3.069,3.1-3.3,2.084-.233-1.091,3.6-4.071,3.228-5.8-.06-.269-.118-.577-.176-.91a4.723,4.723,0,0,1-.4.59c-1.208,1.513-2.475,1.179-1.645-.088.466-.708,1.747-2.951,1.747-2.951-.152-2.239.06-4.478,1.341-4.525,1.261-.042,2.525,1.565,2.7,3.513a19.232,19.232,0,0,1-.113,4.183c-.094.8-.224,1.563-.352,2.246a10.192,10.192,0,0,1-.84,2.215C631.358,212.289,629.4,213.894,629.1,213.495Z" fill="#fadfc8"/>
                </g>
                <path id="Trazado_99207" data-name="Trazado 99207" d="M633.494,201.63c-.178-.95-.635-4.473-.738-4.678a6.042,6.042,0,0,0-3.882.585c-.344.275.562,4.813.562,4.813Z" fill="#fadfc8"/>
              </g>
              <path id="Trazado_99208" data-name="Trazado 99208" d="M622.724,146.2c1.759,1.182,2.561,1.211,3.717,3.621,1.649,3.438,4.825,19.051,5.453,22.568s3.246,22.107,2.995,24.117-6.525,3.121-7.425,1.613-7.135-39.013-7.541-42.687C619.385,150.565,621.7,145.507,622.724,146.2Z" fill="#1b3258"/>
            </g>
          </g>
        </g>
      </g>
    </g>
  </g>
</svg>
