<svg xmlns="http://www.w3.org/2000/svg" width="76" height="76" viewBox="0 0 76 76">
  <g id="Grupo_53539" data-name="Grupo 53539" transform="translate(-783 -8994)">
    <g id="Elipse_1207" data-name="Elipse 1207" transform="translate(783 8994)" fill="#f3f9ff" stroke="#9a4cbc" stroke-width="2">
      <circle cx="38" cy="38" r="38" stroke="none"/>
      <circle cx="38" cy="38" r="37" fill="none"/>
    </g>
    <g id="plan" transform="translate(801.5 9010.519)">
      <path id="Trazado_98777" data-name="Trazado 98777" d="M146.012,8.339V49.2H166.7a5.24,5.24,0,0,0,5.24-5.24V8.339A.839.839,0,0,0,171.1,7.5H146.851a.839.839,0,0,0-.839.839Zm0,0" transform="translate(-133.302 -6.871)" fill="#e3f4ff"/>
      <path id="Trazado_98778" data-name="Trazado 98778" d="M371.466,8.339V43.965a5.24,5.24,0,0,1-5.24,5.24h-2.409a5.24,5.24,0,0,0,5.24-5.24V8.339a.839.839,0,0,0-.839-.839h2.409A.839.839,0,0,1,371.466,8.339Zm0,0" transform="translate(-332.83 -6.871)" fill="#bddff4"/>
      <path id="Trazado_98779" data-name="Trazado 98779" d="M42.226,416.645a.839.839,0,0,1,.839.839v1.293a5.24,5.24,0,0,0,5.24,5.24H22.377a5.24,5.24,0,0,1-5.24-5.24v-1.293a.839.839,0,0,1,.839-.839Zm0,0" transform="translate(-15.241 -381.683)" fill="#9cc6db"/>
      <g id="Grupo_53353" data-name="Grupo 53353" transform="translate(16.906 13.267)">
        <path id="Trazado_98780" data-name="Trazado 98780" d="M199.06,159.63a1.524,1.524,0,1,1-1.524-1.524A1.524,1.524,0,0,1,199.06,159.63Zm0,0" transform="translate(-196.012 -158.106)" fill="#f9b200"/>
        <path id="Trazado_98781" data-name="Trazado 98781" d="M199.06,238.856a1.524,1.524,0,1,1-1.524-1.524,1.524,1.524,0,0,1,1.524,1.524Zm0,0" transform="translate(-196.012 -230.684)" fill="#f9b200"/>
        <path id="Trazado_98782" data-name="Trazado 98782" d="M199.06,318.083a1.524,1.524,0,1,1-1.524-1.524A1.524,1.524,0,0,1,199.06,318.083Zm0,0" transform="translate(-196.012 -303.263)" fill="#f9b200"/>
      </g>
      <path id="Trazado_98783" data-name="Trazado 98783" d="M199.258,54.785h16.99v3.65h-16.99Zm0,0" transform="translate(-182.08 -50.188)" fill="#fd6096"/>
      <path id="Trazado_98784" data-name="Trazado 98784" d="M146.043,265.433l2.7,1.343a.372.372,0,0,0,.514-.462l-1.047-2.83Zm0,0" transform="translate(-133.33 -241.375)" fill="#4e7693"/>
      <path id="Trazado_98785" data-name="Trazado 98785" d="M18.993,124.721,8.149,112.648a.619.619,0,0,1,.047-.875l1.726-1.55a.619.619,0,0,1,.875.047l10.845,12.073a.619.619,0,0,1-.047.875l-1.726,1.55a.619.619,0,0,1-.875-.047Zm0,0" transform="translate(-6.861 -100.829)" fill="#c0ff66"/>
      <path id="Trazado_98786" data-name="Trazado 98786" d="M18.993,134.914,8.149,122.841a.619.619,0,0,1,.047-.875l.863-.775,11.673,13-.863.775a.619.619,0,0,1-.875-.047Zm0,0" transform="translate(-6.861 -111.022)" fill="#9be058"/>
      <path id="Trazado_98787" data-name="Trazado 98787" d="M9.326,113.956l-1.175-1.308a.62.62,0,0,1,.047-.875l1.726-1.55a.619.619,0,0,1,.875.047l1.175,1.308Zm0,0" transform="translate(-6.864 -100.829)" fill="#fd82ac"/>
      <path id="Trazado_98788" data-name="Trazado 98788" d="M37.8,0H13.549a1.47,1.47,0,0,0-1.468,1.468v16.1L4.4,9.02A1.249,1.249,0,0,0,2.64,8.926L.914,10.476A1.25,1.25,0,0,0,.819,12.24L11.664,24.313a1.245,1.245,0,0,0,.417.3v9.715H9.635a.629.629,0,0,0,0,1.259h17.35a.21.21,0,0,1,.21.21v1.294a5.862,5.862,0,0,0,2.241,4.61H7.136a4.616,4.616,0,0,1-4.611-4.61V35.8a.21.21,0,0,1,.21-.21H6.894a.629.629,0,0,0,0-1.259H2.735A1.47,1.47,0,0,0,1.267,35.8v1.293a5.876,5.876,0,0,0,5.869,5.869H33.4a5.876,5.876,0,0,0,5.869-5.869V19.968a.629.629,0,0,0-1.259,0V37.094A4.616,4.616,0,0,1,33.4,41.7h-.333a4.615,4.615,0,0,1-4.61-4.61V35.8a1.47,1.47,0,0,0-1.468-1.468H13.34v-9.26l1.8.893a1,1,0,0,0,1.384-1.244l-.965-2.61c.006-.039.01-.077.012-.117a1.24,1.24,0,0,0-.318-.9L13.34,18.969V1.468a.21.21,0,0,1,.21-.21H37.8a.21.21,0,0,1,.21.21V9.675a.629.629,0,1,0,1.259,0V1.468A1.47,1.47,0,0,0,37.8,0ZM3.474,9.869l.747.832L2.51,12.239l-.748-.832ZM3.35,13.175l.388-.348,9.243,10.29-.387.348ZM13.927,23.959l.727-.653.46,1.243Zm-.01-1.684L4.675,11.985l.387-.348,9.243,10.29Zm0,0" transform="translate(0)" fill="#23147b"/>
      <path id="Trazado_98789" data-name="Trazado 98789" d="M448.1,140.469a.629.629,0,0,0-.629.629v4.811a.629.629,0,1,0,1.259,0V141.1A.629.629,0,0,0,448.1,140.469Zm0,0" transform="translate(-409.466 -128.682)" fill="#23147b"/>
      <path id="Trazado_98790" data-name="Trazado 98790" d="M190.665,150.6a2.153,2.153,0,1,0,2.154,2.154A2.156,2.156,0,0,0,190.665,150.6Zm0,3.048a.895.895,0,1,1,.895-.895A.9.9,0,0,1,190.665,153.653Zm0,0" transform="translate(-172.235 -137.968)" fill="#23147b"/>
      <path id="Trazado_98791" data-name="Trazado 98791" d="M255.527,171.638h3.084a.629.629,0,1,0,0-1.259h-3.084a.629.629,0,0,0,0,1.259Zm0,0" transform="translate(-233.051 -156.082)" fill="#23147b"/>
      <path id="Trazado_98792" data-name="Trazado 98792" d="M266.278,188.355h-10.75a.629.629,0,1,0,0,1.259h10.75a.629.629,0,0,0,0-1.259Zm0,0" transform="translate(-233.052 -172.55)" fill="#23147b"/>
      <path id="Trazado_98793" data-name="Trazado 98793" d="M255.535,150.443h0a.629.629,0,0,0,0-1.259h-.01a.629.629,0,0,0,.01,1.259Zm0,0" transform="translate(-233.055 -136.666)" fill="#23147b"/>
      <path id="Trazado_98794" data-name="Trazado 98794" d="M190.665,229.832a2.153,2.153,0,1,0,2.154,2.154A2.156,2.156,0,0,0,190.665,229.832Zm0,3.048a.895.895,0,1,1,.895-.895A.9.9,0,0,1,190.665,232.88Zm0,0" transform="translate(-172.235 -210.546)" fill="#23147b"/>
      <path id="Trazado_98795" data-name="Trazado 98795" d="M255.527,250.864h3.084a.629.629,0,1,0,0-1.259h-3.084a.629.629,0,0,0,0,1.259Zm0,0" transform="translate(-233.051 -228.66)" fill="#23147b"/>
      <path id="Trazado_98796" data-name="Trazado 98796" d="M266.278,267.582h-10.75a.629.629,0,1,0,0,1.259h10.75a.629.629,0,0,0,0-1.259Zm0,0" transform="translate(-233.052 -245.129)" fill="#23147b"/>
      <path id="Trazado_98797" data-name="Trazado 98797" d="M255.535,229.665h0a.629.629,0,0,0,0-1.259h-.01a.629.629,0,0,0,.01,1.259Zm0,0" transform="translate(-233.055 -209.24)" fill="#23147b"/>
      <path id="Trazado_98798" data-name="Trazado 98798" d="M190.665,309.059a2.153,2.153,0,1,0,2.154,2.154A2.156,2.156,0,0,0,190.665,309.059Zm0,3.048a.895.895,0,1,1,.895-.895A.9.9,0,0,1,190.665,312.107Zm0,0" transform="translate(-172.235 -283.125)" fill="#23147b"/>
      <path id="Trazado_98799" data-name="Trazado 98799" d="M255.527,330.091h3.084a.629.629,0,1,0,0-1.259h-3.084a.629.629,0,0,0,0,1.259Zm0,0" transform="translate(-233.051 -301.239)" fill="#23147b"/>
      <path id="Trazado_98800" data-name="Trazado 98800" d="M255.527,348.068h10.75a.629.629,0,0,0,0-1.259h-10.75a.629.629,0,0,0,0,1.259Zm0,0" transform="translate(-233.051 -317.707)" fill="#23147b"/>
      <path id="Trazado_98801" data-name="Trazado 98801" d="M255.535,308.9h0a.629.629,0,0,0,0-1.259h-.01a.629.629,0,0,0,.01,1.259Zm0,0" transform="translate(-233.055 -281.823)" fill="#23147b"/>
      <path id="Trazado_98802" data-name="Trazado 98802" d="M210.006,51.564v-3.65a.629.629,0,0,0-.629-.629h-16.99a.629.629,0,0,0-.629.629v3.65a.629.629,0,0,0,.629.629h16.99A.629.629,0,0,0,210.006,51.564Zm-1.259-.629H193.016V48.544h15.731Zm0,0" transform="translate(-175.208 -43.318)" fill="#23147b"/>
    </g>
  </g>
</svg>
