<svg xmlns="http://www.w3.org/2000/svg" width="76" height="76" viewBox="0 0 76 76">
  <g id="Grupo_53537" data-name="Grupo 53537" transform="translate(-783 -8684)">
    <g id="Elipse_1200" data-name="Elipse 1200" transform="translate(783 8684)" fill="#f3f9ff" stroke="#9a4cbc" stroke-width="2">
      <circle cx="38" cy="38" r="38" stroke="none"/>
      <circle cx="38" cy="38" r="37" fill="none"/>
    </g>
    <g id="lista-de-verificacion_1_" data-name="lista-de-verificacion (1)" transform="translate(741.785 8701)">
      <g id="Grupo_53351" data-name="Grupo 53351" transform="translate(63.844 0.629)">
        <path id="Trazado_98756" data-name="Trazado 98756" d="M97.418,81H72.2a1.48,1.48,0,0,1-1.48-1.48V43.689a1.48,1.48,0,0,1,1.48-1.48H97.418a1.48,1.48,0,0,1,1.48,1.48V79.521A1.48,1.48,0,0,1,97.418,81Z" transform="translate(-70.715 -39.297)" fill="#c8effe"/>
        <path id="Trazado_98757" data-name="Trazado 98757" d="M132.127,7.5H106.9a1.48,1.48,0,0,0-1.48,1.48v1.432h23.79a1.48,1.48,0,0,1,1.48,1.48v34.4h1.432a1.48,1.48,0,0,0,1.48-1.48V8.98A1.48,1.48,0,0,0,132.127,7.5Z" transform="translate(-102.512 -7.5)" fill="#3c87d0"/>
        <g id="Grupo_53349" data-name="Grupo 53349" transform="translate(3.662 7.772)">
          <path id="Trazado_98758" data-name="Trazado 98758" d="M118.666,104.932h-3.8a.5.5,0,0,1-.5-.5v-3.8a.5.5,0,0,1,.5-.5h3.8a.5.5,0,0,1,.5.5v3.8A.5.5,0,0,1,118.666,104.932Z" transform="translate(-114.359 -100.121)" fill="#7ca1b1"/>
          <path id="Trazado_98759" data-name="Trazado 98759" d="M118.666,201.31h-3.8a.5.5,0,0,1-.5-.5V197a.5.5,0,0,1,.5-.5h3.8a.5.5,0,0,1,.5.5v3.8A.5.5,0,0,1,118.666,201.31Z" transform="translate(-114.359 -188.412)" fill="#7ca1b1"/>
          <path id="Trazado_98760" data-name="Trazado 98760" d="M118.666,297.688h-3.8a.5.5,0,0,1-.5-.5v-3.8a.5.5,0,0,1,.5-.5h3.8a.5.5,0,0,1,.5.5v3.8A.5.5,0,0,1,118.666,297.688Z" transform="translate(-114.359 -276.703)" fill="#7ca1b1"/>
          <path id="Trazado_98761" data-name="Trazado 98761" d="M118.666,390.069h-3.8a.5.5,0,0,1-.5-.5v-3.8a.5.5,0,0,1,.5-.5h3.8a.5.5,0,0,1,.5.5v3.8A.5.5,0,0,1,118.666,390.069Z" transform="translate(-114.359 -361.332)" fill="#7ca1b1"/>
        </g>
        <g id="Grupo_53350" data-name="Grupo 53350" transform="translate(6.007 16.575)">
          <path id="Trazado_98762" data-name="Trazado 98762" d="M0,0H14.717V4.938H0Z" transform="translate(15.402 5.95) rotate(135)" fill="#d83131"/>
          <path id="Trazado_98763" data-name="Trazado 98763" d="M286.421,205.255l-2.226,2.226,3.491,3.491,2.226-2.226a.79.79,0,0,0,0-1.117l-2.374-2.374A.79.79,0,0,0,286.421,205.255Z" transform="translate(-272.288 -205.023)" fill="#f47c7c"/>
          <path id="Trazado_98764" data-name="Trazado 98764" d="M147.291,361.818l-3.491-3.491-1.465,4.386c-.14.418.153.71.571.571Z" transform="translate(-142.3 -345.463)" fill="#f9c6c6"/>
          <path id="Trazado_98765" data-name="Trazado 98765" d="M0,0H14.717V4.938H0Z" transform="translate(15.402 5.95) rotate(135)" fill="#d83131"/>
          <path id="Trazado_98766" data-name="Trazado 98766" d="M286.421,205.255l-2.226,2.226,3.491,3.491,2.226-2.226a.79.79,0,0,0,0-1.117l-2.374-2.374A.79.79,0,0,0,286.421,205.255Z" transform="translate(-272.288 -205.023)" fill="#f47c7c"/>
          <path id="Trazado_98767" data-name="Trazado 98767" d="M147.291,361.818l-3.491-3.491-1.465,4.386c-.14.418.153.71.571.571Z" transform="translate(-142.3 -345.463)" fill="#f9c6c6"/>
          <path id="Trazado_98768" data-name="Trazado 98768" d="M0,0H14.717V2.379H0Z" transform="translate(3.306 14.672) rotate(-45)" fill="#ca2c2c"/>
          <path id="Trazado_98769" data-name="Trazado 98769" d="M309.667,217.712l-1.682-1.682a.79.79,0,0,1,0,1.117l-2.226,2.226,1.682,1.682,2.226-2.226A.79.79,0,0,0,309.667,217.712Z" transform="translate(-292.043 -215.106)" fill="#ee6161"/>
          <path id="Trazado_98770" data-name="Trazado 98770" d="M145.61,379.891l-2.717.908-.557,1.668c-.14.418.153.71.571.571l4.386-1.465Z" transform="translate(-142.3 -365.218)" fill="#f9b1b1"/>
        </g>
        <path id="Trazado_98771" data-name="Trazado 98771" d="M357.048,42.209h-2.921a1.48,1.48,0,0,1,1.48,1.48V79.521a1.48,1.48,0,0,1-1.48,1.48h2.921a1.48,1.48,0,0,0,1.48-1.48V43.689A1.48,1.48,0,0,0,357.048,42.209Z" transform="translate(-330.345 -39.297)" fill="#b3dafe"/>
      </g>
      <g id="Grupo_53352" data-name="Grupo 53352" transform="translate(63.215)">
        <path id="Trazado_98772" data-name="Trazado 98772" d="M94.94,7.8a.629.629,0,0,0,.629-.629V2.109A2.112,2.112,0,0,0,93.459,0H68.237a2.112,2.112,0,0,0-2.109,2.109v.8h-.8a2.112,2.112,0,0,0-2.109,2.109V31.984a.629.629,0,0,0,1.259,0V5.022a.852.852,0,0,1,.851-.851H90.547a.852.852,0,0,1,.851.851V40.853a.852.852,0,0,1-.851.851H65.324a.852.852,0,0,1-.851-.851V34.921a.629.629,0,0,0-1.259,0v5.932a2.112,2.112,0,0,0,2.109,2.109H90.547a2.112,2.112,0,0,0,2.109-2.109v-.8h.8a2.112,2.112,0,0,0,2.109-2.109V10.11a.629.629,0,1,0-1.259,0v27.83a.852.852,0,0,1-.851.851h-.8V5.022a2.112,2.112,0,0,0-2.109-2.109H67.386v-.8a.852.852,0,0,1,.851-.851H93.459a.852.852,0,0,1,.851.851V7.174a.629.629,0,0,0,.629.629Z" transform="translate(-63.215)" fill="#23147b"/>
        <path id="Trazado_98773" data-name="Trazado 98773" d="M197.432,121.917a.629.629,0,0,0,.629.629h13.37a.629.629,0,0,0,0-1.259h-13.37A.629.629,0,0,0,197.432,121.917Z" transform="translate(-186.17 -111.111)" fill="#23147b"/>
        <path id="Trazado_98774" data-name="Trazado 98774" d="M106.858,182.391a1.134,1.134,0,0,0,1.133,1.133h3.8a1.134,1.134,0,0,0,1.133-1.133v-3.03l1.79-1.9a.629.629,0,1,0-.917-.862l-1.163,1.237a1.129,1.129,0,0,0-.843-.378h-3.8a1.134,1.134,0,0,0-1.133,1.133Zm4.811-.126H110.2l1.471-1.565Zm-3.552-3.552h3.552v.15l-1.853,1.971-1.128-1.719a.629.629,0,0,0-.572-.282v-.12Zm0,1.825,1.085,1.654a.631.631,0,0,0,.058.074h-1.143Z" transform="translate(-103.196 -161.595)" fill="#23147b"/>
        <path id="Trazado_98775" data-name="Trazado 98775" d="M113.8,82.762,112.73,83.9a1.132,1.132,0,0,0-.935-.494h-3.8a1.134,1.134,0,0,0-1.133,1.133v3.8a1.134,1.134,0,0,0,1.133,1.133h3.8a1.134,1.134,0,0,0,1.133-1.133V85.529l1.79-1.9a.629.629,0,1,0-.917-.862Zm-5.684,5.456V86.705l.993,1.514Zm3.552,0H110.4l1.27-1.351Zm0-3.189L109.817,87l-1.128-1.719a.629.629,0,0,0-.572-.282v-.333h3.552v.363Z" transform="translate(-103.197 -75.636)" fill="#23147b"/>
        <path id="Trazado_98776" data-name="Trazado 98776" d="M107.991,212.749a1.134,1.134,0,0,0-1.133,1.133v3.8a1.134,1.134,0,0,0,1.133,1.133h3.8a1.134,1.134,0,0,0,1.133-1.133v-1.773l1.713-.573a.629.629,0,0,0,.446,1.073h13.705a.629.629,0,0,0,0-1.259H115.144l.012-.007,0,0a.631.631,0,0,0,.058-.043l.018-.016.024-.022,6.4-6.4h6.8a.629.629,0,0,0,0-1.259h-5.536l2.745-2.745,2.226-2.226a1.421,1.421,0,0,0,.129-1.857h.436a.629.629,0,0,0,0-1.259h-1.673l-1.266-1.266a1.421,1.421,0,0,0-2.007,0l-1.266,1.266h-7.158a.629.629,0,1,0,0,1.259h5.9l-8.059,8.059v-1.914l1.744-1.943a.629.629,0,0,0-.937-.841l-1.2,1.338a1.127,1.127,0,0,0-.739-.276h-3.8a1.134,1.134,0,0,0-1.133,1.133v3.8a1.134,1.134,0,0,0,1.133,1.133h2.69l-.562,1.682h-2.128ZM124.4,198.94a.161.161,0,0,1,.227,0L127,201.314a.161.161,0,0,1,0,.227l-1.781,1.781-2.6-2.6Zm-2.671,2.671,2.6,2.6-9.516,9.516-2.6-2.6Zm-13.613,8.2v-1.839l1.149,1.667a.629.629,0,0,0,.18.172h-1.329Zm.565-3.236a.628.628,0,0,0-.565-.27v-.046h3.535l-1.8,2.008Zm1.44,3.236a.629.629,0,0,0,.13-.109l1.417-1.578v1.687Zm1.476,2.484,2.052,2.052-3.082,1.03Zm-.97,4.389,1.04-.348v1.227h-3.552v-3.552H109.7l-.436,1.306A1.048,1.048,0,0,0,110.629,216.681Z" transform="translate(-103.196 -181.051)" fill="#23147b"/>
      </g>
    </g>
  </g>
</svg>
