<svg xmlns="http://www.w3.org/2000/svg" width="76" height="76" viewBox="0 0 76 76">
  <g id="Grupo_53533" data-name="Grupo 53533" transform="translate(-231 -8839)">
    <g id="Elipse_1202" data-name="Elipse 1202" transform="translate(231 8839)" fill="#f3f9ff" stroke="#9a4cbc" stroke-width="2">
      <circle cx="38" cy="38" r="38" stroke="none"/>
      <circle cx="38" cy="38" r="37" fill="none"/>
    </g>
    <g id="portapapeles" transform="translate(186.725 8850.074)">
      <path id="Trazado_98831" data-name="Trazado 98831" d="M105.18,75.67V111.9H74V75.67H85.339v2.335H76.431v31.369h26.318V78.005H93.841V75.67Z" transform="translate(-7.315 -64.21)" fill="#3c87d0"/>
      <path id="Trazado_98832" data-name="Trazado 98832" d="M128.7,102.93V134.3H102.38V102.93h8.908v1.39h8.5v-1.39Zm-2.669,14.863v-2.7l-2.109-.337a8.144,8.144,0,0,0-1.178-2.723l1.233-1.66-2.027-1.919L120.2,109.65a8.891,8.891,0,0,0-2.876-1.115l-.356-2h-2.849l-.355,2a9.143,9.143,0,0,0-2.876,1.115l-1.753-1.168L107.1,110.4l1.233,1.659a7.914,7.914,0,0,0-1.178,2.723l-2.109.338v2.7l2.109.338a8.148,8.148,0,0,0,1.178,2.722l-1.233,1.66,2.027,1.919,1.753-1.167a8.9,8.9,0,0,0,2.876,1.115l.356,2h2.848l.356-2a9.143,9.143,0,0,0,2.876-1.115l1.753,1.167,2.027-1.919-1.259-1.686a7.93,7.93,0,0,0,1.178-2.723Z" transform="translate(-33.264 -89.135)" fill="#c8effe"/>
      <path id="Trazado_98833" data-name="Trazado 98833" d="M154.52,153.607v2.7l-2.136.337a7.93,7.93,0,0,1-1.178,2.723l1.259,1.686-2.027,1.919-1.753-1.167a9.143,9.143,0,0,1-2.876,1.115l-.356,2h-2.848l-.356-2a8.9,8.9,0,0,1-2.876-1.115l-1.753,1.167-2.027-1.919,1.233-1.66a8.148,8.148,0,0,1-1.178-2.722l-2.109-.337v-2.7l2.109-.337a7.914,7.914,0,0,1,1.178-2.723l-1.233-1.659,2.028-1.92,1.753,1.168a9.143,9.143,0,0,1,2.876-1.115l.355-2h2.849l.356,2a8.891,8.891,0,0,1,2.876,1.115l1.753-1.193,2.027,1.919-1.233,1.66a8.145,8.145,0,0,1,1.178,2.723Zm-5.12,1.375a5.37,5.37,0,1,0-5.37,5.37,5.37,5.37,0,0,0,5.37-5.37Z" transform="translate(-61.755 -127.647)" fill="#a397e3"/>
      <path id="Trazado_98834" data-name="Trazado 98834" d="M214.873,69.109V70.5h-8.5V65.94h8.5v3.169Z" transform="translate(-128.346 -55.314)" fill="#fedb41"/>
      <circle id="Elipse_1211" data-name="Elipse 1211" cx="5.37" cy="5.37" r="5.37" transform="translate(76.905 21.965)" fill="#fedb41"/>
      <circle id="Elipse_1212" data-name="Elipse 1212" cx="2.245" cy="2.245" r="2.245" transform="translate(80.03 6.126)" fill="#a397e3"/>
      <path id="Trazado_98835" data-name="Trazado 98835" d="M161.922,431H143.985a.685.685,0,0,0,0,1.371h17.937a.685.685,0,0,0,0-1.371Z" transform="translate(-70.678 -389.103)" fill="#23147b"/>
      <path id="Trazado_98836" data-name="Trazado 98836" d="M143.985,400.371h8.467a.685.685,0,1,0,0-1.371h-8.467a.685.685,0,1,0,0,1.371Z" transform="translate(-70.678 -359.844)" fill="#23147b"/>
      <path id="Trazado_98837" data-name="Trazado 98837" d="M97.865,10.8H87.244v-.176a.709.709,0,0,0-.717-.68H84.748a2.856,2.856,0,0,0,.458-1.572,2.93,2.93,0,0,0-5.861,0A2.854,2.854,0,0,0,79.8,9.946H78.024a.709.709,0,0,0-.717.68V10.8H66.685A.662.662,0,0,0,66,11.46V47.687a.716.716,0,0,0,.685.72h31.18a.716.716,0,0,0,.685-.72V11.46a.662.662,0,0,0-.685-.657ZM82.275,6.812a1.56,1.56,0,1,1-1.56,1.56A1.56,1.56,0,0,1,82.275,6.812Zm-3.6,4.5h7.2v3.169h-7.2Zm7.849,4.54a.7.7,0,0,0,.717-.672v-.7h7.538V44.467H69.769V14.486h7.538v.7a.7.7,0,0,0,.717.672ZM97.18,47.037H67.371V12.173h9.937v.942H69.116a.709.709,0,0,0-.718.679V45.163a.7.7,0,0,0,.718.674H95.434a.7.7,0,0,0,.718-.674V13.795a.709.709,0,0,0-.718-.679H87.244v-.942H97.18Z" fill="#23147b"/>
      <path id="Trazado_98838" data-name="Trazado 98838" d="M131.1,139.064a.685.685,0,0,0-.851.073l-2.028,1.92a.685.685,0,0,0-.079.906l.951,1.28a8.55,8.55,0,0,0-.9,2.088l-1.644.266a.668.668,0,0,0-.557.677v2.7a.668.668,0,0,0,.557.677l1.656.266A8.77,8.77,0,0,0,129.1,152l-.955,1.282a.685.685,0,0,0,.078.906l2.026,1.919a.685.685,0,0,0,.851.073l1.4-.932a9.538,9.538,0,0,0,2.254.879l.276,1.55a.687.687,0,0,0,.675.567h2.848a.687.687,0,0,0,.675-.567l.277-1.551a9.794,9.794,0,0,0,2.252-.878l1.4.932a.685.685,0,0,0,.851-.073l2.027-1.919a.685.685,0,0,0,.078-.908l-.976-1.306a8.556,8.556,0,0,0,.9-2.086l1.67-.266a.668.668,0,0,0,.559-.677v-2.7a.668.668,0,0,0-.558-.677l-1.655-.266a8.757,8.757,0,0,0-.894-2.086l.955-1.283a.685.685,0,0,0-.078-.906l-2.026-1.919a.685.685,0,0,0-.857-.069l-1.4.951a9.535,9.535,0,0,0-2.25-.876l-.276-1.55a.687.687,0,0,0-.675-.567h-2.849a.687.687,0,0,0-.675.567l-.276,1.551A9.8,9.8,0,0,0,132.5,140Zm4.385,1.294a.688.688,0,0,0,.538-.554l.255-1.434h1.7l.255,1.434a.687.687,0,0,0,.541.553,8.183,8.183,0,0,1,2.654,1.03.685.685,0,0,0,.74-.019l1.3-.883,1.185,1.122-.87,1.172a.685.685,0,0,0-.019.791,7.43,7.43,0,0,1,1.079,2.494.662.662,0,0,0,.54.524l1.512.244v1.527l-1.538.245a.674.674,0,0,0-.552.527,7.2,7.2,0,0,1-1.071,2.488.685.685,0,0,0,.021.795l.9,1.2-1.187,1.124-1.3-.864a.685.685,0,0,0-.732-.017,8.437,8.437,0,0,1-2.66,1.031.688.688,0,0,0-.538.553l-.255,1.434h-1.7l-.255-1.434a.687.687,0,0,0-.541-.553,8.193,8.193,0,0,1-2.654-1.03.685.685,0,0,0-.734.016l-1.3.864-1.189-1.126.87-1.172a.685.685,0,0,0,.019-.791,7.433,7.433,0,0,1-1.079-2.493.662.662,0,0,0-.54-.524l-1.513-.245v-1.528l1.512-.245a.674.674,0,0,0,.551-.527A7.191,7.191,0,0,1,130.5,143.6a.685.685,0,0,0-.019-.794l-.871-1.171,1.189-1.126,1.3.865a.685.685,0,0,0,.732.017,8.437,8.437,0,0,1,2.66-1.032Z" transform="translate(-54.856 -120.287)" fill="#23147b"/>
      <path id="Trazado_98839" data-name="Trazado 98839" d="M219.792,238.731a.685.685,0,0,0,.961.02l3.379-3.19a.685.685,0,1,0-.941-1l-2.889,2.727-1.3-1.333a.685.685,0,1,0-.982.956Z" transform="translate(-138.813 -209.323)" fill="#23147b"/>
      <path id="Trazado_98840" data-name="Trazado 98840" d="M191.365,202.421a6.055,6.055,0,1,0-6.055-6.055A6.055,6.055,0,0,0,191.365,202.421Zm0-10.74a4.685,4.685,0,1,1-4.685,4.685A4.685,4.685,0,0,1,191.365,191.681Z" transform="translate(-109.09 -169.03)" fill="#23147b"/>
    </g>
  </g>
</svg>
