<svg xmlns="http://www.w3.org/2000/svg" width="76" height="76" viewBox="0 0 76 76">
  <g id="Grupo_53536" data-name="Grupo 53536" transform="translate(-507 -8994)">
    <g id="Elipse_1206" data-name="Elipse 1206" transform="translate(507 8994)" fill="#f3f9ff" stroke="#9a4cbc" stroke-width="2">
      <circle cx="38" cy="38" r="38" stroke="none"/>
      <circle cx="38" cy="38" r="37" fill="none"/>
    </g>
    <g id="doctor" transform="translate(471.887 9010.519)">
      <path id="Trazado_98923" data-name="Trazado 98923" d="M93,341.318l-7.089-2.085H73.6l-7.089,2.085a4.036,4.036,0,0,0-2.9,3.872V353.1H95.9V345.19A4.036,4.036,0,0,0,93,341.318Z" transform="translate(-6.872 -310.767)" fill="#edebed"/>
      <path id="Trazado_98924" data-name="Trazado 98924" d="M207.96,357.63h-6.726l-1.345-13.453h9.417Z" transform="translate(-131.711 -315.297)" fill="#a5cdff"/>
      <path id="Trazado_98925" data-name="Trazado 98925" d="M200.194,347.237a6.7,6.7,0,0,0,8.805,0l.306-3.06h-9.417Z" transform="translate(-131.711 -315.297)" fill="#8cb4eb"/>
      <path id="Trazado_98926" data-name="Trazado 98926" d="M204.6,273.433h0a4.709,4.709,0,0,1-4.709-4.709v-4.708h9.417v4.708A4.709,4.709,0,0,1,204.6,273.433Z" transform="translate(-131.711 -241.862)" fill="#f7d291"/>
      <path id="Trazado_98927" data-name="Trazado 98927" d="M199.888,267.535a9.911,9.911,0,0,0,9.417,0v-3.519h-9.417Z" transform="translate(-131.711 -241.862)" fill="#f0c382"/>
      <path id="Trazado_98928" data-name="Trazado 98928" d="M140.916,86.371h-1.009V79.645H122.419v6.726H121.41a1.682,1.682,0,0,0,0,3.363h1.043a8.736,8.736,0,0,0,17.421,0h1.043a1.682,1.682,0,1,0,0-3.363Z" transform="translate(-58.277 -72.962)" fill="#ffe1a0"/>
      <path id="Trazado_98929" data-name="Trazado 98929" d="M122.515,79.645v6.726h-.941a1.72,1.72,0,0,0-1.679,1.225,1.687,1.687,0,0,0,1.621,2.138h1.034a8.683,8.683,0,0,0,10.06,7.958,8.739,8.739,0,0,1-7.4-8.631V84.835a2.014,2.014,0,0,1,2.279-1.983,17.039,17.039,0,0,0,2.017.116,26.52,26.52,0,0,0,6.644-.947,5.19,5.19,0,0,0,3.129-2.376Z" transform="translate(-58.373 -72.962)" fill="#f7d291"/>
      <path id="Trazado_98930" data-name="Trazado 98930" d="M140.383,47.53l.084,2.691a7.428,7.428,0,0,0-2.018,4.709v.83a1.345,1.345,0,0,1-1.178,1.335l-1.512.189V51.566A4.306,4.306,0,0,1,140.383,47.53Z" transform="translate(-72.963 -43.537)" fill="#a06e50"/>
      <path id="Trazado_98931" data-name="Trazado 98931" d="M264.06,318.153l-1.332-1.332,1.426-1.9a.824.824,0,0,0-.291-1.231l-3.153-1.577L256,328.256h4.036l4.275-8.55A1.345,1.345,0,0,0,264.06,318.153Z" transform="translate(-183.115 -285.922)" fill="#dbd9dc"/>
      <path id="Trazado_98932" data-name="Trazado 98932" d="M320.214,23.481l-.084,4.709a7.428,7.428,0,0,1,2.018,4.709v.83a1.345,1.345,0,0,0,1.178,1.335l1.512.189V27.517A4.306,4.306,0,0,0,320.214,23.481Z" transform="translate(-241.863 -21.506)" fill="#cd916e"/>
      <path id="Trazado_98933" data-name="Trazado 98933" d="M155.66,318.153l1.332-1.332-1.426-1.9a.824.824,0,0,1,.291-1.231l3.153-1.577,4.708,16.144h-4.036l-4.275-8.55A1.345,1.345,0,0,1,155.66,318.153Z" transform="translate(-90.833 -285.922)" fill="#dbd9dc"/>
      <path id="Trazado_98934" data-name="Trazado 98934" d="M147.676,7.5c-5.612,0-6.687,1.706-11.009,3.082a.471.471,0,0,0-.263.7c.938,1.467,4.428,5.29,14.344,2.694a3.142,3.142,0,0,0,2.289-2.417h0a3.145,3.145,0,0,0-1.8-3.332A8.283,8.283,0,0,0,147.676,7.5Z" transform="translate(-73.486 -6.871)" fill="#b67f5f"/>
      <rect id="Rectángulo_4813" data-name="Rectángulo 4813" width="6.726" height="4.036" transform="translate(60.105 38.297)" fill="#a5cdff"/>
      <path id="Trazado_98935" data-name="Trazado 98935" d="M201.034,160.322a.629.629,0,0,0-.629.629v.673a.629.629,0,1,0,1.259,0v-.673A.629.629,0,0,0,201.034,160.322Z" transform="translate(-132.184 -146.869)"/>
      <path id="Trazado_98936" data-name="Trazado 98936" d="M297.227,160.322a.629.629,0,0,0-.629.629v.673a.629.629,0,1,0,1.259,0v-.673A.629.629,0,0,0,297.227,160.322Z" transform="translate(-220.306 -146.869)"/>
      <path id="Trazado_98937" data-name="Trazado 98937" d="M229.561,217.512a.629.629,0,0,0-.884-.9,2.774,2.774,0,0,1-3.152,0,.629.629,0,1,0-.884.9,3.97,3.97,0,0,0,4.92,0Z" transform="translate(-154.215 -198.273)"/>
      <path id="Trazado_98938" data-name="Trazado 98938" d="M194.364,136.274h-1.345a.629.629,0,0,0,0,1.259h1.345a.629.629,0,1,0,0-1.259Z" transform="translate(-124.841 -124.839)"/>
      <path id="Trazado_98939" data-name="Trazado 98939" d="M289.211,137.533h1.345a.629.629,0,0,0,0-1.259h-1.345a.629.629,0,0,0,0,1.259Z" transform="translate(-212.962 -124.839)"/>
      <path id="Trazado_98940" data-name="Trazado 98940" d="M86.365,29.976l-4.536-1.395a1.443,1.443,0,0,0-.8-1.378l-2.805-1.4v-2a9.388,9.388,0,0,0,3.945-6.4h.374a2.384,2.384,0,0,0,2.4-2.075A2.307,2.307,0,0,0,83.6,12.993V6.01A4.67,4.67,0,0,0,78.94,1.345h-.106A7.934,7.934,0,0,0,74.189,0a16.045,16.045,0,0,0-7.828,1.767,27.294,27.294,0,0,1-3.909,1.509.629.629,0,0,0-.4.847,5.71,5.71,0,0,0,1.026,1.492,5.147,5.147,0,0,0-.906,3.311v4.1a2.3,2.3,0,0,0,.966,4.381h.47a9.385,9.385,0,0,0,3.946,6.4v2l-2.805,1.4a1.443,1.443,0,0,0-.8,1.378l-4.536,1.395a4.642,4.642,0,0,0-3.294,4.459v7.9a.629.629,0,0,0,1.259,0v-7.9a3.389,3.389,0,0,1,2.405-3.256L64.5,29.729l.833,1.11-.946.946a1.972,1.972,0,0,0-.37,2.279l1.8,3.6H64.1v-.716a.629.629,0,0,0-1.259,0v.716H60.106a.629.629,0,0,0-.629.629v4.036a.629.629,0,0,0,.629.629h6.727a.629.629,0,0,0,.629-.629v-1.37l.826,1.651a.629.629,0,0,0,1.126-.563L65.138,33.5a.715.715,0,0,1,.134-.826L66.6,31.343a.629.629,0,0,0,.058-.823l-1.426-1.9a.194.194,0,0,1,.069-.29l2.479-1.239,1.75,6a.629.629,0,1,0,1.208-.352l-.276-.946a7.364,7.364,0,0,0,4.838,0l-2.419,8.294-1.358-4.657a.629.629,0,1,0-1.208.352l1.962,6.728a.629.629,0,0,0,1.208,0l4.5-15.42,2.479,1.239a.194.194,0,0,1,.069.29l-1.426,1.9a.63.63,0,0,0,.058.823L80.5,32.676a.715.715,0,0,1,.134.826l-4.275,8.55a.629.629,0,1,0,1.126.563l4.275-8.55a1.972,1.972,0,0,0-.37-2.279l-.946-.946.833-1.11,4.719,1.451A3.389,3.389,0,0,1,88.4,34.436v7.9a.629.629,0,0,0,1.259,0v-7.9A4.642,4.642,0,0,0,86.365,29.976ZM66.2,41.7H60.735V38.927h2.1v.043a.629.629,0,1,0,1.259,0v-.043h2.1V41.7Zm.678-38.79a14.823,14.823,0,0,1,7.308-1.655c2.322,0,4.4.972,4.826,2.26a.629.629,0,0,0,1.194-.4,2.967,2.967,0,0,0-.128-.32A3.412,3.412,0,0,1,82.346,6.01v6.77H81.63a.717.717,0,0,1-.716-.716v-.673a8.018,8.018,0,0,0-2.2-5.154.63.63,0,0,0-.635-.155c-3.494,1.1-8.419,2.033-12.046.2a6.77,6.77,0,0,1-2.453-2.037A30.955,30.955,0,0,0,66.881,2.914ZM76.965,26.1l-1.2,4.121a6.106,6.106,0,0,1-5.754,0l-1.2-4.122V24.539a9.36,9.36,0,0,0,8.158,0Zm-4.079-1.885A8.124,8.124,0,0,1,64.771,16.1a.629.629,0,1,0-1.259,0v.043h-.38a1.053,1.053,0,0,1-1.047-1.163,1.117,1.117,0,0,1,1.143-.942h.913a1.977,1.977,0,0,0,1.975-1.975V9.689a.629.629,0,0,0-1.259,0v2.375a.717.717,0,0,1-.716.716h-.716V8.925A4.242,4.242,0,0,1,64,6.475a8.65,8.65,0,0,0,1.363.879A11.748,11.748,0,0,0,70.41,8.577,23.819,23.819,0,0,0,78.066,7.4a6.632,6.632,0,0,1,1.59,3.987v.673a1.977,1.977,0,0,0,1.975,1.975h1.009A1.053,1.053,0,0,1,83.686,15.2a1.116,1.116,0,0,1-1.143.942h-.284v-.037a.629.629,0,0,0-.629-.629h0a.629.629,0,0,0-.629.629A8.126,8.126,0,0,1,72.886,24.215Z" transform="translate(0)"/>
      <path id="Trazado_98941" data-name="Trazado 98941" d="M364.72,434.553h-1.052V433.5a.629.629,0,0,0-1.259,0v1.052h-1.052a.629.629,0,0,0,0,1.259h1.052v1.052a.629.629,0,0,0,1.259,0v-1.052h1.052a.629.629,0,0,0,0-1.259Z" transform="translate(-279.053 -396.548)"/>
    </g>
  </g>
</svg>
