<svg xmlns="http://www.w3.org/2000/svg" width="76" height="76" viewBox="0 0 76 76">
  <g id="Grupo_53535" data-name="Grupo 53535" transform="translate(-507 -8839)">
    <g id="Elipse_1203" data-name="Elipse 1203" transform="translate(507 8839)" fill="#f3f9ff" stroke="#9a4cbc" stroke-width="2">
      <circle cx="38" cy="38" r="38" stroke="none"/>
      <circle cx="38" cy="38" r="37" fill="none"/>
    </g>
    <g id="lista-de-verificacion_2_" data-name="lista-de-verificacion (2)" transform="translate(524 8855.519)">
      <path id="Trazado_98803" data-name="Trazado 98803" d="M305.008,362.335v5.544H296v-3.236a1.819,1.819,0,0,0,.554-.894l.742-2.71a9.278,9.278,0,0,1,1.774.409l1.171.388a9.624,9.624,0,0,0,3.07.5,8.945,8.945,0,0,0,1.67-.153Zm0,0" transform="translate(-270.361 -329.766)" fill="#3c87d0"/>
      <path id="Trazado_98804" data-name="Trazado 98804" d="M324.384,288.409a1.387,1.387,0,0,1-.984,2.363H322l.748-2.772h.651A1.384,1.384,0,0,1,324.384,288.409Zm0,0" transform="translate(-294.109 -263.054)" fill="#ccd1d9"/>
      <path id="Trazado_98805" data-name="Trazado 98805" d="M231.17,288.041l-.735,2.73h-2.2a2.79,2.79,0,0,0-1.961.811l-.118-.118,2.654-2.654a2.775,2.775,0,0,1,1.961-.811h.235Zm0,0" transform="translate(-206.57 -263.053)" fill="#e6e9ed"/>
      <path id="Trazado_98806" data-name="Trazado 98806" d="M195.557,248.1l-.922,3.4-.159-.042h-.236a2.775,2.775,0,0,0-1.961.811l-2.654,2.654-.949.956a1.469,1.469,0,0,1-1.039.43,1.5,1.5,0,0,1-1.046-.43,1.464,1.464,0,0,1,.007-2.079l4.989-5a2.775,2.775,0,0,1,1.961-.811h1.621Zm0,0" transform="translate(-170.036 -226.518)" fill="#f0d0b4"/>
      <path id="Trazado_98807" data-name="Trazado 98807" d="M127.938,28.1V12.158H112V8h24.946V30.867l-.048.069-2.53-1.684a2.75,2.75,0,0,0-1.538-.464h-.956l1.337-4.941.742-2.758,1.039-3.846a1.885,1.885,0,0,0,.062-.478,1.834,1.834,0,0,0-1.829-1.836H133a1.83,1.83,0,0,0-1.767,1.358l-.963,3.576-.748,2.751-1.49,5.509Zm0,0" transform="translate(-102.299 -7.307)" fill="#3c87d0"/>
      <path id="Trazado_98808" data-name="Trazado 98808" d="M32.946,71.938l.09.028-.208.769-.388-.1H30.819a2.775,2.775,0,0,0-1.961.811l-4.989,5a1.464,1.464,0,0,0-.007,2.079,1.5,1.5,0,0,0,1.046.43,1.469,1.469,0,0,0,1.039-.43l.949-.956.118.118a2.79,2.79,0,0,0-.811,1.961.7.7,0,0,0,.693.693h3.34l-.5,1.843a1.9,1.9,0,0,0-.069.478A1.839,1.839,0,0,0,31.5,86.49h.229a1.822,1.822,0,0,0,1.213-.464v7.394H8V56H32.946Zm0,0" transform="translate(-7.307 -51.149)" fill="#c8effe"/>
      <path id="Trazado_98809" data-name="Trazado 98809" d="M40,88H56.631v5.544H40Zm0,0" transform="translate(-36.535 -80.378)" fill="#b4dd7f"/>
      <path id="Trazado_98810" data-name="Trazado 98810" d="M44.851,352H46.93v6.93H40V352Zm0,0" transform="translate(-36.535 -321.51)" fill="#ff826e"/>
      <path id="Trazado_98811" data-name="Trazado 98811" d="M44.851,216H46.93v6.93H40V216Zm0,0" transform="translate(-36.535 -197.29)" fill="#ff826e"/>
      <path id="Trazado_98812" data-name="Trazado 98812" d="M327.667,89.836a1.887,1.887,0,0,1-.062.478l-1.039,3.846-3.687-1.227.963-3.576A1.83,1.83,0,0,1,325.609,88h.229a1.834,1.834,0,0,1,1.829,1.836Zm0,0" transform="translate(-294.911 -80.377)" fill="#ffeaa7"/>
      <path id="Trazado_98813" data-name="Trazado 98813" d="M318.673,146.187l-.742,2.758-3.694-1.234.748-2.751Zm0,0" transform="translate(-287.019 -132.405)" fill="#e6e9ed"/>
      <path id="Trazado_98814" data-name="Trazado 98814" d="M261.438,363.694a1.823,1.823,0,0,1-1.213.464H260a1.839,1.839,0,0,1-1.836-1.836,1.9,1.9,0,0,1,.069-.478l.5-1.843h2.71a9,9,0,0,1,1.3.09l-.742,2.71A1.819,1.819,0,0,1,261.438,363.694Zm0,0" transform="translate(-235.799 -328.818)" fill="#fcd770"/>
      <path id="Trazado_98815" data-name="Trazado 98815" d="M281.229,182.893l-1.684,6.237h-4.026l.735-2.73.922-3.4.208-.769,1.49-5.509,3.693,1.234Zm0,0" transform="translate(-251.654 -161.412)" fill="#fcd770"/>
      <path id="Trazado_98816" data-name="Trazado 98816" d="M226.2,257.791a9,9,0,0,0-1.3-.09h-6.049a.7.7,0,0,1-.693-.693,2.768,2.768,0,0,1,2.772-2.772h7.622a1.386,1.386,0,1,0,0-2.772H227.9l.936-3.465h.956a2.75,2.75,0,0,1,1.538.464l2.53,1.684,2.314,1.545a2.751,2.751,0,0,0,1.538.464h4.511V257.7h-2.079a9.628,9.628,0,0,0-2.356.291l-3.222.8c-.229.056-.457.1-.686.138a8.942,8.942,0,0,1-1.67.153,9.623,9.623,0,0,1-3.07-.5l-1.171-.388a9.283,9.283,0,0,0-1.774-.409Zm0,0" transform="translate(-199.263 -226.519)" fill="#f0d0b4"/>
      <path id="Trazado_98817" data-name="Trazado 98817" d="M30.534,22.174a2.071,2.071,0,0,1,1.153.349l4.84,3.227a3.461,3.461,0,0,0,1.922.582h4.515V24.946H38.449A2.074,2.074,0,0,1,37.3,24.6l-1.955-1.3V0H9.008V4.158H0V42.963H26.332V38.805h9.008v-5.83c.044-.01.089-.014.132-.025l3.223-.806a9.062,9.062,0,0,1,2.188-.269h2.079V30.49H40.884a10.422,10.422,0,0,0-2.524.311l-3.224.806a9.059,9.059,0,0,1-5.04-.193l-1.168-.389a10.383,10.383,0,0,0-3.29-.534H19.593a2.082,2.082,0,0,1,2.079-2.079h7.622a2.074,2.074,0,0,0,.243-4.133l.569-2.1Zm-.875,10.553a10.373,10.373,0,0,0,3.291.534c.336,0,.672-.029,1.006-.062v4.219H26.332V35.153a2.5,2.5,0,0,0,.533-.988l.567-2.1a8.944,8.944,0,0,1,1.058.276Zm-3.614-.836L25.528,33.8a1.144,1.144,0,0,1-1.1.845H24.2a1.142,1.142,0,0,1-1.1-1.44l.36-1.332h2.182c.135,0,.27.01.4.016Zm-4.023-.016-.262.969a2.512,2.512,0,0,0,1.19,2.844l-.218.869,1.344.336.216-.861h.133a2.517,2.517,0,0,0,.522-.061v5.6H1.386V5.543h9.008V1.386h23.56V22.37l-1.5-1a3.459,3.459,0,0,0-1.922-.582H30.48l2.884-10.671a2.53,2.53,0,0,0-2.441-3.188H30.7A2.533,2.533,0,0,0,28.259,8.8l-1.926,7.128V4.158H11.78V5.544H24.946V20.789H23.513a3.427,3.427,0,0,0-2.059.693h-6.9v1.386H20l-1.386,1.386H14.552v1.386h2.675L16.07,26.8a2.15,2.15,0,0,0,2.148,3.592c0,.034-.01.066-.01.1a1.387,1.387,0,0,0,1.386,1.386Zm5.338-4.851H24.768L27.694,16.2l2.377.792Zm-5.316-4.242a2.066,2.066,0,0,1,1.47-.608h1.13l-.565,2.091a3.432,3.432,0,0,0-2.322,1l-3.608,3.608a.777.777,0,0,1-1.327-.549.772.772,0,0,1,.228-.549Zm.693,3.465a2.057,2.057,0,0,1,.951-.536l-.355,1.313H21.959Zm9.29-16.491-.849,3.14L28.8,12.1l.8-2.943a1.145,1.145,0,0,1,1.1-.845h.225a1.143,1.143,0,0,1,1.1,1.441Zm-3.587,3.688,2.377.792-.383,1.414-2.377-.792Zm.855,12.2a.693.693,0,0,1,0,1.386h-.5l.375-1.386Zm0,0" transform="translate(0 0)" fill="#23147b"/>
      <path id="Trazado_98818" data-name="Trazado 98818" d="M50.017,80H32v6.93H50.017Zm-1.386,5.544H33.386V81.386H48.631Zm0,0" transform="translate(-29.228 -73.071)" fill="#23147b"/>
      <path id="Trazado_98819" data-name="Trazado 98819" d="M64,112h1.386v1.386H64Zm0,0" transform="translate(-58.456 -102.299)" fill="#23147b"/>
      <path id="Trazado_98820" data-name="Trazado 98820" d="M96,112h1.386v1.386H96Zm0,0" transform="translate(-87.685 -102.299)" fill="#23147b"/>
      <path id="Trazado_98821" data-name="Trazado 98821" d="M128,112h1.386v1.386H128Zm0,0" transform="translate(-116.913 -102.299)" fill="#23147b"/>
      <path id="Trazado_98822" data-name="Trazado 98822" d="M160,112h1.386v1.386H160Zm0,0" transform="translate(-146.141 -102.299)" fill="#23147b"/>
      <path id="Trazado_98823" data-name="Trazado 98823" d="M192,112h1.386v1.386H192Zm0,0" transform="translate(-175.369 -102.299)" fill="#23147b"/>
      <path id="Trazado_98824" data-name="Trazado 98824" d="M40.315,212.158H38.93v2.772H33.386v-5.544h4.158V208H32v8.315h8.315Zm0,0" transform="translate(-29.228 -189.983)" fill="#23147b"/>
      <path id="Trazado_98825" data-name="Trazado 98825" d="M66.659,178.344l-6.44,6.44-.9-.9-.98.98,1.876,1.876,7.419-7.419Zm0,0" transform="translate(-53.29 -162.896)" fill="#23147b"/>
      <path id="Trazado_98826" data-name="Trazado 98826" d="M38.93,350.93H33.386v-5.544h4.158V344H32v8.315h8.315v-4.158H38.93Zm0,0" transform="translate(-29.228 -314.203)" fill="#23147b"/>
      <path id="Trazado_98827" data-name="Trazado 98827" d="M59.324,319.888l-.98.98,1.876,1.876,7.419-7.419-.98-.98-6.44,6.44Zm0,0" transform="translate(-53.29 -287.116)" fill="#23147b"/>
      <path id="Trazado_98828" data-name="Trazado 98828" d="M256,440h1.386v1.386H256Zm0,0" transform="translate(-233.825 -401.888)" fill="#23147b"/>
      <path id="Trazado_98829" data-name="Trazado 98829" d="M152,440h7.622v1.386H152Zm0,0" transform="translate(-138.834 -401.888)" fill="#23147b"/>
      <path id="Trazado_98830" data-name="Trazado 98830" d="M168,216h9.008v1.386H168Zm0,0" transform="translate(-153.448 -197.29)" fill="#23147b"/>
    </g>
  </g>
</svg>
