<svg xmlns="http://www.w3.org/2000/svg" width="79" height="186.605" viewBox="0 0 79 186.605">
  <g id="Grupo_53321" data-name="Grupo 53321" transform="translate(-708.899 -776.877)">
    <g id="Grupo_53319" data-name="Grupo 53319" transform="translate(708.899 871.314)">
      <path id="Trazado_98685" data-name="Trazado 98685" d="M803.857,1363.186c-1.947.658-3.079,2.158-4.858,3.212a12.677,12.677,0,0,1-6.617,2.177,57.805,57.805,0,0,0-10.361.873c-3.555.686-7.429.514-10.469-1.725-2.558-1.885-3.43-5.088-4.261-8.111a4.352,4.352,0,0,1,1.057-4.2,21.57,21.57,0,0,1,7.146-5.08c2.09-1.062,2.413-2.516,1.563-4.366a3.13,3.13,0,0,0-4.464-1.667c-2.8,1.15-5.627,2.263-8.351,3.58-5.4,2.608-7.357,6.706-5.767,12.565a91.835,91.835,0,0,0,5.34,14.818c1.927,4.127,3.32,8.266,2.871,12.882-.318,5.164-.547,10.336-.974,15.491-.663,8-2.1,15.927-2.249,23.971-.058,3.1.994,4.98,4,5.25,2.215.2,4.151-1.1,4.861-4.311.892-4.037,1.532-20.436,2.692-24.415.293-1.006.657-1.874,1.936-1.792s2.25.585,2.444,1.99c.183,1.324,2.109,17.789,3.04,24.677.352,2.6,2.233,4,5.069,3.666,2.428-.284,3.1-2.108,3.272-4.2a11.9,11.9,0,0,0-.076-2.4c-.546-4.511-1.548-21.751-1.818-25.835-.371-5.606-.484-11.214-.994-16.809-.274-3,1.306-4.415,3.845-5.226.764-.244,1.544-.437,2.311-.672a30.9,30.9,0,0,0,13.667-8.512,3.343,3.343,0,0,0,.4-4.577C806.984,1362.636,805.4,1362.665,803.857,1363.186Z" transform="translate(-749.645 -1342.445)" fill="#fff"/>
      <path id="Trazado_98686" data-name="Trazado 98686" d="M823.145,1389.76c1.617,4.562,4.141,7.23,9.376,7.166,6.01-.073,9.185-2.821,9.519-9.255a26.523,26.523,0,0,0-.6-3.322c-1.917-4.44-6.6-6.668-9.12-5.287a40.815,40.815,0,0,0-7.677,4.8A4.815,4.815,0,0,0,823.145,1389.76Z" transform="translate(-803.466 -1371.289)" fill="#fff"/>
      <path id="Trazado_98687" data-name="Trazado 98687" d="M796.258,1354.018c-2.173.468-4.585,2.751-6.336,3.768-3.388,1.967-5.648,1.993-9.229,1.879-1.279-.041-2.075-.077-2.075-.077,3.1-3.792,2.846-6.81,2.649-9.669-.295-4.274-3.813-8.491-8.029-8.77a9.171,9.171,0,0,1-2.319-.319c0-4.227-3.646-6.588-6.857-5.425a61.363,61.363,0,0,0-9.311,4.137c-6.356,3.555-8.314,8.707-5.789,15.562,1.875,5.09,3.384,10.313,5.747,15.228a18.907,18.907,0,0,1,2.15,9.261c-.217,4.007-.319,8.023-.667,12.018-.788,9.054-1.7,18.1-2.555,27.146l-.094-.006c0,1.068-.033,2.137.006,3.2.1,2.784,2.125,4.632,5.581,5.139a5.124,5.124,0,0,0,5.475-3.16c1.324-3.831,1.3-7.872,1.67-11.847.422-4.517.325-9.088,1.438-13.531.169-.676.18-1.7.976-1.693.892.01,1.122.983,1.211,1.811.029.266.035.535.063.8.783,7.351,1.524,14.708,2.37,22.052.444,3.853,2.632,5.58,6.688,5.128,2.979-.331,5.071-2.052,4.764-6.21-1.359-14.916-1.018-28.352-2.67-42.337-.521-4.411-.119-4.757,4.043-6.108a39.407,39.407,0,0,0,4.724-1.84,34.631,34.631,0,0,0,11.094-8.224c1.754-1.959,1.133-4.034.1-5.957S798.43,1353.55,796.258,1354.018Zm-26.106-11.135c2.515-1.381,7.2.847,9.12,5.286a26.51,26.51,0,0,1,.6,3.322c-.333,6.434-3.509,9.181-9.519,9.255-5.235.064-7.759-2.6-9.376-7.166a4.815,4.815,0,0,1,1.5-5.9A40.81,40.81,0,0,1,770.152,1342.883Zm29.211,18.8a30.9,30.9,0,0,1-13.667,8.512c-.767.235-1.547.428-2.311.672-2.538.811-4.119,2.222-3.845,5.226.51,5.594.623,11.2.994,16.809.27,4.084,1.272,21.324,1.818,25.835a11.9,11.9,0,0,1,.076,2.4c-.174,2.092-.844,3.916-3.272,4.2-2.836.331-4.718-1.065-5.069-3.666-.931-6.888-2.857-23.353-3.04-24.677-.194-1.4-1.154-1.907-2.444-1.99s-1.642.786-1.936,1.792c-1.16,3.979-1.8,20.378-2.692,24.415-.71,3.212-2.646,4.51-4.861,4.311-3-.27-4.056-2.145-4-5.25.15-8.044,1.587-15.973,2.249-23.971.427-5.155.656-10.327.974-15.491.449-4.616-.944-8.755-2.871-12.882a91.847,91.847,0,0,1-5.34-14.818c-1.59-5.859.37-9.958,5.767-12.565,2.724-1.317,5.549-2.43,8.351-3.579a3.129,3.129,0,0,1,4.464,1.667c.85,1.85.527,3.3-1.563,4.366a21.573,21.573,0,0,0-7.146,5.08,4.352,4.352,0,0,0-1.057,4.2c.831,3.023,1.7,6.226,4.261,8.111,3.04,2.24,6.914,2.412,10.469,1.725a57.8,57.8,0,0,1,10.361-.873,12.677,12.677,0,0,0,6.617-2.177c1.779-1.053,2.911-2.554,4.858-3.212,1.543-.521,3.127-.55,4.255,1.252A3.343,3.343,0,0,1,799.363,1361.678Z" transform="translate(-741.296 -1335.109)"/>
      <path id="Trazado_98688" data-name="Trazado 98688" d="M1087.994,1450.255c-.275-.47-.545-1.042-1.156-.905-.718.161-.615.872-.381,1.295,1.385,2.5,1.09,4.9-.283,7.346C1089.02,1455.363,1089.523,1452.87,1087.994,1450.255Z" transform="translate(-1022.349 -1430.006)"/>
      <path id="Trazado_98689" data-name="Trazado 98689" d="M713.9,1368.925c-4.68,1.486-6.2,5.578-4.024,10.611C709.42,1375.072,709.957,1371.642,713.9,1368.925Z" transform="translate(-708.899 -1363.204)"/>
      <path id="Trazado_98690" data-name="Trazado 98690" d="M733.806,1870.53c-.483.027-.889.1-.941.666a.6.6,0,0,0,.6.71c1.948-.061,4.011.838,6.212-.82A20.184,20.184,0,0,0,733.806,1870.53Z" transform="translate(-728.807 -1779.927)"/>
      <path id="Trazado_98691" data-name="Trazado 98691" d="M964.089,1869.651c-.483.027-.889.1-.941.666a.6.6,0,0,0,.6.711c1.948-.061,4.011.838,6.212-.82A20.187,20.187,0,0,0,964.089,1869.651Z" transform="translate(-920.133 -1779.196)"/>
    </g>
    <g id="Grupo_53320" data-name="Grupo 53320" transform="translate(740.665 776.877)">
      <path id="Trazado_98692" data-name="Trazado 98692" d="M923.1,1189.393c-.047-.327-.089-.655-.133-.982C923.014,1188.739,923.057,1189.066,923.1,1189.393Z" transform="translate(-918.522 -1118.791)" fill="#d7fffa"/>
      <path id="Trazado_98693" data-name="Trazado 98693" d="M1168.795,871.5c-.005.107-.009.215-.018.321C1168.786,871.711,1168.789,871.6,1168.795,871.5Z" transform="translate(-1122.745 -855.489)" fill="#d7fffa"/>
      <path id="Trazado_98694" data-name="Trazado 98694" d="M936.714,861.208c3.242-2.034,5.592-5.585,7.172-8.98a93.865,93.865,0,0,0,4-11.249,259.583,259.583,0,0,0,7.034-26.8q1.171-5.757,2.091-11.56a7.538,7.538,0,0,0-2.211-3.672c-2.707-2.333-5.433-3.378-8.968-4.411a39.233,39.233,0,0,0-26.763,1.2,6.588,6.588,0,0,0-3.63,4.033c-1.636,5.288-.946,10.772-1,16.159-.069,6.716.238,13.434.255,20.151.018,6.773.058,13.542.723,20.276,2.189,2.451,4.514,4.815,7.657,6.045A14.675,14.675,0,0,0,936.714,861.208Zm-4.031.418c-3.821-.587-7.048-4.569-6.4-8.451.7-4.211,3.046-7.077,7.906-6.229,4.209.821,6.355,4.055,5.6,8.383C939.019,859.739,936.059,862.144,932.683,861.626Zm-8.149-54.594a24.97,24.97,0,0,1,.113-3.921,3.147,3.147,0,0,1,2.148-2.742,19.69,19.69,0,0,1,15.512.193c2.134.947,3.065,2.42,2.549,4.76-.281,1.276-.459,2.575-.684,3.863-1.734,10.063-2.43,20.245-3.515,30.38-.3,2.834-1.564,4.124-4.392,3.981-2-.1-4.068.01-6.055-.265a3.3,3.3,0,0,1-2.643-2.26c-.919-2.14-.884-4.891-1.073-7.119C925.737,824.954,925.144,815.992,924.534,807.032Z" transform="translate(-911.354 -790.066)" fill="#e4e0ff"/>
      <path id="Trazado_98695" data-name="Trazado 98695" d="M921.834,1179.206q-.082-.649-.155-1.3C921.728,1178.339,921.779,1178.773,921.834,1179.206Z" transform="translate(-917.449 -1110.063)" fill="#d7fffa"/>
      <path id="Trazado_98696" data-name="Trazado 98696" d="M1168.954,867.524c0,.154,0,.308,0,.46C1168.957,867.832,1168.956,867.678,1168.954,867.524Z" transform="translate(-1122.891 -852.189)" fill="#d7fffa"/>
      <path id="Trazado_98697" data-name="Trazado 98697" d="M920.857,1170.18q-.079-.711-.15-1.423Q920.777,1169.469,920.857,1170.18Z" transform="translate(-916.642 -1102.462)" fill="#d7fffa"/>
      <path id="Trazado_98698" data-name="Trazado 98698" d="M1166.592,851.1a10.669,10.669,0,0,1,.4,2.7A10.651,10.651,0,0,0,1166.592,851.1Z" transform="translate(-1120.93 -838.548)" fill="#d7fffa"/>
      <path id="Trazado_98699" data-name="Trazado 98699" d="M989.511,879.691a16.7,16.7,0,0,1,3.44.015c1.869.426,2.832-.429,3.212-2.131a24.073,24.073,0,0,0,.343-2.593q1.328-11.973,2.647-23.946a68.24,68.24,0,0,0,1.327-8.272,2.887,2.887,0,0,0-2.041-3.176,17.7,17.7,0,0,0-13.493-.265c-1.495.534-1.743,1.621-1.778,3.094-.12,5.08.76,10.082,1,15.132a187,187,0,0,0,1.636,18.929A3.357,3.357,0,0,0,989.511,879.691Z" transform="translate(-968.526 -827.757)" fill="#9a4cbc"/>
      <path id="Trazado_98700" data-name="Trazado 98700" d="M999.6,1120.263c-2.492-.562-5.542,1.809-6.124,5.143-.529,3.035,2.089,6.04,5.314,6.671,2.163.423,4.844-1.776,5.444-4.851C1004.8,1124.3,1002.346,1120.883,999.6,1120.263Z" transform="translate(-977.041 -1062.103)" fill="#9a4cbc"/>
      <path id="Trazado_98701" data-name="Trazado 98701" d="M958.794,884.107c1.168-8.807,2.47-18.769,3.822-28.724q.035-.259.057-.523c.009-.106.013-.214.018-.321,0-.071.009-.141.012-.212,0-.153,0-.306,0-.46,0-.026,0-.052,0-.078a10.666,10.666,0,0,0-.4-2.7v0q-.929,5.8-2.091,11.56a259.6,259.6,0,0,1-7.034,26.8,93.855,93.855,0,0,1-4,11.249c-1.58,3.4-3.931,6.946-7.172,8.98a14.675,14.675,0,0,1-13.638,1.2c-3.143-1.231-5.468-3.594-7.657-6.045v0q.07.712.15,1.423l.015.125q.073.65.155,1.3c.02.159.042.318.063.478.043.328.086.655.133.982q.108.756.228,1.512c.707,4.405,2.523,6.315,6.773,7.147a34.712,34.712,0,0,0,4.4.582c5.479.358,10.96.71,16.445.95,2.276.1,3.972-.68,4.566-3.295C955.939,905.871,956.653,895.467,958.794,884.107Z" transform="translate(-916.641 -838.532)" fill="#cac3f5"/>
      <path id="Trazado_98702" data-name="Trazado 98702" d="M946.626,835.246c1.97-12.075,3.808-24.168,4.738-36.37a9.943,9.943,0,0,0-4.638-9.353c-4.532-3.113-10.621-4.363-15.888-5.061-14.657-.392-22.435,3.655-23.707,6.527a16.4,16.4,0,0,0-1.216,6.437c-.45,10.474-.1,20.942.01,31.414.1,8.994.119,17.987,1.519,26.894.822,5.23,3.564,7.773,8.832,8.485a64.371,64.371,0,0,0,6.522.536c1.648.054,2.324.641,2.256,2.371-.163,4.186-.2,8.378-.239,12.568-.129,12.484-.266,24.967-.326,37.451-.011,2.206-.445,16.484.374,18.781,1.16-.616.959-1.381.969-2.043.118-7.766.228-27.544.325-35.311.131-10.559.274-21.118.342-31.677a4.281,4.281,0,0,1,.29-1.8c2.948.446,5.66.261,10.183.428,2.647.5,4.832-1.231,5.571-3.858a26.917,26.917,0,0,0,.683-3.335C944.363,850.633,945.374,842.92,946.626,835.246Zm-5.469,25.409c-.594,2.615-2.289,3.394-4.566,3.295-5.485-.24-10.966-.592-16.445-.95a34.714,34.714,0,0,1-4.4-.582c-4.25-.833-6.065-2.742-6.773-7.147q-.121-.755-.228-1.512c-.047-.327-.089-.655-.133-.982-.021-.159-.043-.318-.063-.478q-.082-.649-.155-1.3l-.015-.125q-.08-.711-.15-1.423v0c-.665-6.733-.705-13.5-.723-20.276-.018-6.718-.325-13.436-.255-20.151.055-5.386-.635-10.871,1-16.159a6.588,6.588,0,0,1,3.63-4.033,39.233,39.233,0,0,1,26.763-1.2c3.535,1.033,6.261,2.078,8.968,4.411a7.538,7.538,0,0,1,2.211,3.672v0a10.654,10.654,0,0,1,.4,2.7c0,.026,0,.052,0,.078,0,.154,0,.308,0,.46,0,.071-.008.141-.012.212-.006.107-.009.215-.018.321q-.022.265-.057.523c-1.351,9.955-2.653,19.916-3.822,28.724C944.177,840.091,943.463,850.495,941.157,860.654Z" transform="translate(-904.165 -783.156)"/>
      <path id="Trazado_98703" data-name="Trazado 98703" d="M903.452,776.877c-5.248.221-7.939,6.1-6.3,11.521C897.546,783.273,899.215,779.368,903.452,776.877Z" transform="translate(-896.675 -776.877)"/>
      <path id="Trazado_98704" data-name="Trazado 98704" d="M980.078,873.342c1.988.276,4.056.164,6.056.265,2.827.143,4.088-1.147,4.392-3.981,1.085-10.135,1.781-20.316,3.515-30.38.225-1.289.4-2.587.684-3.863.516-2.34-.415-3.813-2.549-4.76a19.69,19.69,0,0,0-15.512-.193,3.147,3.147,0,0,0-2.148,2.742,24.963,24.963,0,0,0-.114,3.921c.61,8.96,1.2,17.922,1.96,26.87.189,2.228.153,4.98,1.073,7.119A3.3,3.3,0,0,0,980.078,873.342Zm-3.211-23.423c-.244-5.05-1.124-10.052-1-15.132.035-1.473.284-2.561,1.778-3.094a17.7,17.7,0,0,1,13.493.265,2.887,2.887,0,0,1,2.041,3.176,68.19,68.19,0,0,1-1.327,8.272q-1.322,11.973-2.647,23.946a24.041,24.041,0,0,1-.343,2.593c-.38,1.7-1.343,2.557-3.212,2.131a16.712,16.712,0,0,0-3.44-.015,3.357,3.357,0,0,1-3.7-3.214A187,187,0,0,1,976.868,849.919Z" transform="translate(-961.223 -820.128)"/>
      <path id="Trazado_98705" data-name="Trazado 98705" d="M992.4,1112.366c-4.859-.848-7.207,2.019-7.906,6.229-.644,3.883,2.583,7.865,6.4,8.452,3.376.518,6.336-1.887,7.1-6.3C998.754,1116.421,996.608,1113.187,992.4,1112.366Zm-1.084,13.095c-3.225-.631-5.843-3.636-5.314-6.671.582-3.334,3.632-5.705,6.124-5.143,2.749.62,5.2,4.038,4.634,6.963C996.159,1123.685,993.478,1125.884,991.315,1125.461Z" transform="translate(-969.569 -1055.487)"/>
    </g>
  </g>
</svg>
