<svg xmlns="http://www.w3.org/2000/svg" width="1088" height="160" viewBox="0 0 1088 160">
  <g id="Grupo_53533" data-name="Grupo 53533" transform="translate(-139 -11823)">
    <g id="Grupo_53531" data-name="Grupo 53531">
      <rect id="Rectángulo_4817" data-name="Rectángulo 4817" width="260" height="40" transform="translate(139 11823)" fill="#cac3f5"/>
      <rect id="Rectángulo_4847" data-name="Rectángulo 4847" width="828" height="40" transform="translate(399 11823)" fill="#e4e0ff"/>
      <rect id="Rectángulo_4818" data-name="Rectángulo 4818" width="260" height="120" transform="translate(139 11863)" fill="#f6f6f6"/>
      <g id="Rectángulo_4816" data-name="Rectángulo 4816" transform="translate(139 11823)" fill="none" stroke="#727997" stroke-width="1">
        <rect width="1088" height="160" stroke="none"/>
        <rect x="0.5" y="0.5" width="1087" height="159" fill="none"/>
      </g>
      <line id="Línea_123" data-name="Línea 123" x2="1088" transform="translate(139 11903)" fill="none" stroke="#707070" stroke-width="1"/>
      <line id="Línea_126" data-name="Línea 126" x2="1088" transform="translate(139 11863)" fill="none" stroke="#707070" stroke-width="1"/>
      <line id="Línea_124" data-name="Línea 124" x2="1088" transform="translate(139 11943)" fill="none" stroke="#707070" stroke-width="1"/>
      <line id="Línea_128" data-name="Línea 128" y2="40" transform="translate(675.5 11863)" fill="none" stroke="#707070" stroke-width="1"/>
      <line id="Línea_134" data-name="Línea 134" y2="40" transform="translate(564.5 11943)" fill="none" stroke="#707070" stroke-width="1"/>
      <line id="Línea_135" data-name="Línea 135" y2="40" transform="translate(730.5 11943)" fill="none" stroke="#707070" stroke-width="1"/>
      <line id="Línea_136" data-name="Línea 136" y2="40" transform="translate(924.5 11943)" fill="none" stroke="#707070" stroke-width="1"/>
      <line id="Línea_137" data-name="Línea 137" y2="40" transform="translate(1061.5 11943)" fill="none" stroke="#707070" stroke-width="1"/>
      <line id="Línea_132" data-name="Línea 132" y2="40" transform="translate(813.5 11903)" fill="none" stroke="#707070" stroke-width="1"/>
      <line id="Línea_129" data-name="Línea 129" y2="40" transform="translate(951.5 11863)" fill="none" stroke="#707070" stroke-width="1"/>
      <path id="Trazado_99255" data-name="Trazado 99255" d="M1.02,0V-12.8H5.7a5.219,5.219,0,0,1,3.779,1.472A5.025,5.025,0,0,1,11-7.55v2.3A5.021,5.021,0,0,1,9.483-1.468,5.228,5.228,0,0,1,5.7,0ZM3.99-10.512v8.227H5.7A2.036,2.036,0,0,0,7.37-3.111a3.335,3.335,0,0,0,.655-2.136v-2.32A3.306,3.306,0,0,0,7.37-9.686,2.036,2.036,0,0,0,5.7-10.512ZM15.715,0H12.735V-9.51h2.979Zm0-11.716H12.735v-2h2.979ZM20.329-9.51l.105,1.257a3.146,3.146,0,0,1,1.129-1.059,3.191,3.191,0,0,1,1.56-.374,2.907,2.907,0,0,1,1.529.387,2.376,2.376,0,0,1,.967,1.178A3.192,3.192,0,0,1,26.75-9.277a3.105,3.105,0,0,1,1.613-.409,2.641,2.641,0,0,1,2.184,1,4.89,4.89,0,0,1,.8,3.072V0H28.362V-5.616a2.47,2.47,0,0,0-.286-1.4A1,1,0,0,0,27.22-7.4a1.779,1.779,0,0,0-.76.154,1.6,1.6,0,0,0-.558.426q0,.149.009.259t.009.215V0H22.948V-5.616a2.5,2.5,0,0,0-.281-1.406A1.014,1.014,0,0,0,21.8-7.4a1.714,1.714,0,0,0-.734.154,1.6,1.6,0,0,0-.558.426V0H17.534V-9.51ZM37.257.185a4.415,4.415,0,0,1-3.388-1.31,4.657,4.657,0,0,1-1.226-3.313v-.334A5.321,5.321,0,0,1,33.8-8.323a4.106,4.106,0,0,1,3.344-1.362,3.851,3.851,0,0,1,2.984,1.151,4.482,4.482,0,0,1,1.059,3.155v1.556H35.736l-.018.053a1.847,1.847,0,0,0,.554,1.208,1.934,1.934,0,0,0,1.389.461,6.019,6.019,0,0,0,1.419-.141,8.948,8.948,0,0,0,1.3-.448l.712,1.811a5.436,5.436,0,0,1-1.652.756A7.626,7.626,0,0,1,37.257.185ZM37.143-7.4a1.226,1.226,0,0,0-1.05.453A2.271,2.271,0,0,0,35.7-5.722l.018.044h2.566v-.229a1.976,1.976,0,0,0-.259-1.116A.994.994,0,0,0,37.143-7.4ZM45.176-9.51l.114,1.336a3.443,3.443,0,0,1,1.151-1.112,2.979,2.979,0,0,1,1.529-.4,2.681,2.681,0,0,1,2.184.949,4.7,4.7,0,0,1,.787,3.015V0H47.971V-5.73a2.179,2.179,0,0,0-.29-1.288.994.994,0,0,0-.844-.382,2.088,2.088,0,0,0-.853.167,1.7,1.7,0,0,0-.633.475V0H42.39V-9.51Zm12.34,6.838a.775.775,0,0,0-.4-.628,4.313,4.313,0,0,0-1.455-.5,5.742,5.742,0,0,1-2.5-1.006,2.28,2.28,0,0,1-.844-1.876,2.674,2.674,0,0,1,1.055-2.131,4.338,4.338,0,0,1,2.856-.875,4.905,4.905,0,0,1,3.023.848,2.494,2.494,0,0,1,1.072,2.193l-.018.053H57.419a1.178,1.178,0,0,0-.281-.853,1.244,1.244,0,0,0-.923-.29,1.207,1.207,0,0,0-.782.255.8.8,0,0,0-.316.65.774.774,0,0,0,.365.642,4.126,4.126,0,0,0,1.472.475,5.914,5.914,0,0,1,2.584,1.024,2.348,2.348,0,0,1,.835,1.929A2.519,2.519,0,0,1,59.234-.646a4.992,4.992,0,0,1-3.01.831A4.514,4.514,0,0,1,53.152-.8,2.712,2.712,0,0,1,52.075-3l.018-.053h2.689a1.192,1.192,0,0,0,.409.976,1.8,1.8,0,0,0,1.112.3,1.484,1.484,0,0,0,.905-.233A.783.783,0,0,0,57.516-2.672ZM64.881,0H61.9V-9.51h2.979Zm0-11.716H61.9v-2h2.979ZM66.3-4.843a5.027,5.027,0,0,1,1.213-3.494A4.317,4.317,0,0,1,70.9-9.686a4.327,4.327,0,0,1,3.393,1.349,5.027,5.027,0,0,1,1.213,3.494v.185a5.023,5.023,0,0,1-1.213,3.5A4.313,4.313,0,0,1,70.919.185a4.346,4.346,0,0,1-3.4-1.345,5.023,5.023,0,0,1-1.213-3.5Zm2.971.185a3.932,3.932,0,0,0,.374,1.876,1.329,1.329,0,0,0,1.27.681,1.313,1.313,0,0,0,1.248-.686,3.9,3.9,0,0,0,.378-1.872v-.185A3.912,3.912,0,0,0,72.167-6.7,1.324,1.324,0,0,0,70.9-7.4a1.305,1.305,0,0,0-1.252.7,3.956,3.956,0,0,0-.374,1.854ZM79.55-9.51l.114,1.336a3.443,3.443,0,0,1,1.151-1.112,2.979,2.979,0,0,1,1.529-.4,2.681,2.681,0,0,1,2.184.949,4.7,4.7,0,0,1,.787,3.015V0H82.345V-5.73a2.179,2.179,0,0,0-.29-1.288.994.994,0,0,0-.844-.382,2.088,2.088,0,0,0-.853.167,1.7,1.7,0,0,0-.633.475V0H76.764V-9.51ZM91.151.185a4.415,4.415,0,0,1-3.388-1.31,4.657,4.657,0,0,1-1.226-3.313v-.334a5.321,5.321,0,0,1,1.156-3.551,4.106,4.106,0,0,1,3.344-1.362,3.851,3.851,0,0,1,2.984,1.151A4.482,4.482,0,0,1,95.08-5.379v1.556H89.631l-.018.053a1.847,1.847,0,0,0,.554,1.208,1.934,1.934,0,0,0,1.389.461,6.019,6.019,0,0,0,1.419-.141,8.948,8.948,0,0,0,1.3-.448l.712,1.811a5.436,5.436,0,0,1-1.652.756A7.626,7.626,0,0,1,91.151.185ZM91.037-7.4a1.226,1.226,0,0,0-1.05.453A2.271,2.271,0,0,0,89.6-5.722l.018.044H92.18v-.229a1.976,1.976,0,0,0-.259-1.116A.994.994,0,0,0,91.037-7.4Zm10.257,4.729a.775.775,0,0,0-.4-.628,4.313,4.313,0,0,0-1.455-.5,5.742,5.742,0,0,1-2.5-1.006,2.28,2.28,0,0,1-.844-1.876,2.674,2.674,0,0,1,1.055-2.131A4.338,4.338,0,0,1,100-9.686a4.905,4.905,0,0,1,3.023.848A2.494,2.494,0,0,1,104.1-6.645l-.018.053H101.2a1.178,1.178,0,0,0-.281-.853,1.244,1.244,0,0,0-.923-.29,1.207,1.207,0,0,0-.782.255.8.8,0,0,0-.316.65.774.774,0,0,0,.365.642,4.126,4.126,0,0,0,1.472.475,5.914,5.914,0,0,1,2.584,1.024,2.348,2.348,0,0,1,.835,1.929,2.519,2.519,0,0,1-1.138,2.114A4.992,4.992,0,0,1,100,.185,4.514,4.514,0,0,1,96.93-.8,2.712,2.712,0,0,1,95.854-3l.018-.053h2.689a1.192,1.192,0,0,0,.409.976,1.8,1.8,0,0,0,1.112.3,1.484,1.484,0,0,0,.905-.233A.783.783,0,0,0,101.294-2.672Z" transform="translate(215 11849)" fill="#12263f"/>
      <path id="Trazado_99256" data-name="Trazado 99256" d="M7.547-5H3.328v3.25H8.344V0h-7.3V-11.375H8.328v1.758h-5v2.859H7.547Zm4.313-3.453.1,1.211A3.092,3.092,0,0,1,13-8.25a2.7,2.7,0,0,1,1.383-.359,2.513,2.513,0,0,1,2,.824A3.908,3.908,0,0,1,17.1-5.18V0H14.813V-5.172A2.024,2.024,0,0,0,14.5-6.457a1.166,1.166,0,0,0-.949-.379,1.992,1.992,0,0,0-.895.191,1.746,1.746,0,0,0-.637.527V0H9.734V-8.453ZM19.4,0V-6.852H18.141v-1.6H19.4v-.937a2.859,2.859,0,0,1,.82-2.191,3.239,3.239,0,0,1,2.3-.77,4.168,4.168,0,0,1,.59.043q.3.043.66.121l-.2,1.7q-.187-.031-.363-.055a3.144,3.144,0,0,0-.41-.023,1.1,1.1,0,0,0-.84.3,1.234,1.234,0,0,0-.285.875v.938H23.3v1.6H21.68V0Zm4.633-4.3a4.536,4.536,0,0,1,1.055-3.1,3.676,3.676,0,0,1,2.922-1.207,3.715,3.715,0,0,1,2.938,1.2,4.512,4.512,0,0,1,1.063,3.1v.164a4.519,4.519,0,0,1-1.059,3.105,3.7,3.7,0,0,1-2.926,1.2,3.709,3.709,0,0,1-2.934-1.2,4.519,4.519,0,0,1-1.059-3.105Zm2.273.164a3.677,3.677,0,0,0,.406,1.855,1.4,1.4,0,0,0,1.313.7,1.389,1.389,0,0,0,1.293-.7,3.653,3.653,0,0,0,.41-1.852V-4.3a3.616,3.616,0,0,0-.414-1.836,1.4,1.4,0,0,0-1.3-.711,1.384,1.384,0,0,0-1.293.715A3.648,3.648,0,0,0,26.3-4.3Zm6.758-.016a5.493,5.493,0,0,1,.863-3.227,2.8,2.8,0,0,1,2.434-1.227,2.413,2.413,0,0,1,1.234.309,2.766,2.766,0,0,1,.914.887l.211-1.039h1.938V3.25H38.375V-.789a2.515,2.515,0,0,1-.879.711,2.629,2.629,0,0,1-1.152.242A2.858,2.858,0,0,1,33.926-.977a4.871,4.871,0,0,1-.863-3.016Zm2.273.164a3.511,3.511,0,0,0,.375,1.758,1.3,1.3,0,0,0,1.219.648,1.836,1.836,0,0,0,.859-.187,1.512,1.512,0,0,0,.586-.547V-6.07a1.607,1.607,0,0,0-.582-.578,1.681,1.681,0,0,0-.848-.2,1.286,1.286,0,0,0-1.223.75,4.244,4.244,0,0,0-.387,1.945ZM47.625-1.25A2.87,2.87,0,0,1,46.633-.2a2.63,2.63,0,0,1-1.4.367,2.57,2.57,0,0,1-2.09-.906,4.347,4.347,0,0,1-.754-2.812v-4.9h2.273v4.914a2.729,2.729,0,0,0,.3,1.52,1.081,1.081,0,0,0,.934.41,2.273,2.273,0,0,0,.938-.176,1.58,1.58,0,0,0,.641-.52V-8.453h2.281V0H47.867ZM55.141.164A3.8,3.8,0,0,1,52.188-1a4.252,4.252,0,0,1-1.062-2.988V-4.3a4.628,4.628,0,0,1,1.031-3.109,3.506,3.506,0,0,1,2.836-1.2,3.282,3.282,0,0,1,2.613,1.043,4.122,4.122,0,0,1,.91,2.809v1.18H53.477l-.023.047a2.284,2.284,0,0,0,.527,1.406,1.766,1.766,0,0,0,1.4.539,4.692,4.692,0,0,0,1.3-.156,5.307,5.307,0,0,0,1.105-.477l.617,1.406a4.234,4.234,0,0,1-1.375.7A6.1,6.1,0,0,1,55.141.164Zm-.148-7.016a1.267,1.267,0,0,0-1.059.473,2.371,2.371,0,0,0-.449,1.254l.016.039h2.781v-.172a1.974,1.974,0,0,0-.3-1.168A1.127,1.127,0,0,0,54.992-6.852Z" transform="translate(215 11889)" fill="#12263f"/>
      <path id="Trazado_99259" data-name="Trazado 99259" d="M7.539-5.273H2.867V-1.2H8.336V0H1.328V-11.375H8.25v1.211H2.867v3.68H7.539Zm3.781-3.18L11.43-7.2a3.069,3.069,0,0,1,1.059-1.043,2.824,2.824,0,0,1,1.449-.371,2.759,2.759,0,0,1,2.117.8,3.515,3.515,0,0,1,.75,2.473V0H15.266V-5.3a2.287,2.287,0,0,0-.441-1.586,1.768,1.768,0,0,0-1.348-.469,2.386,2.386,0,0,0-1.207.285,2.072,2.072,0,0,0-.785.8V0H9.945V-8.453ZM19.68,0V-7.312h-1.32V-8.453h1.32v-1.07a2.9,2.9,0,0,1,.707-2.09,2.6,2.6,0,0,1,1.973-.738,3.4,3.4,0,0,1,.535.043q.27.043.6.121L23.3-11.016q-.141-.031-.34-.055a3.579,3.579,0,0,0-.418-.023,1.215,1.215,0,0,0-1,.4,1.809,1.809,0,0,0-.328,1.168v1.07H22.75v1.141H21.219V0Zm4.266-4.3a4.654,4.654,0,0,1,1.016-3.09,3.406,3.406,0,0,1,2.758-1.215A3.439,3.439,0,0,1,30.5-7.4,4.639,4.639,0,0,1,31.516-4.3v.172A4.631,4.631,0,0,1,30.5-1.039a3.429,3.429,0,0,1-2.766,1.2,3.436,3.436,0,0,1-2.77-1.207,4.623,4.623,0,0,1-1.02-3.09Zm1.539.172a4.009,4.009,0,0,0,.566,2.219,1.875,1.875,0,0,0,1.684.875,1.87,1.87,0,0,0,1.672-.875,3.988,3.988,0,0,0,.57-2.219V-4.3A3.976,3.976,0,0,0,29.4-6.516,1.882,1.882,0,0,0,27.719-7.4a1.856,1.856,0,0,0-1.668.883A4.018,4.018,0,0,0,25.484-4.3Zm7.563.063a5.641,5.641,0,0,1,.871-3.289,2.807,2.807,0,0,1,2.441-1.25,2.984,2.984,0,0,1,1.352.293,2.8,2.8,0,0,1,1,.848l.219-.984h1.18V3.25H38.57V-.8a2.637,2.637,0,0,1-.961.719,3.135,3.135,0,0,1-1.266.242A2.9,2.9,0,0,1,33.922-.957a4.659,4.659,0,0,1-.875-2.949Zm1.539.164a3.684,3.684,0,0,0,.527,2.074,1.811,1.811,0,0,0,1.621.793,2,2,0,0,0,1.082-.281,2.312,2.312,0,0,0,.754-.789V-6.375a2.329,2.329,0,0,0-.754-.75A2.011,2.011,0,0,0,36.75-7.4a1.754,1.754,0,0,0-1.633.934,4.8,4.8,0,0,0-.531,2.395ZM47.859-1.25A2.863,2.863,0,0,1,46.836-.2a2.8,2.8,0,0,1-1.445.367,2.716,2.716,0,0,1-2.156-.883,4.1,4.1,0,0,1-.773-2.75V-8.453H44v5a3.147,3.147,0,0,0,.4,1.859,1.481,1.481,0,0,0,1.242.508A2.531,2.531,0,0,0,47-1.418a2.077,2.077,0,0,0,.809-.941V-8.453h1.539V0H47.961ZM55.086.164A3.576,3.576,0,0,1,52.246-1a4.48,4.48,0,0,1-1.02-3.062v-.344a4.386,4.386,0,0,1,1.051-3.012,3.3,3.3,0,0,1,2.566-1.191,3.067,3.067,0,0,1,2.543,1.055,4.345,4.345,0,0,1,.848,2.8v.813H52.828L52.8-3.9a3.494,3.494,0,0,0,.563,2.066,1.965,1.965,0,0,0,1.719.793,3.872,3.872,0,0,0,1.371-.223,3.061,3.061,0,0,0,1.012-.613l.6,1a3.7,3.7,0,0,1-1.2.738A4.762,4.762,0,0,1,55.086.164ZM54.844-7.4a1.673,1.673,0,0,0-1.332.621,2.938,2.938,0,0,0-.645,1.59l.016.039H56.7v-.125A2.462,2.462,0,0,0,56.242-6.8,1.638,1.638,0,0,0,54.844-7.4ZM68.852-2.273a1.026,1.026,0,0,0-.387-.828A3.732,3.732,0,0,0,67-3.664a6.146,6.146,0,0,1-2.293-.9,1.814,1.814,0,0,1-.8-1.547,2.229,2.229,0,0,1,.879-1.766,3.433,3.433,0,0,1,2.277-.734,3.4,3.4,0,0,1,2.328.781,2.239,2.239,0,0,1,.852,1.82l-.016.047H68.758a1.331,1.331,0,0,0-.48-.992A1.717,1.717,0,0,0,67.063-7.4a1.751,1.751,0,0,0-1.215.367,1.146,1.146,0,0,0-.4.875.927.927,0,0,0,.348.773,3.848,3.848,0,0,0,1.434.5,6.058,6.058,0,0,1,2.359.93,1.872,1.872,0,0,1,.8,1.57,2.226,2.226,0,0,1-.91,1.836A3.754,3.754,0,0,1,67.1.164a3.715,3.715,0,0,1-2.547-.82,2.341,2.341,0,0,1-.883-1.914l.016-.047h1.469a1.424,1.424,0,0,0,.609,1.2,2.358,2.358,0,0,0,1.336.379,2.1,2.1,0,0,0,1.285-.348A1.063,1.063,0,0,0,68.852-2.273ZM73.969,0H72.43V-8.453h1.539Zm0-10.617H72.43v-1.57h1.539ZM81.25-2.273a1.026,1.026,0,0,0-.387-.828A3.732,3.732,0,0,0,79.4-3.664a6.146,6.146,0,0,1-2.293-.9,1.814,1.814,0,0,1-.8-1.547,2.229,2.229,0,0,1,.879-1.766,3.433,3.433,0,0,1,2.277-.734,3.4,3.4,0,0,1,2.328.781,2.239,2.239,0,0,1,.852,1.82l-.016.047H81.156a1.331,1.331,0,0,0-.48-.992A1.717,1.717,0,0,0,79.461-7.4a1.751,1.751,0,0,0-1.215.367,1.146,1.146,0,0,0-.4.875.927.927,0,0,0,.348.773,3.848,3.848,0,0,0,1.434.5,6.058,6.058,0,0,1,2.359.93,1.872,1.872,0,0,1,.8,1.57,2.226,2.226,0,0,1-.91,1.836A3.754,3.754,0,0,1,79.5.164a3.715,3.715,0,0,1-2.547-.82A2.341,2.341,0,0,1,76.07-2.57l.016-.047h1.469a1.424,1.424,0,0,0,.609,1.2,2.358,2.358,0,0,0,1.336.379,2.1,2.1,0,0,0,1.285-.348A1.063,1.063,0,0,0,81.25-2.273Zm5.594-8.219v2.039h1.6v1.141h-1.6V-2.18a1.149,1.149,0,0,0,.246.836.89.89,0,0,0,.652.242,1.43,1.43,0,0,0,.3-.035,2.2,2.2,0,0,0,.273-.074l.211,1.055a1.36,1.36,0,0,1-.508.23,2.562,2.562,0,0,1-.664.09A1.993,1.993,0,0,1,85.859-.4,2.46,2.46,0,0,1,85.3-2.18V-7.312H83.961V-8.453H85.3v-2.039ZM93.594.164A3.576,3.576,0,0,1,90.754-1a4.48,4.48,0,0,1-1.02-3.062v-.344a4.386,4.386,0,0,1,1.051-3.012,3.3,3.3,0,0,1,2.566-1.191,3.067,3.067,0,0,1,2.543,1.055,4.345,4.345,0,0,1,.848,2.8v.813H91.336l-.023.039a3.494,3.494,0,0,0,.563,2.066,1.965,1.965,0,0,0,1.719.793,3.872,3.872,0,0,0,1.371-.223,3.061,3.061,0,0,0,1.012-.613l.6,1a3.7,3.7,0,0,1-1.2.738A4.762,4.762,0,0,1,93.594.164ZM93.352-7.4a1.673,1.673,0,0,0-1.332.621,2.938,2.938,0,0,0-.645,1.59l.016.039H95.2v-.125A2.462,2.462,0,0,0,94.75-6.8,1.638,1.638,0,0,0,93.352-7.4Zm.578-4.648h1.8l.016.047-2.1,2.031H92.484Zm5.914,3.594.109,1.109A2.871,2.871,0,0,1,101-8.277a3.158,3.158,0,0,1,1.48-.332,2.615,2.615,0,0,1,1.449.391,2.363,2.363,0,0,1,.91,1.172A3.162,3.162,0,0,1,105.9-8.191a2.769,2.769,0,0,1,1.527-.418,2.531,2.531,0,0,1,2.039.887,4.051,4.051,0,0,1,.75,2.668V0H108.68V-5.07a2.81,2.81,0,0,0-.43-1.77,1.567,1.567,0,0,0-1.281-.52,1.631,1.631,0,0,0-1.277.547,2.381,2.381,0,0,0-.574,1.383V0H103.57V-5.07a2.772,2.772,0,0,0-.441-1.738,1.532,1.532,0,0,0-1.27-.551,2.115,2.115,0,0,0-1.156.289,1.867,1.867,0,0,0-.7.813V0H98.469V-8.453ZM114.117,0h-1.539V-8.453h1.539Zm0-10.617h-1.539v-1.57h1.539Zm5.727,9.578a1.81,1.81,0,0,0,1.242-.473,1.494,1.494,0,0,0,.531-1.16h1.391l.023.047a2.428,2.428,0,0,1-.937,1.941,3.313,3.313,0,0,1-2.25.848,3.319,3.319,0,0,1-2.75-1.211,4.674,4.674,0,0,1-.969-3.016v-.328a4.654,4.654,0,0,1,.973-3,3.317,3.317,0,0,1,2.746-1.215,3.189,3.189,0,0,1,2.316.875,2.775,2.775,0,0,1,.871,2.148l-.016.047h-1.4a1.865,1.865,0,0,0-.5-1.316,1.658,1.658,0,0,0-1.27-.543,1.777,1.777,0,0,0-1.652.879,4.114,4.114,0,0,0-.52,2.129v.328a4.192,4.192,0,0,0,.512,2.148A1.776,1.776,0,0,0,119.844-1.039ZM124.5-4.3a4.654,4.654,0,0,1,1.016-3.09,3.406,3.406,0,0,1,2.758-1.215A3.439,3.439,0,0,1,131.051-7.4,4.639,4.639,0,0,1,132.07-4.3v.172a4.631,4.631,0,0,1-1.016,3.094,3.429,3.429,0,0,1-2.766,1.2,3.436,3.436,0,0,1-2.77-1.207,4.623,4.623,0,0,1-1.02-3.09Zm1.539.172a4.009,4.009,0,0,0,.566,2.219,1.875,1.875,0,0,0,1.684.875,1.87,1.87,0,0,0,1.672-.875,3.988,3.988,0,0,0,.57-2.219V-4.3a3.976,3.976,0,0,0-.574-2.211,1.882,1.882,0,0,0-1.684-.883,1.856,1.856,0,0,0-1.668.883,4.018,4.018,0,0,0-.566,2.211Z" transform="translate(441 11889)" fill="#12263f"/>
      <path id="Trazado_99267" data-name="Trazado 99267" d="M7.539-5.273H2.867V-1.2H8.336V0H1.328V-11.375H8.25v1.211H2.867v3.68H7.539Zm3.781-3.18L11.43-7.2a3.069,3.069,0,0,1,1.059-1.043,2.824,2.824,0,0,1,1.449-.371,2.759,2.759,0,0,1,2.117.8,3.515,3.515,0,0,1,.75,2.473V0H15.266V-5.3a2.287,2.287,0,0,0-.441-1.586,1.768,1.768,0,0,0-1.348-.469,2.386,2.386,0,0,0-1.207.285,2.072,2.072,0,0,0-.785.8V0H9.945V-8.453ZM19.68,0V-7.312h-1.32V-8.453h1.32v-1.07a2.9,2.9,0,0,1,.707-2.09,2.6,2.6,0,0,1,1.973-.738,3.4,3.4,0,0,1,.535.043q.27.043.6.121L23.3-11.016q-.141-.031-.34-.055a3.579,3.579,0,0,0-.418-.023,1.215,1.215,0,0,0-1,.4,1.809,1.809,0,0,0-.328,1.168v1.07H22.75v1.141H21.219V0Zm4.266-4.3a4.654,4.654,0,0,1,1.016-3.09,3.406,3.406,0,0,1,2.758-1.215A3.439,3.439,0,0,1,30.5-7.4,4.639,4.639,0,0,1,31.516-4.3v.172A4.631,4.631,0,0,1,30.5-1.039a3.429,3.429,0,0,1-2.766,1.2,3.436,3.436,0,0,1-2.77-1.207,4.623,4.623,0,0,1-1.02-3.09Zm1.539.172a4.009,4.009,0,0,0,.566,2.219,1.875,1.875,0,0,0,1.684.875,1.87,1.87,0,0,0,1.672-.875,3.988,3.988,0,0,0,.57-2.219V-4.3A3.976,3.976,0,0,0,29.4-6.516,1.882,1.882,0,0,0,27.719-7.4a1.856,1.856,0,0,0-1.668.883A4.018,4.018,0,0,0,25.484-4.3Zm7.563.063a5.641,5.641,0,0,1,.871-3.289,2.807,2.807,0,0,1,2.441-1.25,2.984,2.984,0,0,1,1.352.293,2.8,2.8,0,0,1,1,.848l.219-.984h1.18V3.25H38.57V-.8a2.637,2.637,0,0,1-.961.719,3.135,3.135,0,0,1-1.266.242A2.9,2.9,0,0,1,33.922-.957a4.659,4.659,0,0,1-.875-2.949Zm1.539.164a3.684,3.684,0,0,0,.527,2.074,1.811,1.811,0,0,0,1.621.793,2,2,0,0,0,1.082-.281,2.312,2.312,0,0,0,.754-.789V-6.375a2.329,2.329,0,0,0-.754-.75A2.011,2.011,0,0,0,36.75-7.4a1.754,1.754,0,0,0-1.633.934,4.8,4.8,0,0,0-.531,2.395ZM47.859-1.25A2.863,2.863,0,0,1,46.836-.2a2.8,2.8,0,0,1-1.445.367,2.716,2.716,0,0,1-2.156-.883,4.1,4.1,0,0,1-.773-2.75V-8.453H44v5a3.147,3.147,0,0,0,.4,1.859,1.481,1.481,0,0,0,1.242.508A2.531,2.531,0,0,0,47-1.418a2.077,2.077,0,0,0,.809-.941V-8.453h1.539V0H47.961ZM55.086.164A3.576,3.576,0,0,1,52.246-1a4.48,4.48,0,0,1-1.02-3.062v-.344a4.386,4.386,0,0,1,1.051-3.012,3.3,3.3,0,0,1,2.566-1.191,3.067,3.067,0,0,1,2.543,1.055,4.345,4.345,0,0,1,.848,2.8v.813H52.828L52.8-3.9a3.494,3.494,0,0,0,.563,2.066,1.965,1.965,0,0,0,1.719.793,3.872,3.872,0,0,0,1.371-.223,3.061,3.061,0,0,0,1.012-.613l.6,1a3.7,3.7,0,0,1-1.2.738A4.762,4.762,0,0,1,55.086.164ZM54.844-7.4a1.673,1.673,0,0,0-1.332.621,2.938,2.938,0,0,0-.645,1.59l.016.039H56.7v-.125A2.462,2.462,0,0,0,56.242-6.8,1.638,1.638,0,0,0,54.844-7.4ZM67.438.164A3.576,3.576,0,0,1,64.6-1a4.48,4.48,0,0,1-1.02-3.062v-.344a4.386,4.386,0,0,1,1.051-3.012A3.3,3.3,0,0,1,67.2-8.609a3.067,3.067,0,0,1,2.543,1.055,4.345,4.345,0,0,1,.848,2.8v.813H65.18l-.023.039a3.494,3.494,0,0,0,.563,2.066,1.965,1.965,0,0,0,1.719.793,3.872,3.872,0,0,0,1.371-.223,3.061,3.061,0,0,0,1.012-.613l.6,1a3.7,3.7,0,0,1-1.2.738A4.762,4.762,0,0,1,67.438.164ZM67.2-7.4a1.673,1.673,0,0,0-1.332.621,2.938,2.938,0,0,0-.645,1.59l.016.039h3.813v-.125A2.462,2.462,0,0,0,68.594-6.8,1.638,1.638,0,0,0,67.2-7.4Zm7.836,4.906.133.594h.047l.148-.594L77.3-8.453h1.57L75.766,0H74.6L71.453-8.453h1.578ZM85.336,0q-.078-.383-.121-.676a4.96,4.96,0,0,1-.051-.59,3.589,3.589,0,0,1-1.121,1.02,2.867,2.867,0,0,1-1.488.41,2.763,2.763,0,0,1-2.012-.676,2.486,2.486,0,0,1-.691-1.863,2.183,2.183,0,0,1,.98-1.895,4.579,4.579,0,0,1,2.66-.684h1.672v-.836a1.551,1.551,0,0,0-.453-1.176A1.779,1.779,0,0,0,83.43-7.4a1.859,1.859,0,0,0-1.211.375,1.125,1.125,0,0,0-.461.9L80.3-6.109l-.016-.047a2.023,2.023,0,0,1,.863-1.687,3.578,3.578,0,0,1,2.371-.766,3.49,3.49,0,0,1,2.313.73A2.588,2.588,0,0,1,86.7-5.773V-1.7a7.923,7.923,0,0,0,.047.875A4.5,4.5,0,0,0,86.922,0ZM82.781-1.125a2.739,2.739,0,0,0,1.508-.43,2.042,2.042,0,0,0,.875-.984V-3.914H83.438a2.24,2.24,0,0,0-1.488.469,1.4,1.4,0,0,0-.559,1.1,1.159,1.159,0,0,0,.352.891A1.472,1.472,0,0,0,82.781-1.125ZM90.6,0H89.063V-12.187H90.6Zm7.734-1.25A2.863,2.863,0,0,1,97.313-.2a2.8,2.8,0,0,1-1.445.367,2.716,2.716,0,0,1-2.156-.883,4.1,4.1,0,0,1-.773-2.75V-8.453h1.539v5a3.147,3.147,0,0,0,.4,1.859,1.481,1.481,0,0,0,1.242.508,2.531,2.531,0,0,0,1.355-.332,2.077,2.077,0,0,0,.809-.941V-8.453H99.82V0H98.438ZM107.258,0q-.078-.383-.121-.676a4.96,4.96,0,0,1-.051-.59,3.589,3.589,0,0,1-1.121,1.02,2.867,2.867,0,0,1-1.488.41,2.763,2.763,0,0,1-2.012-.676,2.486,2.486,0,0,1-.691-1.863,2.183,2.183,0,0,1,.98-1.895,4.579,4.579,0,0,1,2.66-.684h1.672v-.836a1.551,1.551,0,0,0-.453-1.176,1.779,1.779,0,0,0-1.281-.434,1.859,1.859,0,0,0-1.211.375,1.125,1.125,0,0,0-.461.9l-1.461.016-.016-.047a2.023,2.023,0,0,1,.863-1.687,3.578,3.578,0,0,1,2.371-.766,3.49,3.49,0,0,1,2.313.73,2.588,2.588,0,0,1,.875,2.105V-1.7a7.923,7.923,0,0,0,.047.875,4.5,4.5,0,0,0,.172.828ZM104.7-1.125a2.739,2.739,0,0,0,1.508-.43,2.042,2.042,0,0,0,.875-.984V-3.914h-1.727a2.24,2.24,0,0,0-1.488.469,1.4,1.4,0,0,0-.559,1.1,1.159,1.159,0,0,0,.352.891A1.472,1.472,0,0,0,104.7-1.125Zm5.8-2.945a5.641,5.641,0,0,1,.871-3.289,2.807,2.807,0,0,1,2.441-1.25,3.027,3.027,0,0,1,1.316.273,2.7,2.7,0,0,1,.98.8v-4.648h1.539V0h-1.18l-.234-1.07a2.743,2.743,0,0,1-1.023.922A3.058,3.058,0,0,1,113.8.164a2.9,2.9,0,0,1-2.422-1.121,4.659,4.659,0,0,1-.875-2.949Zm1.539.164a3.588,3.588,0,0,0,.523,2.051,1.828,1.828,0,0,0,1.625.77,2.039,2.039,0,0,0,1.156-.312,2.334,2.334,0,0,0,.766-.875V-6.219a2.37,2.37,0,0,0-.77-.832,2.033,2.033,0,0,0-1.137-.309,1.759,1.759,0,0,0-1.637.914,4.718,4.718,0,0,0-.527,2.375Zm7.547-.4a4.654,4.654,0,0,1,1.016-3.09,3.406,3.406,0,0,1,2.758-1.215A3.439,3.439,0,0,1,126.145-7.4a4.639,4.639,0,0,1,1.02,3.094v.172a4.631,4.631,0,0,1-1.016,3.094,3.429,3.429,0,0,1-2.766,1.2,3.436,3.436,0,0,1-2.77-1.207,4.623,4.623,0,0,1-1.02-3.09Zm1.539.172a4.009,4.009,0,0,0,.566,2.219,1.875,1.875,0,0,0,1.684.875,1.87,1.87,0,0,0,1.672-.875,3.988,3.988,0,0,0,.57-2.219V-4.3a3.976,3.976,0,0,0-.574-2.211,1.882,1.882,0,0,0-1.684-.883,1.856,1.856,0,0,0-1.668.883,4.018,4.018,0,0,0-.566,2.211Zm14.477,1,.273,1.063h.047l2.078-6.383h1.711L136.164,1.3a4.383,4.383,0,0,1-.918,1.484,2.113,2.113,0,0,1-1.613.633,3.363,3.363,0,0,1-.477-.043q-.289-.043-.445-.082l.156-1.211a2.062,2.062,0,0,1,.277.016q.324.023.41.023a.95.95,0,0,0,.8-.437,4.543,4.543,0,0,0,.523-.969l.367-.883-3.141-8.281h1.719Zm10.813-5.32.109,1.109a2.871,2.871,0,0,1,1.051-.934,3.158,3.158,0,0,1,1.48-.332,2.615,2.615,0,0,1,1.449.391,2.363,2.363,0,0,1,.91,1.172,3.162,3.162,0,0,1,1.059-1.145,2.769,2.769,0,0,1,1.527-.418,2.531,2.531,0,0,1,2.039.887,4.051,4.051,0,0,1,.75,2.668V0h-1.539V-5.07a2.81,2.81,0,0,0-.43-1.77,1.567,1.567,0,0,0-1.281-.52,1.631,1.631,0,0,0-1.277.547A2.381,2.381,0,0,0,151.7-5.43V0h-1.547V-5.07a2.772,2.772,0,0,0-.441-1.738,1.532,1.532,0,0,0-1.27-.551,2.115,2.115,0,0,0-1.156.289,1.867,1.867,0,0,0-.7.813V0h-1.539V-8.453ZM162.531.164A3.576,3.576,0,0,1,159.691-1a4.48,4.48,0,0,1-1.02-3.062v-.344a4.386,4.386,0,0,1,1.051-3.012,3.3,3.3,0,0,1,2.566-1.191,3.067,3.067,0,0,1,2.543,1.055,4.345,4.345,0,0,1,.848,2.8v.813h-5.406l-.023.039a3.494,3.494,0,0,0,.563,2.066,1.965,1.965,0,0,0,1.719.793,3.872,3.872,0,0,0,1.371-.223,3.061,3.061,0,0,0,1.012-.613l.6,1a3.7,3.7,0,0,1-1.2.738A4.762,4.762,0,0,1,162.531.164ZM162.289-7.4a1.673,1.673,0,0,0-1.332.621,2.938,2.938,0,0,0-.645,1.59l.016.039h3.813v-.125a2.462,2.462,0,0,0-.453-1.523A1.638,1.638,0,0,0,162.289-7.4Zm6.891-1.055V.7a2.807,2.807,0,0,1-.672,2.012,2.452,2.452,0,0,1-1.867.707,2.549,2.549,0,0,1-.441-.035,3.49,3.49,0,0,1-.426-.105l.109-1.211a1.621,1.621,0,0,0,.313.066,2.608,2.608,0,0,0,.336.027,1.02,1.02,0,0,0,.809-.344,1.681,1.681,0,0,0,.3-1.117V-8.453Zm-.047-2.2h-1.539v-1.539h1.539ZM171.188-4.3a4.654,4.654,0,0,1,1.016-3.09,3.406,3.406,0,0,1,2.758-1.215A3.439,3.439,0,0,1,177.738-7.4a4.639,4.639,0,0,1,1.02,3.094v.172a4.631,4.631,0,0,1-1.016,3.094,3.429,3.429,0,0,1-2.766,1.2,3.436,3.436,0,0,1-2.77-1.207,4.623,4.623,0,0,1-1.02-3.09Zm1.539.172a4.009,4.009,0,0,0,.566,2.219,1.875,1.875,0,0,0,1.684.875,1.87,1.87,0,0,0,1.672-.875,3.988,3.988,0,0,0,.57-2.219V-4.3a3.976,3.976,0,0,0-.574-2.211,1.882,1.882,0,0,0-1.684-.883,1.856,1.856,0,0,0-1.668.883,4.018,4.018,0,0,0-.566,2.211Zm11.914-2.961-.789-.047a1.762,1.762,0,0,0-1.027.289,1.855,1.855,0,0,0-.645.813V0h-1.539V-8.453h1.375l.148,1.234a2.934,2.934,0,0,1,.887-1.023,2.073,2.073,0,0,1,1.215-.367,1.9,1.9,0,0,1,.328.027,2.174,2.174,0,0,1,.258.059ZM191.438,0q-.078-.383-.121-.676a4.96,4.96,0,0,1-.051-.59,3.588,3.588,0,0,1-1.121,1.02,2.867,2.867,0,0,1-1.488.41,2.763,2.763,0,0,1-2.012-.676,2.486,2.486,0,0,1-.691-1.863,2.183,2.183,0,0,1,.98-1.895,4.579,4.579,0,0,1,2.66-.684h1.672v-.836a1.551,1.551,0,0,0-.453-1.176,1.779,1.779,0,0,0-1.281-.434,1.859,1.859,0,0,0-1.211.375,1.125,1.125,0,0,0-.461.9l-1.461.016-.016-.047a2.023,2.023,0,0,1,.863-1.687,3.578,3.578,0,0,1,2.371-.766,3.49,3.49,0,0,1,2.313.73,2.588,2.588,0,0,1,.875,2.105V-1.7a7.923,7.923,0,0,0,.047.875,4.5,4.5,0,0,0,.172.828Zm-2.555-1.125a2.739,2.739,0,0,0,1.508-.43,2.042,2.042,0,0,0,.875-.984V-3.914h-1.727a2.24,2.24,0,0,0-1.488.469,1.4,1.4,0,0,0-.559,1.1,1.159,1.159,0,0,0,.352.891A1.472,1.472,0,0,0,188.883-1.125Zm5.8-2.945a5.641,5.641,0,0,1,.871-3.289A2.807,2.807,0,0,1,198-8.609a3.027,3.027,0,0,1,1.316.273,2.7,2.7,0,0,1,.98.8v-4.648h1.539V0h-1.18l-.234-1.07a2.743,2.743,0,0,1-1.023.922,3.058,3.058,0,0,1-1.414.313,2.9,2.9,0,0,1-2.422-1.121,4.659,4.659,0,0,1-.875-2.949Zm1.539.164a3.588,3.588,0,0,0,.523,2.051,1.828,1.828,0,0,0,1.625.77,2.039,2.039,0,0,0,1.156-.312,2.334,2.334,0,0,0,.766-.875V-6.219a2.37,2.37,0,0,0-.77-.832,2.033,2.033,0,0,0-1.137-.309,1.759,1.759,0,0,0-1.637.914,4.718,4.718,0,0,0-.527,2.375Zm7.547-.4a4.654,4.654,0,0,1,1.016-3.09,3.406,3.406,0,0,1,2.758-1.215A3.439,3.439,0,0,1,210.324-7.4a4.639,4.639,0,0,1,1.02,3.094v.172a4.631,4.631,0,0,1-1.016,3.094,3.429,3.429,0,0,1-2.766,1.2,3.436,3.436,0,0,1-2.77-1.207,4.623,4.623,0,0,1-1.02-3.09Zm1.539.172a4.009,4.009,0,0,0,.566,2.219,1.875,1.875,0,0,0,1.684.875,1.87,1.87,0,0,0,1.672-.875,3.988,3.988,0,0,0,.57-2.219V-4.3a3.976,3.976,0,0,0-.574-2.211,1.882,1.882,0,0,0-1.684-.883,1.856,1.856,0,0,0-1.668.883,4.018,4.018,0,0,0-.566,2.211Z" transform="translate(989 11889)" fill="#12263f"/>
      <path id="Trazado_99257" data-name="Trazado 99257" d="M3.484,0H1.2V-11.375H3.484Zm4.2-8.453.094,1.117A2.84,2.84,0,0,1,8.8-8.277a2.932,2.932,0,0,1,1.418-.332,2.582,2.582,0,0,1,1.391.359,2.217,2.217,0,0,1,.875,1.086A2.93,2.93,0,0,1,13.5-8.227a2.756,2.756,0,0,1,1.469-.383,2.408,2.408,0,0,1,1.973.887,4.233,4.233,0,0,1,.723,2.707V0H15.383V-5.023a2.369,2.369,0,0,0-.312-1.414,1.109,1.109,0,0,0-.93-.4,1.592,1.592,0,0,0-.84.215,1.565,1.565,0,0,0-.566.6q0,.148.008.254t.008.215V0H10.477V-5.023a2.376,2.376,0,0,0-.312-1.4,1.1,1.1,0,0,0-.937-.41,1.769,1.769,0,0,0-.809.176,1.551,1.551,0,0,0-.574.5V0H5.57V-8.453ZM27.039-3.992a4.855,4.855,0,0,1-.867,3.016A2.869,2.869,0,0,1,23.75.164a2.707,2.707,0,0,1-1.18-.246A2.423,2.423,0,0,1,21.688-.8V3.25H19.414v-11.7h2.055l.133,1a2.709,2.709,0,0,1,.9-.855,2.441,2.441,0,0,1,1.23-.3,2.813,2.813,0,0,1,2.438,1.227,5.474,5.474,0,0,1,.867,3.227Zm-2.281-.164a4.09,4.09,0,0,0-.4-1.937,1.3,1.3,0,0,0-1.219-.742,1.722,1.722,0,0,0-.879.211,1.505,1.505,0,0,0-.574.6v3.7a1.4,1.4,0,0,0,.574.547,1.935,1.935,0,0,0,.895.188,1.312,1.312,0,0,0,1.215-.648,3.423,3.423,0,0,0,.387-1.758ZM30.844,0H28.563V-12.187h2.281Zm5.539.164A3.8,3.8,0,0,1,33.43-1a4.252,4.252,0,0,1-1.062-2.988V-4.3A4.628,4.628,0,0,1,33.4-7.406a3.506,3.506,0,0,1,2.836-1.2,3.282,3.282,0,0,1,2.613,1.043,4.122,4.122,0,0,1,.91,2.809v1.18H34.719l-.023.047a2.284,2.284,0,0,0,.527,1.406,1.766,1.766,0,0,0,1.4.539,4.692,4.692,0,0,0,1.3-.156,5.307,5.307,0,0,0,1.105-.477l.617,1.406a4.234,4.234,0,0,1-1.375.7A6.1,6.1,0,0,1,36.383.164Zm-.148-7.016a1.267,1.267,0,0,0-1.059.473,2.371,2.371,0,0,0-.449,1.254l.016.039h2.781v-.172a1.974,1.974,0,0,0-.3-1.168A1.127,1.127,0,0,0,36.234-6.852Zm6.969-1.6L43.3-7.336a2.84,2.84,0,0,1,1.02-.941,2.932,2.932,0,0,1,1.418-.332,2.582,2.582,0,0,1,1.391.359A2.217,2.217,0,0,1,48-7.164a2.93,2.93,0,0,1,1.016-1.062,2.756,2.756,0,0,1,1.469-.383,2.408,2.408,0,0,1,1.973.887,4.233,4.233,0,0,1,.723,2.707V0H50.9V-5.023a2.369,2.369,0,0,0-.312-1.414,1.109,1.109,0,0,0-.93-.4,1.592,1.592,0,0,0-.84.215,1.565,1.565,0,0,0-.566.6q0,.148.008.254t.008.215V0H45.992V-5.023a2.376,2.376,0,0,0-.312-1.4,1.1,1.1,0,0,0-.937-.41,1.769,1.769,0,0,0-.809.176,1.551,1.551,0,0,0-.574.5V0H41.086V-8.453ZM58.594.164A3.8,3.8,0,0,1,55.641-1a4.252,4.252,0,0,1-1.062-2.988V-4.3a4.628,4.628,0,0,1,1.031-3.109,3.506,3.506,0,0,1,2.836-1.2,3.282,3.282,0,0,1,2.613,1.043,4.122,4.122,0,0,1,.91,2.809v1.18H56.93l-.023.047a2.284,2.284,0,0,0,.527,1.406,1.766,1.766,0,0,0,1.4.539,4.692,4.692,0,0,0,1.3-.156,5.307,5.307,0,0,0,1.105-.477l.617,1.406a4.234,4.234,0,0,1-1.375.7A6.1,6.1,0,0,1,58.594.164Zm-.148-7.016a1.267,1.267,0,0,0-1.059.473,2.371,2.371,0,0,0-.449,1.254l.016.039h2.781v-.172a1.974,1.974,0,0,0-.3-1.168A1.127,1.127,0,0,0,58.445-6.852Zm6.938-1.6.1,1.211A3.092,3.092,0,0,1,66.523-8.25a2.7,2.7,0,0,1,1.383-.359,2.513,2.513,0,0,1,2,.824,3.908,3.908,0,0,1,.719,2.605V0H68.336V-5.172a2.024,2.024,0,0,0-.316-1.285,1.166,1.166,0,0,0-.949-.379,1.992,1.992,0,0,0-.895.191,1.746,1.746,0,0,0-.637.527V0H63.258V-8.453Zm9.68-2.07v2.07h1.43v1.6h-1.43v4.3a.982.982,0,0,0,.207.7.727.727,0,0,0,.543.211,2.178,2.178,0,0,0,.313-.02,2.632,2.632,0,0,0,.3-.066L76.617-.07a4.618,4.618,0,0,1-.668.176,3.982,3.982,0,0,1-.707.059,2.431,2.431,0,0,1-1.816-.648,2.843,2.843,0,0,1-.637-2.055V-6.852H71.555v-1.6h1.234v-2.07ZM82.883,0a4.8,4.8,0,0,1-.215-.609,4.238,4.238,0,0,1-.129-.656,3.127,3.127,0,0,1-.93,1.023,2.33,2.33,0,0,1-1.375.406A2.855,2.855,0,0,1,78.188-.52a2.449,2.449,0,0,1-.719-1.863,2.229,2.229,0,0,1,.957-1.926,4.78,4.78,0,0,1,2.793-.684H82.5v-.672a1.315,1.315,0,0,0-.32-.945,1.257,1.257,0,0,0-.953-.336,1.239,1.239,0,0,0-.855.27.941.941,0,0,0-.3.738h-2.2l-.016-.047a2.144,2.144,0,0,1,.934-1.848,4.055,4.055,0,0,1,2.582-.777,3.784,3.784,0,0,1,2.465.766,2.667,2.667,0,0,1,.941,2.2v3.492a6.6,6.6,0,0,0,.09,1.117A5.606,5.606,0,0,0,85.156,0ZM80.8-1.523a1.944,1.944,0,0,0,1.063-.3,1.6,1.6,0,0,0,.641-.687V-3.7H81.219a1.519,1.519,0,0,0-1.1.359,1.181,1.181,0,0,0-.371.883.881.881,0,0,0,.277.684A1.1,1.1,0,0,0,80.8-1.523Zm9.227-.062a1.27,1.27,0,0,0,.945-.355,1.291,1.291,0,0,0,.352-.949H93.4l.016.047A2.645,2.645,0,0,1,92.461-.7a3.564,3.564,0,0,1-2.437.863,3.6,3.6,0,0,1-2.9-1.2A4.558,4.558,0,0,1,86.1-4.1v-.234A4.588,4.588,0,0,1,87.121-7.4a3.57,3.57,0,0,1,2.887-1.207,3.486,3.486,0,0,1,2.492.891,2.976,2.976,0,0,1,.914,2.344l-.016.047H91.32a1.687,1.687,0,0,0-.348-1.09,1.168,1.168,0,0,0-.965-.434,1.3,1.3,0,0,0-1.254.707,3.878,3.878,0,0,0-.371,1.809V-4.1a3.863,3.863,0,0,0,.371,1.82A1.32,1.32,0,0,0,90.023-1.586ZM97.141,0H94.859V-8.453h2.281Zm0-10.477H94.859v-1.711h2.281ZM98.664-4.3a4.536,4.536,0,0,1,1.055-3.1,3.676,3.676,0,0,1,2.922-1.207,3.715,3.715,0,0,1,2.938,1.2,4.512,4.512,0,0,1,1.063,3.1v.164a4.519,4.519,0,0,1-1.059,3.105,3.7,3.7,0,0,1-2.926,1.2,3.709,3.709,0,0,1-2.934-1.2,4.519,4.519,0,0,1-1.059-3.105Zm2.273.164a3.677,3.677,0,0,0,.406,1.855,1.4,1.4,0,0,0,1.313.7,1.389,1.389,0,0,0,1.293-.7,3.653,3.653,0,0,0,.41-1.852V-4.3a3.616,3.616,0,0,0-.414-1.836,1.4,1.4,0,0,0-1.3-.711,1.384,1.384,0,0,0-1.293.715,3.648,3.648,0,0,0-.41,1.832Zm2.164-7.922h2.539l.016.047-2.164,2.031h-1.945Zm7.031,3.609.1,1.211a3.092,3.092,0,0,1,1.039-1.008,2.7,2.7,0,0,1,1.383-.359,2.513,2.513,0,0,1,2,.824,3.908,3.908,0,0,1,.719,2.605V0h-2.289V-5.172a2.024,2.024,0,0,0-.316-1.285,1.166,1.166,0,0,0-.949-.379,1.992,1.992,0,0,0-.895.191,1.746,1.746,0,0,0-.637.527V0h-2.281V-8.453Z" transform="translate(215 11929)" fill="#12263f"/>
      <path id="Trazado_99260" data-name="Trazado 99260" d="M1.328,0V-11.375H4.906A4.812,4.812,0,0,1,8.488-10,4.824,4.824,0,0,1,9.844-6.461v1.555A4.808,4.808,0,0,1,8.488-1.363,4.827,4.827,0,0,1,4.906,0ZM2.867-10.164V-1.2H4.906A3.137,3.137,0,0,0,7.395-2.242,3.9,3.9,0,0,0,8.3-4.906v-1.57a3.873,3.873,0,0,0-.91-2.648,3.137,3.137,0,0,0-2.488-1.039ZM15.453.164A3.576,3.576,0,0,1,12.613-1a4.48,4.48,0,0,1-1.02-3.062v-.344a4.386,4.386,0,0,1,1.051-3.012,3.3,3.3,0,0,1,2.566-1.191,3.067,3.067,0,0,1,2.543,1.055,4.345,4.345,0,0,1,.848,2.8v.813H13.2l-.023.039a3.494,3.494,0,0,0,.563,2.066,1.965,1.965,0,0,0,1.719.793,3.872,3.872,0,0,0,1.371-.223,3.061,3.061,0,0,0,1.012-.613l.6,1a3.7,3.7,0,0,1-1.2.738A4.762,4.762,0,0,1,15.453.164ZM15.211-7.4a1.673,1.673,0,0,0-1.332.621,2.938,2.938,0,0,0-.645,1.59l.016.039h3.813v-.125A2.462,2.462,0,0,0,16.609-6.8,1.638,1.638,0,0,0,15.211-7.4ZM25.242-2.273a1.026,1.026,0,0,0-.387-.828,3.732,3.732,0,0,0-1.465-.562,6.146,6.146,0,0,1-2.293-.9,1.814,1.814,0,0,1-.8-1.547,2.229,2.229,0,0,1,.879-1.766,3.433,3.433,0,0,1,2.277-.734,3.4,3.4,0,0,1,2.328.781,2.239,2.239,0,0,1,.852,1.82l-.016.047H25.148a1.331,1.331,0,0,0-.48-.992A1.717,1.717,0,0,0,23.453-7.4a1.751,1.751,0,0,0-1.215.367,1.146,1.146,0,0,0-.4.875.927.927,0,0,0,.348.773,3.848,3.848,0,0,0,1.434.5,6.058,6.058,0,0,1,2.359.93,1.872,1.872,0,0,1,.8,1.57,2.226,2.226,0,0,1-.91,1.836,3.754,3.754,0,0,1-2.379.711,3.715,3.715,0,0,1-2.547-.82,2.341,2.341,0,0,1-.883-1.914l.016-.047h1.469a1.424,1.424,0,0,0,.609,1.2,2.358,2.358,0,0,0,1.336.379,2.1,2.1,0,0,0,1.285-.348A1.063,1.063,0,0,0,25.242-2.273ZM35.9-3.906a4.659,4.659,0,0,1-.875,2.949A2.893,2.893,0,0,1,32.609.164,3.354,3.354,0,0,1,31.238-.1a2.622,2.622,0,0,1-1-.785V3.25H28.7v-11.7h1.18l.242,1.094a2.792,2.792,0,0,1,1.031-.93,3.078,3.078,0,0,1,1.438-.32,2.809,2.809,0,0,1,2.441,1.246A5.637,5.637,0,0,1,35.9-4.07ZM34.359-4.07a4.467,4.467,0,0,0-.566-2.363,1.835,1.835,0,0,0-1.668-.926,2.054,2.054,0,0,0-1.133.3,2.25,2.25,0,0,0-.758.824v4.086a2.186,2.186,0,0,0,.758.816,2.126,2.126,0,0,0,1.148.293,1.894,1.894,0,0,0,1.656-.8,3.516,3.516,0,0,0,.563-2.066ZM39.453,0H37.914V-12.187h1.539Zm4.031,0H41.945V-8.453h1.539Zm0-10.617H41.945v-1.57h1.539ZM49.352.164A3.576,3.576,0,0,1,46.512-1a4.48,4.48,0,0,1-1.02-3.062v-.344a4.386,4.386,0,0,1,1.051-3.012,3.3,3.3,0,0,1,2.566-1.191,3.067,3.067,0,0,1,2.543,1.055,4.345,4.345,0,0,1,.848,2.8v.813H47.094L47.07-3.9a3.494,3.494,0,0,0,.563,2.066,1.965,1.965,0,0,0,1.719.793,3.872,3.872,0,0,0,1.371-.223,3.061,3.061,0,0,0,1.012-.613l.6,1a3.7,3.7,0,0,1-1.2.738A4.762,4.762,0,0,1,49.352.164ZM49.109-7.4a1.673,1.673,0,0,0-1.332.621,2.938,2.938,0,0,0-.645,1.59l.016.039h3.813v-.125A2.462,2.462,0,0,0,50.508-6.8,1.638,1.638,0,0,0,49.109-7.4ZM53.953-4.07a5.641,5.641,0,0,1,.871-3.289,2.8,2.8,0,0,1,2.434-1.25,2.966,2.966,0,0,1,1.414.324,2.845,2.845,0,0,1,1.023.934l.188-1.1h1.227v8.5a3.225,3.225,0,0,1-.945,2.5,3.884,3.884,0,0,1-2.727.871,5.716,5.716,0,0,1-1.316-.168,5.147,5.147,0,0,1-1.246-.457l.234-1.2a4.451,4.451,0,0,0,1.074.379,5.517,5.517,0,0,0,1.238.145,2.242,2.242,0,0,0,1.637-.512A2.12,2.12,0,0,0,59.57.047V-.914a2.725,2.725,0,0,1-.992.8,3.091,3.091,0,0,1-1.336.273A2.89,2.89,0,0,1,54.824-.957a4.674,4.674,0,0,1-.871-2.949Zm1.539.164a3.592,3.592,0,0,0,.523,2.047,1.817,1.817,0,0,0,1.617.773A2.034,2.034,0,0,0,58.8-1.4,2.4,2.4,0,0,0,59.57-2.3V-6.187a2.388,2.388,0,0,0-.773-.855,2.029,2.029,0,0,0-1.148-.316,1.752,1.752,0,0,0-1.629.914,4.718,4.718,0,0,0-.527,2.375Zm13.2,2.656A2.863,2.863,0,0,1,67.664-.2a2.8,2.8,0,0,1-1.445.367,2.716,2.716,0,0,1-2.156-.883,4.1,4.1,0,0,1-.773-2.75V-8.453h1.539v5a3.147,3.147,0,0,0,.4,1.859,1.481,1.481,0,0,0,1.242.508,2.531,2.531,0,0,0,1.355-.332,2.077,2.077,0,0,0,.809-.941V-8.453h1.539V0H68.789ZM75.914.164A3.576,3.576,0,0,1,73.074-1a4.48,4.48,0,0,1-1.02-3.062v-.344a4.386,4.386,0,0,1,1.051-3.012,3.3,3.3,0,0,1,2.566-1.191,3.067,3.067,0,0,1,2.543,1.055,4.345,4.345,0,0,1,.848,2.8v.813H73.656l-.023.039A3.494,3.494,0,0,0,74.2-1.832a1.965,1.965,0,0,0,1.719.793,3.872,3.872,0,0,0,1.371-.223A3.061,3.061,0,0,0,78.3-1.875l.6,1a3.7,3.7,0,0,1-1.2.738A4.762,4.762,0,0,1,75.914.164ZM75.672-7.4a1.673,1.673,0,0,0-1.332.621,2.938,2.938,0,0,0-.645,1.59l.016.039h3.813v-.125A2.462,2.462,0,0,0,77.07-6.8,1.638,1.638,0,0,0,75.672-7.4ZM88.266.164A3.576,3.576,0,0,1,85.426-1a4.48,4.48,0,0,1-1.02-3.062v-.344a4.386,4.386,0,0,1,1.051-3.012,3.3,3.3,0,0,1,2.566-1.191,3.067,3.067,0,0,1,2.543,1.055,4.345,4.345,0,0,1,.848,2.8v.813H86.008l-.023.039a3.494,3.494,0,0,0,.563,2.066,1.965,1.965,0,0,0,1.719.793,3.872,3.872,0,0,0,1.371-.223,3.061,3.061,0,0,0,1.012-.613l.6,1a3.7,3.7,0,0,1-1.2.738A4.762,4.762,0,0,1,88.266.164ZM88.023-7.4a1.673,1.673,0,0,0-1.332.621,2.938,2.938,0,0,0-.645,1.59l.016.039h3.813v-.125A2.462,2.462,0,0,0,89.422-6.8,1.638,1.638,0,0,0,88.023-7.4Zm6.492-1.055L94.625-7.2a3.069,3.069,0,0,1,1.059-1.043,2.824,2.824,0,0,1,1.449-.371,2.759,2.759,0,0,1,2.117.8A3.515,3.515,0,0,1,100-5.336V0H98.461V-5.3a2.287,2.287,0,0,0-.441-1.586,1.768,1.768,0,0,0-1.348-.469,2.386,2.386,0,0,0-1.207.285,2.072,2.072,0,0,0-.785.8V0H93.141V-8.453ZM107.875,0h-1.539V-12.187h1.539Zm7.563,0q-.078-.383-.121-.676a4.96,4.96,0,0,1-.051-.59,3.589,3.589,0,0,1-1.121,1.02,2.867,2.867,0,0,1-1.488.41,2.763,2.763,0,0,1-2.012-.676,2.486,2.486,0,0,1-.691-1.863,2.183,2.183,0,0,1,.98-1.895,4.579,4.579,0,0,1,2.66-.684h1.672v-.836a1.551,1.551,0,0,0-.453-1.176,1.779,1.779,0,0,0-1.281-.434,1.859,1.859,0,0,0-1.211.375,1.125,1.125,0,0,0-.461.9l-1.461.016-.016-.047a2.023,2.023,0,0,1,.863-1.687,3.578,3.578,0,0,1,2.371-.766,3.49,3.49,0,0,1,2.313.73,2.588,2.588,0,0,1,.875,2.105V-1.7a7.923,7.923,0,0,0,.047.875,4.5,4.5,0,0,0,.172.828Zm-2.555-1.125a2.739,2.739,0,0,0,1.508-.43,2.042,2.042,0,0,0,.875-.984V-3.914h-1.727a2.24,2.24,0,0,0-1.488.469,1.4,1.4,0,0,0-.559,1.1,1.159,1.159,0,0,0,.352.891A1.472,1.472,0,0,0,112.883-1.125ZM124.68,0h-1.539V-8.453h1.539Zm0-10.617h-1.539v-1.57h1.539Zm3.742,2.164.109,1.258a3.069,3.069,0,0,1,1.059-1.043,2.824,2.824,0,0,1,1.449-.371,2.759,2.759,0,0,1,2.117.8,3.515,3.515,0,0,1,.75,2.473V0h-1.539V-5.3a2.287,2.287,0,0,0-.441-1.586,1.768,1.768,0,0,0-1.348-.469,2.386,2.386,0,0,0-1.207.285,2.072,2.072,0,0,0-.785.8V0h-1.539V-8.453Zm12.633,6.18a1.026,1.026,0,0,0-.387-.828,3.732,3.732,0,0,0-1.465-.562,6.146,6.146,0,0,1-2.293-.9,1.814,1.814,0,0,1-.8-1.547,2.229,2.229,0,0,1,.879-1.766,3.433,3.433,0,0,1,2.277-.734,3.4,3.4,0,0,1,2.328.781,2.239,2.239,0,0,1,.852,1.82l-.016.047h-1.469a1.331,1.331,0,0,0-.48-.992,1.717,1.717,0,0,0-1.215-.445,1.751,1.751,0,0,0-1.215.367,1.146,1.146,0,0,0-.4.875.927.927,0,0,0,.348.773,3.848,3.848,0,0,0,1.434.5,6.058,6.058,0,0,1,2.359.93,1.872,1.872,0,0,1,.8,1.57,2.226,2.226,0,0,1-.91,1.836A3.754,3.754,0,0,1,139.3.164a3.715,3.715,0,0,1-2.547-.82,2.341,2.341,0,0,1-.883-1.914l.016-.047h1.469a1.424,1.424,0,0,0,.609,1.2,2.358,2.358,0,0,0,1.336.379,2.1,2.1,0,0,0,1.285-.348A1.063,1.063,0,0,0,141.055-2.273Zm5.594-8.219v2.039h1.6v1.141h-1.6V-2.18a1.149,1.149,0,0,0,.246.836.89.89,0,0,0,.652.242,1.429,1.429,0,0,0,.3-.035,2.2,2.2,0,0,0,.273-.074l.211,1.055a1.36,1.36,0,0,1-.508.23,2.562,2.562,0,0,1-.664.09A1.993,1.993,0,0,1,145.664-.4a2.46,2.46,0,0,1-.555-1.777V-7.312h-1.344V-8.453h1.344v-2.039ZM151.563,0h-1.539V-8.453h1.539Zm0-10.617h-1.539v-1.57h1.539Zm4.508.125v2.039h1.6v1.141h-1.6V-2.18a1.149,1.149,0,0,0,.246.836.89.89,0,0,0,.652.242,1.429,1.429,0,0,0,.3-.035,2.2,2.2,0,0,0,.273-.074l.211,1.055a1.36,1.36,0,0,1-.508.23,2.562,2.562,0,0,1-.664.09A1.993,1.993,0,0,1,155.086-.4a2.46,2.46,0,0,1-.555-1.777V-7.312h-1.344V-8.453h1.344v-2.039Zm8.617,9.242A2.863,2.863,0,0,1,163.664-.2a2.8,2.8,0,0,1-1.445.367,2.716,2.716,0,0,1-2.156-.883,4.1,4.1,0,0,1-.773-2.75V-8.453h1.539v5a3.147,3.147,0,0,0,.4,1.859,1.481,1.481,0,0,0,1.242.508,2.531,2.531,0,0,0,1.355-.332,2.077,2.077,0,0,0,.809-.941V-8.453h1.539V0h-1.383Zm7.086.211a1.81,1.81,0,0,0,1.242-.473,1.493,1.493,0,0,0,.531-1.16h1.391l.023.047a2.428,2.428,0,0,1-.937,1.941,3.312,3.312,0,0,1-2.25.848,3.319,3.319,0,0,1-2.75-1.211,4.674,4.674,0,0,1-.969-3.016v-.328a4.654,4.654,0,0,1,.973-3,3.317,3.317,0,0,1,2.746-1.215,3.189,3.189,0,0,1,2.316.875,2.775,2.775,0,0,1,.871,2.148l-.016.047h-1.4a1.865,1.865,0,0,0-.5-1.316,1.658,1.658,0,0,0-1.27-.543,1.777,1.777,0,0,0-1.652.879,4.114,4.114,0,0,0-.52,2.129v.328a4.192,4.192,0,0,0,.512,2.148A1.776,1.776,0,0,0,171.773-1.039ZM178.453,0h-1.539V-8.453h1.539Zm0-10.617h-1.539v-1.57h1.539ZM180.461-4.3a4.654,4.654,0,0,1,1.016-3.09,3.406,3.406,0,0,1,2.758-1.215A3.439,3.439,0,0,1,187.012-7.4a4.639,4.639,0,0,1,1.02,3.094v.172a4.631,4.631,0,0,1-1.016,3.094,3.429,3.429,0,0,1-2.766,1.2,3.436,3.436,0,0,1-2.77-1.207,4.623,4.623,0,0,1-1.02-3.09ZM182-4.133a4.009,4.009,0,0,0,.566,2.219,1.875,1.875,0,0,0,1.684.875,1.87,1.87,0,0,0,1.672-.875,3.988,3.988,0,0,0,.57-2.219V-4.3a3.976,3.976,0,0,0-.574-2.211,1.882,1.882,0,0,0-1.684-.883,1.856,1.856,0,0,0-1.668.883A4.018,4.018,0,0,0,182-4.3Zm2.992-7.906h1.8l.016.047-2.1,2.031h-1.156Zm6.3,3.586L191.4-7.2a3.069,3.069,0,0,1,1.059-1.043,2.824,2.824,0,0,1,1.449-.371,2.759,2.759,0,0,1,2.117.8,3.515,3.515,0,0,1,.75,2.473V0h-1.539V-5.3a2.287,2.287,0,0,0-.441-1.586,1.768,1.768,0,0,0-1.348-.469,2.386,2.386,0,0,0-1.207.285,2.072,2.072,0,0,0-.785.8V0h-1.539V-8.453Z" transform="translate(441 11929)" fill="#12263f"/>
      <path id="Trazado_99264" data-name="Trazado 99264" d="M7.2-2.93H2.922L1.906,0H.336l4.1-11.375h1.32L9.773,0H8.2ZM3.367-4.219h3.4L5.109-9.1H5.063Zm15.07.313a4.659,4.659,0,0,1-.875,2.949A2.893,2.893,0,0,1,15.148.164,3.354,3.354,0,0,1,13.777-.1a2.622,2.622,0,0,1-1-.785V3.25H11.234v-11.7h1.18l.242,1.094a2.792,2.792,0,0,1,1.031-.93,3.078,3.078,0,0,1,1.438-.32,2.809,2.809,0,0,1,2.441,1.246,5.638,5.638,0,0,1,.871,3.293ZM16.9-4.07a4.467,4.467,0,0,0-.566-2.363,1.835,1.835,0,0,0-1.668-.926,2.054,2.054,0,0,0-1.133.3,2.25,2.25,0,0,0-.758.824v4.086a2.186,2.186,0,0,0,.758.816,2.126,2.126,0,0,0,1.148.293,1.894,1.894,0,0,0,1.656-.8A3.516,3.516,0,0,0,16.9-3.906Zm7.43-3.023-.789-.047a1.762,1.762,0,0,0-1.027.289,1.854,1.854,0,0,0-.645.813V0H20.328V-8.453H21.7l.148,1.234a2.934,2.934,0,0,1,.887-1.023,2.073,2.073,0,0,1,1.215-.367,1.9,1.9,0,0,1,.328.027,2.175,2.175,0,0,1,.258.059ZM25.414-4.3a4.654,4.654,0,0,1,1.016-3.09,3.406,3.406,0,0,1,2.758-1.215A3.439,3.439,0,0,1,31.965-7.4,4.639,4.639,0,0,1,32.984-4.3v.172a4.631,4.631,0,0,1-1.016,3.094A3.429,3.429,0,0,1,29.2.164a3.436,3.436,0,0,1-2.77-1.207,4.623,4.623,0,0,1-1.02-3.09Zm1.539.172a4.009,4.009,0,0,0,.566,2.219,1.875,1.875,0,0,0,1.684.875,1.87,1.87,0,0,0,1.672-.875,3.988,3.988,0,0,0,.57-2.219V-4.3a3.976,3.976,0,0,0-.574-2.211A1.882,1.882,0,0,0,29.188-7.4a1.856,1.856,0,0,0-1.668.883A4.018,4.018,0,0,0,26.953-4.3Zm15.117.227A4.659,4.659,0,0,1,41.2-.957,2.893,2.893,0,0,1,38.781.164,3.354,3.354,0,0,1,37.41-.1a2.622,2.622,0,0,1-1-.785V3.25H34.867v-11.7h1.18l.242,1.094a2.792,2.792,0,0,1,1.031-.93,3.078,3.078,0,0,1,1.438-.32A2.809,2.809,0,0,1,41.2-7.363,5.637,5.637,0,0,1,42.07-4.07ZM40.531-4.07a4.467,4.467,0,0,0-.566-2.363A1.835,1.835,0,0,0,38.3-7.359a2.054,2.054,0,0,0-1.133.3,2.25,2.25,0,0,0-.758.824v4.086a2.186,2.186,0,0,0,.758.816,2.126,2.126,0,0,0,1.148.293,1.894,1.894,0,0,0,1.656-.8,3.516,3.516,0,0,0,.563-2.066ZM45.625,0H44.086V-8.453h1.539Zm0-10.617H44.086v-1.57h1.539ZM53.188,0q-.078-.383-.121-.676a4.96,4.96,0,0,1-.051-.59,3.589,3.589,0,0,1-1.121,1.02,2.867,2.867,0,0,1-1.488.41,2.763,2.763,0,0,1-2.012-.676A2.486,2.486,0,0,1,47.7-2.375a2.183,2.183,0,0,1,.98-1.895,4.579,4.579,0,0,1,2.66-.684h1.672v-.836a1.551,1.551,0,0,0-.453-1.176A1.779,1.779,0,0,0,51.281-7.4a1.859,1.859,0,0,0-1.211.375,1.125,1.125,0,0,0-.461.9l-1.461.016-.016-.047A2.023,2.023,0,0,1,49-7.844a3.578,3.578,0,0,1,2.371-.766,3.49,3.49,0,0,1,2.313.73,2.588,2.588,0,0,1,.875,2.105V-1.7a7.923,7.923,0,0,0,.047.875A4.5,4.5,0,0,0,54.773,0ZM50.633-1.125a2.739,2.739,0,0,0,1.508-.43,2.042,2.042,0,0,0,.875-.984V-3.914H51.289a2.24,2.24,0,0,0-1.488.469,1.4,1.4,0,0,0-.559,1.1,1.159,1.159,0,0,0,.352.891A1.472,1.472,0,0,0,50.633-1.125Zm9.516.086a1.81,1.81,0,0,0,1.242-.473,1.494,1.494,0,0,0,.531-1.16h1.391l.023.047A2.428,2.428,0,0,1,62.4-.684a3.312,3.312,0,0,1-2.25.848A3.319,3.319,0,0,1,57.4-1.047a4.674,4.674,0,0,1-.969-3.016v-.328a4.654,4.654,0,0,1,.973-3,3.317,3.317,0,0,1,2.746-1.215,3.189,3.189,0,0,1,2.316.875,2.775,2.775,0,0,1,.871,2.148l-.016.047h-1.4a1.865,1.865,0,0,0-.5-1.316,1.658,1.658,0,0,0-1.27-.543A1.777,1.777,0,0,0,58.5-6.52a4.114,4.114,0,0,0-.52,2.129v.328a4.192,4.192,0,0,0,.512,2.148A1.776,1.776,0,0,0,60.148-1.039ZM66.828,0H65.289V-8.453h1.539Zm0-10.617H65.289v-1.57h1.539ZM68.836-4.3a4.654,4.654,0,0,1,1.016-3.09,3.406,3.406,0,0,1,2.758-1.215A3.439,3.439,0,0,1,75.387-7.4,4.639,4.639,0,0,1,76.406-4.3v.172a4.631,4.631,0,0,1-1.016,3.094,3.429,3.429,0,0,1-2.766,1.2,3.436,3.436,0,0,1-2.77-1.207,4.623,4.623,0,0,1-1.02-3.09Zm1.539.172a4.009,4.009,0,0,0,.566,2.219,1.875,1.875,0,0,0,1.684.875A1.87,1.87,0,0,0,74.3-1.914a3.988,3.988,0,0,0,.57-2.219V-4.3a3.976,3.976,0,0,0-.574-2.211A1.882,1.882,0,0,0,72.609-7.4a1.856,1.856,0,0,0-1.668.883A4.018,4.018,0,0,0,70.375-4.3Zm2.992-7.906h1.8l.016.047-2.1,2.031H71.922Zm6.3,3.586L79.773-7.2a3.069,3.069,0,0,1,1.059-1.043,2.824,2.824,0,0,1,1.449-.371,2.759,2.759,0,0,1,2.117.8,3.515,3.515,0,0,1,.75,2.473V0H83.609V-5.3a2.287,2.287,0,0,0-.441-1.586,1.768,1.768,0,0,0-1.348-.469,2.386,2.386,0,0,0-1.207.285,2.072,2.072,0,0,0-.785.8V0H78.289V-8.453Zm18.9,4.547a4.659,4.659,0,0,1-.875,2.949A2.893,2.893,0,0,1,95.273.164,3.354,3.354,0,0,1,93.9-.1a2.622,2.622,0,0,1-1-.785V3.25H91.359v-11.7h1.18l.242,1.094a2.792,2.792,0,0,1,1.031-.93,3.078,3.078,0,0,1,1.438-.32,2.809,2.809,0,0,1,2.441,1.246,5.638,5.638,0,0,1,.871,3.293ZM97.023-4.07a4.467,4.467,0,0,0-.566-2.363,1.835,1.835,0,0,0-1.668-.926,2.054,2.054,0,0,0-1.133.3,2.25,2.25,0,0,0-.758.824v4.086a2.186,2.186,0,0,0,.758.816,2.126,2.126,0,0,0,1.148.293,1.894,1.894,0,0,0,1.656-.8,3.516,3.516,0,0,0,.563-2.066Zm3.07-.234a4.654,4.654,0,0,1,1.016-3.09,3.406,3.406,0,0,1,2.758-1.215A3.439,3.439,0,0,1,106.645-7.4a4.639,4.639,0,0,1,1.02,3.094v.172a4.631,4.631,0,0,1-1.016,3.094,3.429,3.429,0,0,1-2.766,1.2,3.436,3.436,0,0,1-2.77-1.207,4.623,4.623,0,0,1-1.02-3.09Zm1.539.172a4.009,4.009,0,0,0,.566,2.219,1.875,1.875,0,0,0,1.684.875,1.87,1.87,0,0,0,1.672-.875,3.988,3.988,0,0,0,.57-2.219V-4.3a3.976,3.976,0,0,0-.574-2.211,1.882,1.882,0,0,0-1.684-.883,1.856,1.856,0,0,0-1.668.883,4.018,4.018,0,0,0-.566,2.211Zm11.914-2.961-.789-.047a1.762,1.762,0,0,0-1.027.289,1.854,1.854,0,0,0-.645.813V0h-1.539V-8.453h1.375l.148,1.234a2.934,2.934,0,0,1,.887-1.023,2.073,2.073,0,0,1,1.215-.367,1.9,1.9,0,0,1,.328.027,2.175,2.175,0,0,1,.258.059ZM122.625.164A3.576,3.576,0,0,1,119.785-1a4.48,4.48,0,0,1-1.02-3.062v-.344a4.386,4.386,0,0,1,1.051-3.012,3.3,3.3,0,0,1,2.566-1.191,3.067,3.067,0,0,1,2.543,1.055,4.345,4.345,0,0,1,.848,2.8v.813h-5.406l-.023.039a3.494,3.494,0,0,0,.563,2.066,1.965,1.965,0,0,0,1.719.793A3.872,3.872,0,0,0,124-1.262a3.061,3.061,0,0,0,1.012-.613l.6,1a3.7,3.7,0,0,1-1.2.738A4.762,4.762,0,0,1,122.625.164ZM122.383-7.4a1.673,1.673,0,0,0-1.332.621,2.938,2.938,0,0,0-.645,1.59l.016.039h3.813v-.125a2.462,2.462,0,0,0-.453-1.523A1.638,1.638,0,0,0,122.383-7.4ZM129.164,0h-1.539V-12.187h1.539Zm9.7-1.039a1.81,1.81,0,0,0,1.242-.473,1.493,1.493,0,0,0,.531-1.16h1.391l.023.047a2.428,2.428,0,0,1-.937,1.941,3.312,3.312,0,0,1-2.25.848,3.319,3.319,0,0,1-2.75-1.211,4.674,4.674,0,0,1-.969-3.016v-.328a4.654,4.654,0,0,1,.973-3,3.317,3.317,0,0,1,2.746-1.215,3.189,3.189,0,0,1,2.316.875,2.775,2.775,0,0,1,.871,2.148l-.016.047h-1.4a1.865,1.865,0,0,0-.5-1.316,1.658,1.658,0,0,0-1.27-.543,1.777,1.777,0,0,0-1.652.879,4.114,4.114,0,0,0-.52,2.129v.328a4.192,4.192,0,0,0,.512,2.148A1.776,1.776,0,0,0,138.867-1.039ZM145.547,0h-1.539V-12.187h1.539Zm4.031,0h-1.539V-8.453h1.539Zm0-10.617h-1.539v-1.57h1.539ZM155.445.164A3.576,3.576,0,0,1,152.605-1a4.48,4.48,0,0,1-1.02-3.062v-.344a4.386,4.386,0,0,1,1.051-3.012A3.3,3.3,0,0,1,155.2-8.609a3.067,3.067,0,0,1,2.543,1.055,4.345,4.345,0,0,1,.848,2.8v.813h-5.406l-.023.039a3.494,3.494,0,0,0,.563,2.066,1.965,1.965,0,0,0,1.719.793,3.872,3.872,0,0,0,1.371-.223,3.061,3.061,0,0,0,1.012-.613l.6,1a3.7,3.7,0,0,1-1.2.738A4.762,4.762,0,0,1,155.445.164ZM155.2-7.4a1.673,1.673,0,0,0-1.332.621,2.938,2.938,0,0,0-.645,1.59l.016.039h3.813v-.125A2.462,2.462,0,0,0,156.6-6.8,1.638,1.638,0,0,0,155.2-7.4ZM161.7-8.453,161.8-7.2a3.069,3.069,0,0,1,1.059-1.043,2.824,2.824,0,0,1,1.449-.371,2.759,2.759,0,0,1,2.117.8,3.515,3.515,0,0,1,.75,2.473V0h-1.539V-5.3a2.287,2.287,0,0,0-.441-1.586,1.768,1.768,0,0,0-1.348-.469,2.386,2.386,0,0,0-1.207.285,2.072,2.072,0,0,0-.785.8V0H160.32V-8.453Zm9.859-2.039v2.039h1.6v1.141h-1.6V-2.18a1.149,1.149,0,0,0,.246.836.89.89,0,0,0,.652.242,1.429,1.429,0,0,0,.3-.035,2.2,2.2,0,0,0,.273-.074l.211,1.055a1.36,1.36,0,0,1-.508.23,2.562,2.562,0,0,1-.664.09A1.993,1.993,0,0,1,170.57-.4a2.46,2.46,0,0,1-.555-1.777V-7.312h-1.344V-8.453h1.344v-2.039ZM178.3.164A3.576,3.576,0,0,1,175.465-1a4.48,4.48,0,0,1-1.02-3.062v-.344A4.386,4.386,0,0,1,175.5-7.418a3.3,3.3,0,0,1,2.566-1.191,3.067,3.067,0,0,1,2.543,1.055,4.345,4.345,0,0,1,.848,2.8v.813h-5.406l-.023.039a3.494,3.494,0,0,0,.563,2.066,1.965,1.965,0,0,0,1.719.793,3.872,3.872,0,0,0,1.371-.223,3.061,3.061,0,0,0,1.012-.613l.6,1a3.7,3.7,0,0,1-1.2.738A4.762,4.762,0,0,1,178.3.164ZM178.063-7.4a1.673,1.673,0,0,0-1.332.621,2.938,2.938,0,0,0-.645,1.59l.016.039h3.813v-.125a2.462,2.462,0,0,0-.453-1.523A1.638,1.638,0,0,0,178.063-7.4ZM188.82,0h-1.539V-8.453h1.539Zm0-10.617h-1.539v-1.57h1.539Zm3.742,2.164.109,1.258a3.069,3.069,0,0,1,1.059-1.043,2.824,2.824,0,0,1,1.449-.371,2.759,2.759,0,0,1,2.117.8,3.515,3.515,0,0,1,.75,2.473V0h-1.539V-5.3a2.287,2.287,0,0,0-.441-1.586,1.768,1.768,0,0,0-1.348-.469,2.386,2.386,0,0,0-1.207.285,2.072,2.072,0,0,0-.785.8V0h-1.539V-8.453Zm9.859-2.039v2.039h1.6v1.141h-1.6V-2.18a1.149,1.149,0,0,0,.246.836.89.89,0,0,0,.652.242,1.429,1.429,0,0,0,.3-.035,2.2,2.2,0,0,0,.273-.074L204.1-.156a1.36,1.36,0,0,1-.508.23,2.562,2.562,0,0,1-.664.09A1.993,1.993,0,0,1,201.438-.4a2.46,2.46,0,0,1-.555-1.777V-7.312h-1.344V-8.453h1.344v-2.039ZM209.172.164A3.576,3.576,0,0,1,206.332-1a4.48,4.48,0,0,1-1.02-3.062v-.344a4.386,4.386,0,0,1,1.051-3.012,3.3,3.3,0,0,1,2.566-1.191,3.067,3.067,0,0,1,2.543,1.055,4.345,4.345,0,0,1,.848,2.8v.813h-5.406l-.023.039a3.494,3.494,0,0,0,.563,2.066,1.965,1.965,0,0,0,1.719.793,3.872,3.872,0,0,0,1.371-.223,3.061,3.061,0,0,0,1.012-.613l.6,1a3.7,3.7,0,0,1-1.2.738A4.762,4.762,0,0,1,209.172.164ZM208.93-7.4a1.673,1.673,0,0,0-1.332.621,2.938,2.938,0,0,0-.645,1.59l.016.039h3.813v-.125a2.462,2.462,0,0,0-.453-1.523A1.638,1.638,0,0,0,208.93-7.4Zm9.117.3-.789-.047a1.762,1.762,0,0,0-1.027.289,1.855,1.855,0,0,0-.645.813V0h-1.539V-8.453h1.375l.148,1.234a2.934,2.934,0,0,1,.887-1.023,2.073,2.073,0,0,1,1.215-.367,1.9,1.9,0,0,1,.328.027,2.174,2.174,0,0,1,.258.059Zm2.977-1.359.109,1.258a3.069,3.069,0,0,1,1.059-1.043,2.824,2.824,0,0,1,1.449-.371,2.759,2.759,0,0,1,2.117.8,3.515,3.515,0,0,1,.75,2.473V0h-1.539V-5.3a2.287,2.287,0,0,0-.441-1.586,1.768,1.768,0,0,0-1.348-.469,2.386,2.386,0,0,0-1.207.285,2.072,2.072,0,0,0-.785.8V0h-1.539V-8.453ZM228.383-4.3a4.654,4.654,0,0,1,1.016-3.09,3.406,3.406,0,0,1,2.758-1.215A3.439,3.439,0,0,1,234.934-7.4a4.639,4.639,0,0,1,1.02,3.094v.172a4.631,4.631,0,0,1-1.016,3.094,3.429,3.429,0,0,1-2.766,1.2,3.436,3.436,0,0,1-2.77-1.207,4.623,4.623,0,0,1-1.02-3.09Zm1.539.172a4.009,4.009,0,0,0,.566,2.219,1.875,1.875,0,0,0,1.684.875,1.87,1.87,0,0,0,1.672-.875,3.988,3.988,0,0,0,.57-2.219V-4.3a3.976,3.976,0,0,0-.574-2.211,1.882,1.882,0,0,0-1.684-.883,1.856,1.856,0,0,0-1.668.883,4.018,4.018,0,0,0-.566,2.211Zm14.477,1,.273,1.063h.047L246.8-8.453h1.711L244.953,1.3a4.383,4.383,0,0,1-.918,1.484,2.113,2.113,0,0,1-1.613.633,3.363,3.363,0,0,1-.477-.043q-.289-.043-.445-.082l.156-1.211a2.062,2.062,0,0,1,.277.016q.324.023.41.023a.95.95,0,0,0,.8-.437,4.543,4.543,0,0,0,.523-.969l.367-.883L240.9-8.453h1.719ZM250.18.977h-1.312l4.75-12.352h1.3ZM256.141-4.3a4.654,4.654,0,0,1,1.016-3.09,3.406,3.406,0,0,1,2.758-1.215A3.439,3.439,0,0,1,262.691-7.4a4.639,4.639,0,0,1,1.02,3.094v.172A4.631,4.631,0,0,1,262.7-1.039a3.429,3.429,0,0,1-2.766,1.2,3.436,3.436,0,0,1-2.77-1.207,4.623,4.623,0,0,1-1.02-3.09Zm1.539.172a4.009,4.009,0,0,0,.566,2.219,1.875,1.875,0,0,0,1.684.875,1.87,1.87,0,0,0,1.672-.875,3.988,3.988,0,0,0,.57-2.219V-4.3a3.976,3.976,0,0,0-.574-2.211,1.882,1.882,0,0,0-1.684-.883,1.856,1.856,0,0,0-1.668.883A4.018,4.018,0,0,0,257.68-4.3ZM273.07.164A3.576,3.576,0,0,1,270.23-1a4.48,4.48,0,0,1-1.02-3.062v-.344a4.386,4.386,0,0,1,1.051-3.012,3.3,3.3,0,0,1,2.566-1.191,3.067,3.067,0,0,1,2.543,1.055,4.345,4.345,0,0,1,.848,2.8v.813h-5.406l-.023.039a3.494,3.494,0,0,0,.563,2.066,1.965,1.965,0,0,0,1.719.793,3.872,3.872,0,0,0,1.371-.223,3.061,3.061,0,0,0,1.012-.613l.6,1a3.7,3.7,0,0,1-1.2.738A4.762,4.762,0,0,1,273.07.164ZM272.828-7.4a1.673,1.673,0,0,0-1.332.621,2.938,2.938,0,0,0-.645,1.59l.016.039h3.813v-.125a2.461,2.461,0,0,0-.453-1.523A1.638,1.638,0,0,0,272.828-7.4Zm7.984,2.063,1.8-3.117h1.8l-2.742,4.18L284.484,0h-1.766l-1.875-3.2L278.969,0h-1.781l2.82-4.273-2.742-4.18h1.773Zm7.32-5.156v2.039h1.6v1.141h-1.6V-2.18a1.149,1.149,0,0,0,.246.836.89.89,0,0,0,.652.242,1.43,1.43,0,0,0,.3-.035,2.2,2.2,0,0,0,.273-.074l.211,1.055a1.36,1.36,0,0,1-.508.23,2.562,2.562,0,0,1-.664.09A1.993,1.993,0,0,1,287.148-.4a2.46,2.46,0,0,1-.555-1.777V-7.312H285.25V-8.453h1.344v-2.039ZM294.883.164A3.576,3.576,0,0,1,292.043-1a4.48,4.48,0,0,1-1.02-3.062v-.344a4.386,4.386,0,0,1,1.051-3.012,3.3,3.3,0,0,1,2.566-1.191,3.067,3.067,0,0,1,2.543,1.055,4.345,4.345,0,0,1,.848,2.8v.813h-5.406L292.6-3.9a3.494,3.494,0,0,0,.563,2.066,1.965,1.965,0,0,0,1.719.793,3.872,3.872,0,0,0,1.371-.223,3.061,3.061,0,0,0,1.012-.613l.6,1a3.7,3.7,0,0,1-1.2.738A4.762,4.762,0,0,1,294.883.164ZM294.641-7.4a1.673,1.673,0,0,0-1.332.621,2.938,2.938,0,0,0-.645,1.59l.016.039h3.813v-.125a2.461,2.461,0,0,0-.453-1.523A1.638,1.638,0,0,0,294.641-7.4Zm9.117.3-.789-.047a1.762,1.762,0,0,0-1.027.289,1.854,1.854,0,0,0-.645.813V0h-1.539V-8.453h1.375l.148,1.234a2.934,2.934,0,0,1,.887-1.023,2.073,2.073,0,0,1,1.215-.367,1.9,1.9,0,0,1,.328.027,2.176,2.176,0,0,1,.258.059Zm2.977-1.359.109,1.258A3.069,3.069,0,0,1,307.9-8.238a2.824,2.824,0,0,1,1.449-.371,2.759,2.759,0,0,1,2.117.8,3.515,3.515,0,0,1,.75,2.473V0H310.68V-5.3a2.287,2.287,0,0,0-.441-1.586,1.768,1.768,0,0,0-1.348-.469,2.386,2.386,0,0,0-1.207.285,2.073,2.073,0,0,0-.785.8V0h-1.539V-8.453ZM314.094-4.3a4.654,4.654,0,0,1,1.016-3.09,3.406,3.406,0,0,1,2.758-1.215A3.439,3.439,0,0,1,320.645-7.4a4.639,4.639,0,0,1,1.02,3.094v.172a4.631,4.631,0,0,1-1.016,3.094,3.429,3.429,0,0,1-2.766,1.2,3.436,3.436,0,0,1-2.77-1.207,4.623,4.623,0,0,1-1.02-3.09Zm1.539.172a4.009,4.009,0,0,0,.566,2.219,1.875,1.875,0,0,0,1.684.875,1.87,1.87,0,0,0,1.672-.875,3.988,3.988,0,0,0,.57-2.219V-4.3a3.976,3.976,0,0,0-.574-2.211,1.882,1.882,0,0,0-1.684-.883,1.856,1.856,0,0,0-1.668.883,4.018,4.018,0,0,0-.566,2.211Z" transform="translate(841 11929)" fill="#12263f"/>
      <path id="Trazado_99258" data-name="Trazado 99258" d="M3.328-4.547V0H1.047V-11.375H4.984a4.716,4.716,0,0,1,3.043.887,3,3,0,0,1,1.1,2.473A2.494,2.494,0,0,1,8.66-6.5,3.238,3.238,0,0,1,7.3-5.477a2.448,2.448,0,0,1,1.449.992A3.146,3.146,0,0,1,9.2-2.766v.836a4.135,4.135,0,0,0,.129,1,1.37,1.37,0,0,0,.441.77V0H7.414a1.263,1.263,0,0,1-.4-.828,7.275,7.275,0,0,1-.09-1.117v-.8a1.808,1.808,0,0,0-.465-1.324,1.763,1.763,0,0,0-1.316-.473Zm0-1.758H4.945a2.139,2.139,0,0,0,1.43-.406,1.506,1.506,0,0,0,.469-1.2,1.655,1.655,0,0,0-.473-1.242,1.909,1.909,0,0,0-1.387-.461H3.328ZM14.734.164A3.8,3.8,0,0,1,11.781-1a4.252,4.252,0,0,1-1.062-2.988V-4.3A4.628,4.628,0,0,1,11.75-7.406a3.506,3.506,0,0,1,2.836-1.2A3.282,3.282,0,0,1,17.2-7.566a4.122,4.122,0,0,1,.91,2.809v1.18H13.07l-.023.047a2.284,2.284,0,0,0,.527,1.406,1.766,1.766,0,0,0,1.4.539,4.692,4.692,0,0,0,1.3-.156,5.307,5.307,0,0,0,1.105-.477L18-.812a4.234,4.234,0,0,1-1.375.7A6.1,6.1,0,0,1,14.734.164Zm-.148-7.016a1.267,1.267,0,0,0-1.059.473,2.371,2.371,0,0,0-.449,1.254l.016.039h2.781v-.172a1.974,1.974,0,0,0-.3-1.168A1.127,1.127,0,0,0,14.586-6.852Zm9.422,4.508a.787.787,0,0,0-.363-.645A3.69,3.69,0,0,0,22.3-3.461a5.375,5.375,0,0,1-2.254-.9,1.962,1.962,0,0,1-.77-1.633A2.329,2.329,0,0,1,20.2-7.844a3.717,3.717,0,0,1,2.453-.766,4.011,4.011,0,0,1,2.566.766,2.237,2.237,0,0,1,.926,1.906l-.016.047h-2.2a1.106,1.106,0,0,0-.328-.828,1.3,1.3,0,0,0-.945-.32,1.292,1.292,0,0,0-.867.273.85.85,0,0,0-.32.672.759.759,0,0,0,.332.637,3.7,3.7,0,0,0,1.348.441,5.484,5.484,0,0,1,2.316.918,2.014,2.014,0,0,1,.762,1.668,2.231,2.231,0,0,1-.977,1.867,4.215,4.215,0,0,1-2.578.727A3.918,3.918,0,0,1,20-.691a2.392,2.392,0,0,1-.934-1.949l.016-.047h2.086a1.186,1.186,0,0,0,.445.984,1.838,1.838,0,0,0,1.1.3,1.567,1.567,0,0,0,.965-.254A.824.824,0,0,0,24.008-2.344ZM32.867-1.25A2.87,2.87,0,0,1,31.875-.2a2.63,2.63,0,0,1-1.4.367,2.57,2.57,0,0,1-2.09-.906,4.347,4.347,0,0,1-.754-2.812v-4.9h2.273v4.914a2.729,2.729,0,0,0,.3,1.52,1.081,1.081,0,0,0,.934.41,2.273,2.273,0,0,0,.938-.176,1.58,1.58,0,0,0,.641-.52V-8.453H35V0H33.109ZM39.117,0H36.836V-12.187h2.281Zm4.609-10.523v2.07h1.43v1.6h-1.43v4.3a.982.982,0,0,0,.207.7.727.727,0,0,0,.543.211,2.178,2.178,0,0,0,.313-.02,2.632,2.632,0,0,0,.3-.066L45.281-.07a4.618,4.618,0,0,1-.668.176,3.982,3.982,0,0,1-.707.059A2.431,2.431,0,0,1,42.09-.484a2.843,2.843,0,0,1-.637-2.055V-6.852H40.219v-1.6h1.234v-2.07ZM51.547,0a4.8,4.8,0,0,1-.215-.609,4.239,4.239,0,0,1-.129-.656,3.127,3.127,0,0,1-.93,1.023A2.33,2.33,0,0,1,48.9.164,2.855,2.855,0,0,1,46.852-.52a2.449,2.449,0,0,1-.719-1.863,2.229,2.229,0,0,1,.957-1.926,4.78,4.78,0,0,1,2.793-.684h1.281v-.672a1.315,1.315,0,0,0-.32-.945,1.257,1.257,0,0,0-.953-.336,1.239,1.239,0,0,0-.855.27.941.941,0,0,0-.3.738h-2.2l-.016-.047a2.144,2.144,0,0,1,.934-1.848,4.055,4.055,0,0,1,2.582-.777,3.784,3.784,0,0,1,2.465.766,2.667,2.667,0,0,1,.941,2.2v3.492a6.605,6.605,0,0,0,.09,1.117A5.606,5.606,0,0,0,53.82,0ZM49.461-1.523a1.944,1.944,0,0,0,1.063-.3,1.6,1.6,0,0,0,.641-.687V-3.7H49.883a1.519,1.519,0,0,0-1.1.359,1.181,1.181,0,0,0-.371.883.881.881,0,0,0,.277.684A1.1,1.1,0,0,0,49.461-1.523ZM54.8-4.156a5.493,5.493,0,0,1,.863-3.227A2.8,2.8,0,0,1,58.1-8.609a2.367,2.367,0,0,1,1.141.273,2.744,2.744,0,0,1,.891.781v-4.633h2.289V0H60.477l-.2-1.039a2.826,2.826,0,0,1-.945.895,2.5,2.5,0,0,1-1.25.309A2.858,2.858,0,0,1,55.668-.977,4.871,4.871,0,0,1,54.8-3.992Zm2.273.164a3.443,3.443,0,0,0,.375,1.746,1.306,1.306,0,0,0,1.219.637,1.775,1.775,0,0,0,.859-.2,1.589,1.589,0,0,0,.6-.582v-3.6a1.756,1.756,0,0,0-.6-.621,1.589,1.589,0,0,0-.848-.223,1.287,1.287,0,0,0-1.223.742,4.194,4.194,0,0,0-.387,1.938ZM63.836-4.3a4.536,4.536,0,0,1,1.055-3.1,3.676,3.676,0,0,1,2.922-1.207,3.715,3.715,0,0,1,2.938,1.2,4.512,4.512,0,0,1,1.063,3.1v.164a4.519,4.519,0,0,1-1.059,3.105,3.7,3.7,0,0,1-2.926,1.2,3.709,3.709,0,0,1-2.934-1.2,4.519,4.519,0,0,1-1.059-3.105Zm2.273.164a3.677,3.677,0,0,0,.406,1.855,1.4,1.4,0,0,0,1.313.7,1.389,1.389,0,0,0,1.293-.7,3.653,3.653,0,0,0,.41-1.852V-4.3a3.616,3.616,0,0,0-.414-1.836,1.4,1.4,0,0,0-1.3-.711,1.384,1.384,0,0,0-1.293.715,3.648,3.648,0,0,0-.41,1.832Zm11.68,1.8a.787.787,0,0,0-.363-.645,3.69,3.69,0,0,0-1.348-.473,5.375,5.375,0,0,1-2.254-.9,1.962,1.962,0,0,1-.77-1.633,2.329,2.329,0,0,1,.922-1.852,3.717,3.717,0,0,1,2.453-.766A4.011,4.011,0,0,1,79-7.844a2.237,2.237,0,0,1,.926,1.906l-.016.047H77.7a1.106,1.106,0,0,0-.328-.828,1.3,1.3,0,0,0-.945-.32,1.292,1.292,0,0,0-.867.273.85.85,0,0,0-.32.672.759.759,0,0,0,.332.637,3.7,3.7,0,0,0,1.348.441,5.484,5.484,0,0,1,2.316.918A2.014,2.014,0,0,1,80-2.43a2.231,2.231,0,0,1-.977,1.867,4.215,4.215,0,0,1-2.578.727,3.918,3.918,0,0,1-2.668-.855,2.392,2.392,0,0,1-.934-1.949l.016-.047h2.086a1.186,1.186,0,0,0,.445.984,1.838,1.838,0,0,0,1.1.3,1.567,1.567,0,0,0,.965-.254A.824.824,0,0,0,77.789-2.344Z" transform="translate(215 11969)" fill="#12263f"/>
      <path id="Trazado_99261" data-name="Trazado 99261" d="M2.867-4.562V0H1.328V-11.375H5.68a4.009,4.009,0,0,1,2.832.938A3.207,3.207,0,0,1,9.523-7.969,3.2,3.2,0,0,1,8.512-5.492a4.031,4.031,0,0,1-2.832.93Zm0-1.2H5.68a2.231,2.231,0,0,0,1.727-.621,2.227,2.227,0,0,0,.57-1.566A2.26,2.26,0,0,0,7.4-9.531a2.21,2.21,0,0,0-1.723-.633H2.867ZM14.688.164A3.576,3.576,0,0,1,11.848-1a4.48,4.48,0,0,1-1.02-3.062v-.344a4.386,4.386,0,0,1,1.051-3.012,3.3,3.3,0,0,1,2.566-1.191,3.067,3.067,0,0,1,2.543,1.055,4.345,4.345,0,0,1,.848,2.8v.813H12.43l-.023.039a3.494,3.494,0,0,0,.563,2.066,1.965,1.965,0,0,0,1.719.793,3.872,3.872,0,0,0,1.371-.223,3.061,3.061,0,0,0,1.012-.613l.6,1a3.7,3.7,0,0,1-1.2.738A4.762,4.762,0,0,1,14.688.164ZM14.445-7.4a1.673,1.673,0,0,0-1.332.621,2.938,2.938,0,0,0-.645,1.59l.016.039H16.3v-.125A2.462,2.462,0,0,0,15.844-6.8,1.638,1.638,0,0,0,14.445-7.4Zm9.117.3-.789-.047a1.762,1.762,0,0,0-1.027.289,1.854,1.854,0,0,0-.645.813V0H19.563V-8.453h1.375l.148,1.234a2.934,2.934,0,0,1,.887-1.023,2.073,2.073,0,0,1,1.215-.367,1.9,1.9,0,0,1,.328.027,2.175,2.175,0,0,1,.258.059Zm3.875-3.4v2.039h1.6v1.141h-1.6V-2.18a1.149,1.149,0,0,0,.246.836.89.89,0,0,0,.652.242,1.429,1.429,0,0,0,.3-.035,2.2,2.2,0,0,0,.273-.074l.211,1.055a1.36,1.36,0,0,1-.508.23,2.562,2.562,0,0,1-.664.09A1.993,1.993,0,0,1,26.453-.4,2.46,2.46,0,0,1,25.9-2.18V-7.312H24.555V-8.453H25.9v-2.039ZM32.352,0H30.813V-8.453h1.539Zm0-10.617H30.813v-1.57h1.539Zm3.742,2.164L36.2-7.2a3.069,3.069,0,0,1,1.059-1.043,2.824,2.824,0,0,1,1.449-.371,2.759,2.759,0,0,1,2.117.8,3.515,3.515,0,0,1,.75,2.473V0H40.039V-5.3A2.287,2.287,0,0,0,39.6-6.891a1.768,1.768,0,0,0-1.348-.469,2.386,2.386,0,0,0-1.207.285,2.072,2.072,0,0,0-.785.8V0H34.719V-8.453ZM47.313.164A3.576,3.576,0,0,1,44.473-1a4.48,4.48,0,0,1-1.02-3.062v-.344A4.386,4.386,0,0,1,44.5-7.418,3.3,3.3,0,0,1,47.07-8.609a3.067,3.067,0,0,1,2.543,1.055,4.345,4.345,0,0,1,.848,2.8v.813H45.055l-.023.039a3.494,3.494,0,0,0,.563,2.066,1.965,1.965,0,0,0,1.719.793,3.872,3.872,0,0,0,1.371-.223A3.061,3.061,0,0,0,49.7-1.875l.6,1a3.7,3.7,0,0,1-1.2.738A4.762,4.762,0,0,1,47.313.164ZM47.07-7.4a1.673,1.673,0,0,0-1.332.621,2.938,2.938,0,0,0-.645,1.59l.016.039h3.813v-.125A2.462,2.462,0,0,0,48.469-6.8,1.638,1.638,0,0,0,47.07-7.4Zm6.492-1.055L53.672-7.2A3.069,3.069,0,0,1,54.73-8.238a2.824,2.824,0,0,1,1.449-.371,2.759,2.759,0,0,1,2.117.8,3.515,3.515,0,0,1,.75,2.473V0H57.508V-5.3a2.287,2.287,0,0,0-.441-1.586,1.768,1.768,0,0,0-1.348-.469,2.386,2.386,0,0,0-1.207.285,2.072,2.072,0,0,0-.785.8V0H52.188V-8.453ZM64.641-1.039a1.81,1.81,0,0,0,1.242-.473,1.494,1.494,0,0,0,.531-1.16H67.8l.023.047a2.428,2.428,0,0,1-.937,1.941,3.313,3.313,0,0,1-2.25.848,3.319,3.319,0,0,1-2.75-1.211,4.674,4.674,0,0,1-.969-3.016v-.328a4.654,4.654,0,0,1,.973-3,3.317,3.317,0,0,1,2.746-1.215,3.189,3.189,0,0,1,2.316.875,2.775,2.775,0,0,1,.871,2.148l-.016.047h-1.4a1.865,1.865,0,0,0-.5-1.316,1.658,1.658,0,0,0-1.27-.543,1.777,1.777,0,0,0-1.652.879,4.114,4.114,0,0,0-.52,2.129v.328a4.192,4.192,0,0,0,.512,2.148A1.776,1.776,0,0,0,64.641-1.039ZM71.32,0H69.781V-8.453H71.32Zm0-10.617H69.781v-1.57H71.32ZM78.883,0q-.078-.383-.121-.676a4.96,4.96,0,0,1-.051-.59A3.589,3.589,0,0,1,77.59-.246,2.867,2.867,0,0,1,76.1.164,2.763,2.763,0,0,1,74.09-.512,2.486,2.486,0,0,1,73.4-2.375a2.183,2.183,0,0,1,.98-1.895,4.579,4.579,0,0,1,2.66-.684h1.672v-.836a1.551,1.551,0,0,0-.453-1.176A1.779,1.779,0,0,0,76.977-7.4a1.859,1.859,0,0,0-1.211.375,1.125,1.125,0,0,0-.461.9l-1.461.016-.016-.047a2.023,2.023,0,0,1,.863-1.687,3.578,3.578,0,0,1,2.371-.766,3.49,3.49,0,0,1,2.313.73,2.588,2.588,0,0,1,.875,2.105V-1.7a7.923,7.923,0,0,0,.047.875A4.5,4.5,0,0,0,80.469,0ZM76.328-1.125a2.739,2.739,0,0,0,1.508-.43,2.042,2.042,0,0,0,.875-.984V-3.914H76.984a2.24,2.24,0,0,0-1.488.469,1.4,1.4,0,0,0-.559,1.1,1.159,1.159,0,0,0,.352.891A1.472,1.472,0,0,0,76.328-1.125Z" transform="translate(441 11969)" fill="#12263f"/>
      <path id="Trazado_99262" data-name="Trazado 99262" d="M9.445-3.641l.016.047A3.417,3.417,0,0,1,8.336-.914,4.3,4.3,0,0,1,5.281.164,4.012,4.012,0,0,1,2.137-1.2,5.028,5.028,0,0,1,.922-4.672V-6.7a5.043,5.043,0,0,1,1.215-3.473,4.006,4.006,0,0,1,3.145-1.371,4.416,4.416,0,0,1,3.07,1.027A3.4,3.4,0,0,1,9.461-7.789l-.016.047H7.969a2.539,2.539,0,0,0-.7-1.891,2.7,2.7,0,0,0-1.984-.7A2.424,2.424,0,0,0,3.227-9.289a4.227,4.227,0,0,0-.766,2.578v2.039a4.254,4.254,0,0,0,.766,2.594A2.424,2.424,0,0,0,5.281-1.039,2.71,2.71,0,0,0,7.266-1.73a2.557,2.557,0,0,0,.7-1.91ZM10.891-4.3a4.654,4.654,0,0,1,1.016-3.09,3.406,3.406,0,0,1,2.758-1.215A3.439,3.439,0,0,1,17.441-7.4,4.639,4.639,0,0,1,18.461-4.3v.172a4.631,4.631,0,0,1-1.016,3.094A3.429,3.429,0,0,1,14.68.164a3.436,3.436,0,0,1-2.77-1.207,4.623,4.623,0,0,1-1.02-3.09Zm1.539.172A4.009,4.009,0,0,0,13-1.914a1.875,1.875,0,0,0,1.684.875,1.87,1.87,0,0,0,1.672-.875,3.988,3.988,0,0,0,.57-2.219V-4.3a3.976,3.976,0,0,0-.574-2.211A1.882,1.882,0,0,0,14.664-7.4,1.856,1.856,0,0,0,13-6.516,4.018,4.018,0,0,0,12.43-4.3Zm9.289-4.32L21.828-7.2a3.069,3.069,0,0,1,1.059-1.043,2.824,2.824,0,0,1,1.449-.371,2.759,2.759,0,0,1,2.117.8,3.515,3.515,0,0,1,.75,2.473V0H25.664V-5.3a2.287,2.287,0,0,0-.441-1.586,1.768,1.768,0,0,0-1.348-.469,2.386,2.386,0,0,0-1.207.285,2.072,2.072,0,0,0-.785.8V0H20.344V-8.453Zm12.633,6.18a1.026,1.026,0,0,0-.387-.828A3.732,3.732,0,0,0,32.5-3.664a6.146,6.146,0,0,1-2.293-.9,1.814,1.814,0,0,1-.8-1.547,2.229,2.229,0,0,1,.879-1.766,3.433,3.433,0,0,1,2.277-.734,3.4,3.4,0,0,1,2.328.781,2.239,2.239,0,0,1,.852,1.82l-.016.047H34.258a1.331,1.331,0,0,0-.48-.992A1.717,1.717,0,0,0,32.563-7.4a1.751,1.751,0,0,0-1.215.367,1.146,1.146,0,0,0-.4.875.927.927,0,0,0,.348.773,3.848,3.848,0,0,0,1.434.5,6.058,6.058,0,0,1,2.359.93,1.872,1.872,0,0,1,.8,1.57,2.226,2.226,0,0,1-.91,1.836A3.754,3.754,0,0,1,32.6.164a3.715,3.715,0,0,1-2.547-.82,2.341,2.341,0,0,1-.883-1.914l.016-.047h1.469a1.424,1.424,0,0,0,.609,1.2,2.358,2.358,0,0,0,1.336.379,2.1,2.1,0,0,0,1.285-.348A1.063,1.063,0,0,0,34.352-2.273ZM39.469,0H37.93V-8.453h1.539Zm0-10.617H37.93v-1.57h1.539ZM46.75-2.273a1.026,1.026,0,0,0-.387-.828A3.732,3.732,0,0,0,44.9-3.664a6.146,6.146,0,0,1-2.293-.9,1.814,1.814,0,0,1-.8-1.547,2.229,2.229,0,0,1,.879-1.766,3.433,3.433,0,0,1,2.277-.734,3.4,3.4,0,0,1,2.328.781,2.239,2.239,0,0,1,.852,1.82l-.016.047H46.656a1.331,1.331,0,0,0-.48-.992A1.717,1.717,0,0,0,44.961-7.4a1.751,1.751,0,0,0-1.215.367,1.146,1.146,0,0,0-.4.875.927.927,0,0,0,.348.773,3.848,3.848,0,0,0,1.434.5,6.058,6.058,0,0,1,2.359.93,1.872,1.872,0,0,1,.8,1.57,2.226,2.226,0,0,1-.91,1.836A3.754,3.754,0,0,1,45,.164a3.715,3.715,0,0,1-2.547-.82A2.341,2.341,0,0,1,41.57-2.57l.016-.047h1.469a1.424,1.424,0,0,0,.609,1.2A2.358,2.358,0,0,0,45-1.039a2.1,2.1,0,0,0,1.285-.348A1.063,1.063,0,0,0,46.75-2.273Zm5.594-8.219v2.039h1.6v1.141h-1.6V-2.18a1.149,1.149,0,0,0,.246.836.89.89,0,0,0,.652.242,1.429,1.429,0,0,0,.3-.035,2.2,2.2,0,0,0,.273-.074l.211,1.055a1.36,1.36,0,0,1-.508.23,2.562,2.562,0,0,1-.664.09A1.993,1.993,0,0,1,51.359-.4,2.46,2.46,0,0,1,50.8-2.18V-7.312H49.461V-8.453H50.8v-2.039ZM59.094.164A3.576,3.576,0,0,1,56.254-1a4.48,4.48,0,0,1-1.02-3.062v-.344a4.386,4.386,0,0,1,1.051-3.012,3.3,3.3,0,0,1,2.566-1.191,3.067,3.067,0,0,1,2.543,1.055,4.345,4.345,0,0,1,.848,2.8v.813H56.836l-.023.039a3.494,3.494,0,0,0,.563,2.066,1.965,1.965,0,0,0,1.719.793,3.872,3.872,0,0,0,1.371-.223,3.061,3.061,0,0,0,1.012-.613l.6,1a3.7,3.7,0,0,1-1.2.738A4.762,4.762,0,0,1,59.094.164ZM58.852-7.4a1.673,1.673,0,0,0-1.332.621,2.938,2.938,0,0,0-.645,1.59l.016.039H60.7v-.125A2.462,2.462,0,0,0,60.25-6.8,1.638,1.638,0,0,0,58.852-7.4Zm6.492-1.055L65.453-7.2a3.069,3.069,0,0,1,1.059-1.043,2.824,2.824,0,0,1,1.449-.371,2.759,2.759,0,0,1,2.117.8,3.515,3.515,0,0,1,.75,2.473V0H69.289V-5.3a2.287,2.287,0,0,0-.441-1.586A1.768,1.768,0,0,0,67.5-7.359a2.386,2.386,0,0,0-1.207.285,2.072,2.072,0,0,0-.785.8V0H63.969V-8.453ZM76.422-1.039a1.81,1.81,0,0,0,1.242-.473,1.494,1.494,0,0,0,.531-1.16h1.391l.023.047a2.428,2.428,0,0,1-.937,1.941,3.313,3.313,0,0,1-2.25.848,3.319,3.319,0,0,1-2.75-1.211A4.674,4.674,0,0,1,72.7-4.062v-.328a4.654,4.654,0,0,1,.973-3,3.317,3.317,0,0,1,2.746-1.215,3.189,3.189,0,0,1,2.316.875,2.775,2.775,0,0,1,.871,2.148l-.016.047H78.2a1.865,1.865,0,0,0-.5-1.316,1.658,1.658,0,0,0-1.27-.543,1.777,1.777,0,0,0-1.652.879,4.114,4.114,0,0,0-.52,2.129v.328a4.192,4.192,0,0,0,.512,2.148A1.776,1.776,0,0,0,76.422-1.039ZM83.1,0H81.563V-8.453H83.1Zm0-10.617H81.563v-1.57H83.1ZM90.664,0q-.078-.383-.121-.676a4.96,4.96,0,0,1-.051-.59,3.589,3.589,0,0,1-1.121,1.02,2.867,2.867,0,0,1-1.488.41,2.763,2.763,0,0,1-2.012-.676,2.486,2.486,0,0,1-.691-1.863,2.183,2.183,0,0,1,.98-1.895,4.579,4.579,0,0,1,2.66-.684h1.672v-.836a1.551,1.551,0,0,0-.453-1.176A1.779,1.779,0,0,0,88.758-7.4a1.859,1.859,0,0,0-1.211.375,1.125,1.125,0,0,0-.461.9l-1.461.016-.016-.047a2.023,2.023,0,0,1,.863-1.687,3.578,3.578,0,0,1,2.371-.766,3.49,3.49,0,0,1,2.313.73,2.588,2.588,0,0,1,.875,2.105V-1.7a7.923,7.923,0,0,0,.047.875A4.5,4.5,0,0,0,92.25,0ZM88.109-1.125a2.739,2.739,0,0,0,1.508-.43,2.042,2.042,0,0,0,.875-.984V-3.914H88.766a2.24,2.24,0,0,0-1.488.469,1.4,1.4,0,0,0-.559,1.1,1.159,1.159,0,0,0,.352.891A1.472,1.472,0,0,0,88.109-1.125Z" transform="translate(605 11969)" fill="#12263f"/>
      <path id="Trazado_99263" data-name="Trazado 99263" d="M7.2-2.93H2.922L1.906,0H.336l4.1-11.375h1.32L9.773,0H8.2ZM3.367-4.219h3.4L5.109-9.1H5.063Zm10.3,1.727L13.8-1.9h.047l.148-.594,1.945-5.961h1.57L14.4,0H13.234L10.086-8.453h1.578ZM23.969,0q-.078-.383-.121-.676a4.96,4.96,0,0,1-.051-.59,3.589,3.589,0,0,1-1.121,1.02,2.867,2.867,0,0,1-1.488.41,2.763,2.763,0,0,1-2.012-.676,2.486,2.486,0,0,1-.691-1.863,2.183,2.183,0,0,1,.98-1.895,4.579,4.579,0,0,1,2.66-.684H23.8v-.836a1.551,1.551,0,0,0-.453-1.176A1.779,1.779,0,0,0,22.063-7.4a1.859,1.859,0,0,0-1.211.375,1.125,1.125,0,0,0-.461.9l-1.461.016-.016-.047a2.023,2.023,0,0,1,.863-1.687,3.578,3.578,0,0,1,2.371-.766,3.49,3.49,0,0,1,2.313.73,2.588,2.588,0,0,1,.875,2.105V-1.7a7.923,7.923,0,0,0,.047.875A4.5,4.5,0,0,0,25.555,0ZM21.414-1.125a2.739,2.739,0,0,0,1.508-.43,2.042,2.042,0,0,0,.875-.984V-3.914H22.07a2.24,2.24,0,0,0-1.488.469,1.4,1.4,0,0,0-.559,1.1,1.159,1.159,0,0,0,.352.891A1.472,1.472,0,0,0,21.414-1.125Zm7.531-7.328L29.055-7.2a3.069,3.069,0,0,1,1.059-1.043,2.824,2.824,0,0,1,1.449-.371,2.759,2.759,0,0,1,2.117.8,3.515,3.515,0,0,1,.75,2.473V0H32.891V-5.3a2.287,2.287,0,0,0-.441-1.586A1.768,1.768,0,0,0,31.1-7.359a2.386,2.386,0,0,0-1.207.285,2.072,2.072,0,0,0-.785.8V0H27.57V-8.453ZM40.023-1.039a1.81,1.81,0,0,0,1.242-.473,1.494,1.494,0,0,0,.531-1.16h1.391l.023.047a2.428,2.428,0,0,1-.937,1.941,3.312,3.312,0,0,1-2.25.848,3.319,3.319,0,0,1-2.75-1.211A4.674,4.674,0,0,1,36.3-4.062v-.328a4.654,4.654,0,0,1,.973-3,3.317,3.317,0,0,1,2.746-1.215,3.189,3.189,0,0,1,2.316.875,2.775,2.775,0,0,1,.871,2.148l-.016.047H41.8a1.865,1.865,0,0,0-.5-1.316,1.658,1.658,0,0,0-1.27-.543,1.777,1.777,0,0,0-1.652.879,4.114,4.114,0,0,0-.52,2.129v.328a4.192,4.192,0,0,0,.512,2.148A1.776,1.776,0,0,0,40.023-1.039Zm8.516,1.2A3.576,3.576,0,0,1,45.7-1a4.48,4.48,0,0,1-1.02-3.062v-.344A4.386,4.386,0,0,1,45.73-7.418,3.3,3.3,0,0,1,48.3-8.609,3.067,3.067,0,0,1,50.84-7.555a4.345,4.345,0,0,1,.848,2.8v.813H46.281l-.023.039a3.494,3.494,0,0,0,.563,2.066,1.965,1.965,0,0,0,1.719.793,3.872,3.872,0,0,0,1.371-.223,3.061,3.061,0,0,0,1.012-.613l.6,1a3.7,3.7,0,0,1-1.2.738A4.762,4.762,0,0,1,48.539.164ZM48.3-7.4a1.673,1.673,0,0,0-1.332.621,2.938,2.938,0,0,0-.645,1.59l.016.039h3.813v-.125A2.462,2.462,0,0,0,49.7-6.8,1.638,1.638,0,0,0,48.3-7.4ZM60.891.164A3.576,3.576,0,0,1,58.051-1a4.48,4.48,0,0,1-1.02-3.062v-.344a4.386,4.386,0,0,1,1.051-3.012,3.3,3.3,0,0,1,2.566-1.191,3.067,3.067,0,0,1,2.543,1.055,4.345,4.345,0,0,1,.848,2.8v.813H58.633l-.023.039a3.494,3.494,0,0,0,.563,2.066,1.965,1.965,0,0,0,1.719.793,3.872,3.872,0,0,0,1.371-.223,3.061,3.061,0,0,0,1.012-.613l.6,1a3.7,3.7,0,0,1-1.2.738A4.762,4.762,0,0,1,60.891.164ZM60.648-7.4a1.673,1.673,0,0,0-1.332.621,2.938,2.938,0,0,0-.645,1.59l.016.039H62.5v-.125A2.462,2.462,0,0,0,62.047-6.8,1.638,1.638,0,0,0,60.648-7.4Zm6.492-1.055L67.25-7.2a3.069,3.069,0,0,1,1.059-1.043,2.824,2.824,0,0,1,1.449-.371,2.759,2.759,0,0,1,2.117.8,3.515,3.515,0,0,1,.75,2.473V0H71.086V-5.3a2.287,2.287,0,0,0-.441-1.586A1.768,1.768,0,0,0,69.3-7.359a2.386,2.386,0,0,0-1.207.285,2.072,2.072,0,0,0-.785.8V0H65.766V-8.453ZM80.5,0H78.961V-12.187H80.5Zm7.563,0q-.078-.383-.121-.676a4.96,4.96,0,0,1-.051-.59A3.589,3.589,0,0,1,86.77-.246a2.867,2.867,0,0,1-1.488.41A2.763,2.763,0,0,1,83.27-.512a2.486,2.486,0,0,1-.691-1.863,2.183,2.183,0,0,1,.98-1.895,4.579,4.579,0,0,1,2.66-.684h1.672v-.836a1.551,1.551,0,0,0-.453-1.176A1.779,1.779,0,0,0,86.156-7.4a1.859,1.859,0,0,0-1.211.375,1.125,1.125,0,0,0-.461.9l-1.461.016-.016-.047a2.023,2.023,0,0,1,.863-1.687,3.578,3.578,0,0,1,2.371-.766,3.49,3.49,0,0,1,2.313.73,2.588,2.588,0,0,1,.875,2.105V-1.7a7.923,7.923,0,0,0,.047.875A4.5,4.5,0,0,0,89.648,0ZM85.508-1.125a2.739,2.739,0,0,0,1.508-.43,2.042,2.042,0,0,0,.875-.984V-3.914H86.164a2.24,2.24,0,0,0-1.488.469,1.4,1.4,0,0,0-.559,1.1,1.159,1.159,0,0,0,.352.891A1.472,1.472,0,0,0,85.508-1.125ZM97.016-8.453l.109,1.109a2.871,2.871,0,0,1,1.051-.934,3.158,3.158,0,0,1,1.48-.332,2.615,2.615,0,0,1,1.449.391,2.363,2.363,0,0,1,.91,1.172,3.162,3.162,0,0,1,1.059-1.145,2.769,2.769,0,0,1,1.527-.418,2.531,2.531,0,0,1,2.039.887,4.051,4.051,0,0,1,.75,2.668V0h-1.539V-5.07a2.81,2.81,0,0,0-.43-1.77,1.567,1.567,0,0,0-1.281-.52,1.631,1.631,0,0,0-1.277.547,2.381,2.381,0,0,0-.574,1.383V0h-1.547V-5.07a2.772,2.772,0,0,0-.441-1.738,1.532,1.532,0,0,0-1.27-.551,2.115,2.115,0,0,0-1.156.289,1.867,1.867,0,0,0-.7.813V0H95.641V-8.453ZM113.125.164A3.576,3.576,0,0,1,110.285-1a4.48,4.48,0,0,1-1.02-3.062v-.344a4.386,4.386,0,0,1,1.051-3.012,3.3,3.3,0,0,1,2.566-1.191,3.067,3.067,0,0,1,2.543,1.055,4.345,4.345,0,0,1,.848,2.8v.813h-5.406l-.023.039a3.494,3.494,0,0,0,.563,2.066,1.965,1.965,0,0,0,1.719.793,3.872,3.872,0,0,0,1.371-.223,3.061,3.061,0,0,0,1.012-.613l.6,1a3.7,3.7,0,0,1-1.2.738A4.762,4.762,0,0,1,113.125.164ZM112.883-7.4a1.673,1.673,0,0,0-1.332.621,2.938,2.938,0,0,0-.645,1.59l.016.039h3.813v-.125a2.462,2.462,0,0,0-.453-1.523A1.638,1.638,0,0,0,112.883-7.4Zm4.766,3.328a5.641,5.641,0,0,1,.871-3.289,2.807,2.807,0,0,1,2.441-1.25,3.027,3.027,0,0,1,1.316.273,2.7,2.7,0,0,1,.98.8v-4.648H124.8V0h-1.18l-.234-1.07a2.743,2.743,0,0,1-1.023.922,3.058,3.058,0,0,1-1.414.313,2.9,2.9,0,0,1-2.422-1.121,4.659,4.659,0,0,1-.875-2.949Zm1.539.164a3.588,3.588,0,0,0,.523,2.051,1.828,1.828,0,0,0,1.625.77,2.039,2.039,0,0,0,1.156-.312,2.334,2.334,0,0,0,.766-.875V-6.219a2.37,2.37,0,0,0-.77-.832,2.033,2.033,0,0,0-1.137-.309,1.759,1.759,0,0,0-1.637.914,4.718,4.718,0,0,0-.527,2.375ZM128.758,0h-1.539V-8.453h1.539Zm0-10.617h-1.539v-1.57h1.539Zm5.727,9.578a1.81,1.81,0,0,0,1.242-.473,1.493,1.493,0,0,0,.531-1.16h1.391l.023.047a2.428,2.428,0,0,1-.937,1.941,3.312,3.312,0,0,1-2.25.848,3.319,3.319,0,0,1-2.75-1.211,4.674,4.674,0,0,1-.969-3.016v-.328a4.654,4.654,0,0,1,.973-3,3.317,3.317,0,0,1,2.746-1.215,3.189,3.189,0,0,1,2.316.875,2.775,2.775,0,0,1,.871,2.148l-.016.047h-1.4a1.865,1.865,0,0,0-.5-1.316,1.658,1.658,0,0,0-1.27-.543,1.777,1.777,0,0,0-1.652.879,4.114,4.114,0,0,0-.52,2.129v.328a4.192,4.192,0,0,0,.512,2.148A1.776,1.776,0,0,0,134.484-1.039ZM141.164,0h-1.539V-8.453h1.539Zm0-10.617h-1.539v-1.57h1.539ZM143.172-4.3a4.654,4.654,0,0,1,1.016-3.09,3.406,3.406,0,0,1,2.758-1.215A3.439,3.439,0,0,1,149.723-7.4a4.639,4.639,0,0,1,1.02,3.094v.172a4.631,4.631,0,0,1-1.016,3.094,3.429,3.429,0,0,1-2.766,1.2,3.436,3.436,0,0,1-2.77-1.207,4.623,4.623,0,0,1-1.02-3.09Zm1.539.172a4.009,4.009,0,0,0,.566,2.219,1.875,1.875,0,0,0,1.684.875,1.87,1.87,0,0,0,1.672-.875,3.988,3.988,0,0,0,.57-2.219V-4.3a3.976,3.976,0,0,0-.574-2.211,1.882,1.882,0,0,0-1.684-.883,1.856,1.856,0,0,0-1.668.883,4.018,4.018,0,0,0-.566,2.211Zm2.992-7.906h1.8l.016.047-2.1,2.031h-1.156ZM154-8.453l.109,1.258a3.069,3.069,0,0,1,1.059-1.043,2.824,2.824,0,0,1,1.449-.371,2.759,2.759,0,0,1,2.117.8,3.515,3.515,0,0,1,.75,2.473V0h-1.539V-5.3a2.287,2.287,0,0,0-.441-1.586,1.768,1.768,0,0,0-1.348-.469,2.386,2.386,0,0,0-1.207.285,2.072,2.072,0,0,0-.785.8V0h-1.539V-8.453Z" transform="translate(746 11969)" fill="#12263f"/>
      <path id="Trazado_99269" data-name="Trazado 99269" d="M9.281-10.164H5.531V0H3.992V-10.164H.289v-1.211H9.281ZM13.414.164A3.576,3.576,0,0,1,10.574-1a4.48,4.48,0,0,1-1.02-3.062v-.344a4.386,4.386,0,0,1,1.051-3.012,3.3,3.3,0,0,1,2.566-1.191,3.067,3.067,0,0,1,2.543,1.055,4.345,4.345,0,0,1,.848,2.8v.813H11.156l-.023.039A3.494,3.494,0,0,0,11.7-1.832a1.965,1.965,0,0,0,1.719.793,3.872,3.872,0,0,0,1.371-.223A3.061,3.061,0,0,0,15.8-1.875l.6,1a3.7,3.7,0,0,1-1.2.738A4.762,4.762,0,0,1,13.414.164ZM13.172-7.4a1.673,1.673,0,0,0-1.332.621,2.938,2.938,0,0,0-.645,1.59l.016.039h3.813v-.125A2.462,2.462,0,0,0,14.57-6.8,1.638,1.638,0,0,0,13.172-7.4Zm6.492-1.055L19.773-7.2a3.069,3.069,0,0,1,1.059-1.043,2.824,2.824,0,0,1,1.449-.371,2.759,2.759,0,0,1,2.117.8,3.515,3.515,0,0,1,.75,2.473V0H23.609V-5.3a2.287,2.287,0,0,0-.441-1.586,1.768,1.768,0,0,0-1.348-.469,2.386,2.386,0,0,0-1.207.285,2.072,2.072,0,0,0-.785.8V0H18.289V-8.453ZM27.031-4.07A5.641,5.641,0,0,1,27.9-7.359a2.807,2.807,0,0,1,2.441-1.25,3.027,3.027,0,0,1,1.316.273,2.7,2.7,0,0,1,.98.8v-4.648H34.18V0H33l-.234-1.07a2.743,2.743,0,0,1-1.023.922,3.058,3.058,0,0,1-1.414.313A2.9,2.9,0,0,1,27.906-.957a4.659,4.659,0,0,1-.875-2.949Zm1.539.164a3.588,3.588,0,0,0,.523,2.051,1.828,1.828,0,0,0,1.625.77A2.039,2.039,0,0,0,31.875-1.4a2.334,2.334,0,0,0,.766-.875V-6.219a2.37,2.37,0,0,0-.77-.832,2.033,2.033,0,0,0-1.137-.309,1.759,1.759,0,0,0-1.637.914A4.718,4.718,0,0,0,28.57-4.07ZM39.977.164A3.576,3.576,0,0,1,37.137-1a4.48,4.48,0,0,1-1.02-3.062v-.344a4.386,4.386,0,0,1,1.051-3.012,3.3,3.3,0,0,1,2.566-1.191,3.067,3.067,0,0,1,2.543,1.055,4.345,4.345,0,0,1,.848,2.8v.813H37.719L37.7-3.9a3.494,3.494,0,0,0,.563,2.066,1.965,1.965,0,0,0,1.719.793,3.872,3.872,0,0,0,1.371-.223,3.061,3.061,0,0,0,1.012-.613l.6,1a3.7,3.7,0,0,1-1.2.738A4.762,4.762,0,0,1,39.977.164ZM39.734-7.4a1.673,1.673,0,0,0-1.332.621,2.938,2.938,0,0,0-.645,1.59l.016.039h3.813v-.125A2.462,2.462,0,0,0,41.133-6.8,1.638,1.638,0,0,0,39.734-7.4Zm6.492-1.055L46.336-7.2a3.069,3.069,0,0,1,1.059-1.043,2.824,2.824,0,0,1,1.449-.371,2.759,2.759,0,0,1,2.117.8,3.515,3.515,0,0,1,.75,2.473V0H50.172V-5.3a2.287,2.287,0,0,0-.441-1.586,1.768,1.768,0,0,0-1.348-.469,2.386,2.386,0,0,0-1.207.285,2.072,2.072,0,0,0-.785.8V0H44.852V-8.453ZM57.3-1.039a1.81,1.81,0,0,0,1.242-.473,1.494,1.494,0,0,0,.531-1.16h1.391l.023.047a2.428,2.428,0,0,1-.937,1.941A3.312,3.312,0,0,1,57.3.164a3.319,3.319,0,0,1-2.75-1.211,4.674,4.674,0,0,1-.969-3.016v-.328a4.654,4.654,0,0,1,.973-3A3.317,3.317,0,0,1,57.3-8.609a3.189,3.189,0,0,1,2.316.875,2.775,2.775,0,0,1,.871,2.148l-.016.047h-1.4a1.865,1.865,0,0,0-.5-1.316A1.658,1.658,0,0,0,57.3-7.4a1.777,1.777,0,0,0-1.652.879,4.114,4.114,0,0,0-.52,2.129v.328a4.192,4.192,0,0,0,.512,2.148A1.776,1.776,0,0,0,57.3-1.039ZM63.984,0H62.445V-8.453h1.539Zm0-10.617H62.445v-1.57h1.539ZM71.547,0q-.078-.383-.121-.676a4.96,4.96,0,0,1-.051-.59,3.589,3.589,0,0,1-1.121,1.02,2.867,2.867,0,0,1-1.488.41,2.763,2.763,0,0,1-2.012-.676,2.486,2.486,0,0,1-.691-1.863,2.183,2.183,0,0,1,.98-1.895,4.579,4.579,0,0,1,2.66-.684h1.672v-.836a1.551,1.551,0,0,0-.453-1.176A1.779,1.779,0,0,0,69.641-7.4a1.859,1.859,0,0,0-1.211.375,1.125,1.125,0,0,0-.461.9l-1.461.016-.016-.047a2.023,2.023,0,0,1,.863-1.687,3.578,3.578,0,0,1,2.371-.766,3.49,3.49,0,0,1,2.313.73,2.588,2.588,0,0,1,.875,2.105V-1.7a7.923,7.923,0,0,0,.047.875A4.5,4.5,0,0,0,73.133,0ZM68.992-1.125a2.739,2.739,0,0,0,1.508-.43,2.042,2.042,0,0,0,.875-.984V-3.914H69.648a2.24,2.24,0,0,0-1.488.469,1.4,1.4,0,0,0-.559,1.1,1.159,1.159,0,0,0,.352.891A1.472,1.472,0,0,0,68.992-1.125Z" transform="translate(938 11969)" fill="#12263f"/>
      <path id="Trazado_99268" data-name="Trazado 99268" d="M9.445-3.641l.016.047A3.417,3.417,0,0,1,8.336-.914,4.3,4.3,0,0,1,5.281.164,4.012,4.012,0,0,1,2.137-1.2,5.028,5.028,0,0,1,.922-4.672V-6.7a5.043,5.043,0,0,1,1.215-3.473,4.006,4.006,0,0,1,3.145-1.371,4.416,4.416,0,0,1,3.07,1.027A3.4,3.4,0,0,1,9.461-7.789l-.016.047H7.969a2.539,2.539,0,0,0-.7-1.891,2.7,2.7,0,0,0-1.984-.7A2.424,2.424,0,0,0,3.227-9.289a4.227,4.227,0,0,0-.766,2.578v2.039a4.254,4.254,0,0,0,.766,2.594A2.424,2.424,0,0,0,5.281-1.039,2.71,2.71,0,0,0,7.266-1.73a2.557,2.557,0,0,0,.7-1.91ZM10.891-4.3a4.654,4.654,0,0,1,1.016-3.09,3.406,3.406,0,0,1,2.758-1.215A3.439,3.439,0,0,1,17.441-7.4,4.639,4.639,0,0,1,18.461-4.3v.172a4.631,4.631,0,0,1-1.016,3.094A3.429,3.429,0,0,1,14.68.164a3.436,3.436,0,0,1-2.77-1.207,4.623,4.623,0,0,1-1.02-3.09Zm1.539.172A4.009,4.009,0,0,0,13-1.914a1.875,1.875,0,0,0,1.684.875,1.87,1.87,0,0,0,1.672-.875,3.988,3.988,0,0,0,.57-2.219V-4.3a3.976,3.976,0,0,0-.574-2.211A1.882,1.882,0,0,0,14.664-7.4,1.856,1.856,0,0,0,13-6.516,4.018,4.018,0,0,0,12.43-4.3Zm9.289-4.32.109,1.109a2.871,2.871,0,0,1,1.051-.934,3.158,3.158,0,0,1,1.48-.332,2.615,2.615,0,0,1,1.449.391,2.363,2.363,0,0,1,.91,1.172,3.162,3.162,0,0,1,1.059-1.145A2.769,2.769,0,0,1,29.3-8.609a2.531,2.531,0,0,1,2.039.887,4.051,4.051,0,0,1,.75,2.668V0H30.555V-5.07a2.81,2.81,0,0,0-.43-1.77,1.567,1.567,0,0,0-1.281-.52,1.631,1.631,0,0,0-1.277.547,2.381,2.381,0,0,0-.574,1.383V0H25.445V-5.07A2.772,2.772,0,0,0,25-6.809a1.532,1.532,0,0,0-1.27-.551,2.115,2.115,0,0,0-1.156.289,1.867,1.867,0,0,0-.7.813V0H20.344V-8.453ZM41.531-3.906a4.659,4.659,0,0,1-.875,2.949A2.893,2.893,0,0,1,38.242.164,3.354,3.354,0,0,1,36.871-.1a2.622,2.622,0,0,1-1-.785V3.25H34.328v-11.7h1.18l.242,1.094a2.792,2.792,0,0,1,1.031-.93,3.078,3.078,0,0,1,1.438-.32A2.809,2.809,0,0,1,40.66-7.363a5.637,5.637,0,0,1,.871,3.293ZM39.992-4.07a4.467,4.467,0,0,0-.566-2.363,1.835,1.835,0,0,0-1.668-.926,2.054,2.054,0,0,0-1.133.3,2.25,2.25,0,0,0-.758.824v4.086a2.186,2.186,0,0,0,.758.816,2.126,2.126,0,0,0,1.148.293,1.894,1.894,0,0,0,1.656-.8,3.516,3.516,0,0,0,.563-2.066ZM48.617,0q-.078-.383-.121-.676a4.96,4.96,0,0,1-.051-.59,3.589,3.589,0,0,1-1.121,1.02,2.867,2.867,0,0,1-1.488.41,2.763,2.763,0,0,1-2.012-.676,2.486,2.486,0,0,1-.691-1.863,2.183,2.183,0,0,1,.98-1.895,4.579,4.579,0,0,1,2.66-.684h1.672v-.836a1.551,1.551,0,0,0-.453-1.176A1.779,1.779,0,0,0,46.711-7.4a1.859,1.859,0,0,0-1.211.375,1.125,1.125,0,0,0-.461.9l-1.461.016-.016-.047a2.023,2.023,0,0,1,.863-1.687A3.578,3.578,0,0,1,46.8-8.609a3.49,3.49,0,0,1,2.313.73,2.588,2.588,0,0,1,.875,2.105V-1.7a7.923,7.923,0,0,0,.047.875A4.5,4.5,0,0,0,50.2,0ZM46.063-1.125a2.739,2.739,0,0,0,1.508-.43,2.042,2.042,0,0,0,.875-.984V-3.914H46.719a2.24,2.24,0,0,0-1.488.469,1.4,1.4,0,0,0-.559,1.1,1.159,1.159,0,0,0,.352.891A1.472,1.472,0,0,0,46.063-1.125ZM56.219-7.094l-.789-.047a1.762,1.762,0,0,0-1.027.289,1.855,1.855,0,0,0-.645.813V0H52.219V-8.453h1.375l.148,1.234a2.934,2.934,0,0,1,.887-1.023,2.073,2.073,0,0,1,1.215-.367,1.9,1.9,0,0,1,.328.027,2.175,2.175,0,0,1,.258.059ZM63.016,0q-.078-.383-.121-.676a4.96,4.96,0,0,1-.051-.59,3.589,3.589,0,0,1-1.121,1.02,2.867,2.867,0,0,1-1.488.41,2.763,2.763,0,0,1-2.012-.676,2.486,2.486,0,0,1-.691-1.863,2.183,2.183,0,0,1,.98-1.895,4.579,4.579,0,0,1,2.66-.684h1.672v-.836a1.551,1.551,0,0,0-.453-1.176A1.779,1.779,0,0,0,61.109-7.4a1.859,1.859,0,0,0-1.211.375,1.125,1.125,0,0,0-.461.9l-1.461.016-.016-.047a2.023,2.023,0,0,1,.863-1.687A3.578,3.578,0,0,1,61.2-8.609a3.49,3.49,0,0,1,2.313.73,2.588,2.588,0,0,1,.875,2.105V-1.7a7.923,7.923,0,0,0,.047.875A4.5,4.5,0,0,0,64.6,0ZM60.461-1.125a2.739,2.739,0,0,0,1.508-.43,2.042,2.042,0,0,0,.875-.984V-3.914H61.117a2.24,2.24,0,0,0-1.488.469,1.4,1.4,0,0,0-.559,1.1,1.159,1.159,0,0,0,.352.891A1.472,1.472,0,0,0,60.461-1.125Zm9.516.086a1.81,1.81,0,0,0,1.242-.473,1.494,1.494,0,0,0,.531-1.16h1.391l.023.047a2.428,2.428,0,0,1-.937,1.941,3.313,3.313,0,0,1-2.25.848,3.319,3.319,0,0,1-2.75-1.211,4.674,4.674,0,0,1-.969-3.016v-.328a4.654,4.654,0,0,1,.973-3,3.317,3.317,0,0,1,2.746-1.215,3.189,3.189,0,0,1,2.316.875,2.775,2.775,0,0,1,.871,2.148l-.016.047h-1.4a1.865,1.865,0,0,0-.5-1.316,1.658,1.658,0,0,0-1.27-.543,1.777,1.777,0,0,0-1.652.879,4.114,4.114,0,0,0-.52,2.129v.328a4.192,4.192,0,0,0,.512,2.148A1.776,1.776,0,0,0,69.977-1.039ZM76.656,0H75.117V-8.453h1.539Zm0-10.617H75.117v-1.57h1.539ZM78.664-4.3a4.654,4.654,0,0,1,1.016-3.09,3.406,3.406,0,0,1,2.758-1.215A3.439,3.439,0,0,1,85.215-7.4,4.639,4.639,0,0,1,86.234-4.3v.172a4.631,4.631,0,0,1-1.016,3.094,3.429,3.429,0,0,1-2.766,1.2,3.436,3.436,0,0,1-2.77-1.207,4.623,4.623,0,0,1-1.02-3.09Zm1.539.172a4.009,4.009,0,0,0,.566,2.219,1.875,1.875,0,0,0,1.684.875,1.87,1.87,0,0,0,1.672-.875,3.988,3.988,0,0,0,.57-2.219V-4.3a3.976,3.976,0,0,0-.574-2.211A1.882,1.882,0,0,0,82.438-7.4a1.856,1.856,0,0,0-1.668.883A4.018,4.018,0,0,0,80.2-4.3ZM83.2-12.039h1.8l.016.047-2.1,2.031H81.75Zm6.3,3.586L89.6-7.2A3.069,3.069,0,0,1,90.66-8.238a2.824,2.824,0,0,1,1.449-.371,2.759,2.759,0,0,1,2.117.8,3.515,3.515,0,0,1,.75,2.473V0H93.438V-5.3A2.287,2.287,0,0,0,93-6.891a1.768,1.768,0,0,0-1.348-.469,2.386,2.386,0,0,0-1.207.285,2.072,2.072,0,0,0-.785.8V0H88.117V-8.453Z" transform="translate(1095 11969)" fill="#12263f"/>
      <path id="Trazado_99266" data-name="Trazado 99266" d="M5.607-3.472l.088.466h.053l.088-.431,2.54-9.36h3.111L7.339,0H4.131L0-12.8H3.1ZM17.42-.009a3.588,3.588,0,0,1-.286-.677,5.189,5.189,0,0,1-.18-.791A3.634,3.634,0,0,1,16-.268,2.3,2.3,0,0,1,14.52.185a3.293,3.293,0,0,1-2.325-.769,2.717,2.717,0,0,1-.831-2.1,2.535,2.535,0,0,1,1.063-2.184,5.513,5.513,0,0,1,3.226-.769h1.222v-.677a1.355,1.355,0,0,0-.29-.932,1.13,1.13,0,0,0-.888-.325,1.071,1.071,0,0,0-.769.242,1,1,0,0,0-.25.751l-2.883-.009-.018-.053a2.481,2.481,0,0,1,1.085-2.175,4.864,4.864,0,0,1,3.028-.875,4.429,4.429,0,0,1,2.861.879,3.037,3.037,0,0,1,1.094,2.514v3.586A7.315,7.315,0,0,0,19.973-1.3,7.531,7.531,0,0,0,20.355,0ZM15.328-1.934a1.81,1.81,0,0,0,.962-.255,1.459,1.459,0,0,0,.584-.606V-4.052h-1.2a1.343,1.343,0,0,0-1.028.343,1.233,1.233,0,0,0-.316.87.841.841,0,0,0,.277.655A1.027,1.027,0,0,0,15.328-1.934Zm11.4-5.045-.967-.009a1.646,1.646,0,0,0-.835.189,1.166,1.166,0,0,0-.483.532V0H21.472V-9.51h2.795l.105,1.4a2.867,2.867,0,0,1,.791-1.16,1.736,1.736,0,0,1,1.151-.413,2.209,2.209,0,0,1,.36.026,2.726,2.726,0,0,1,.334.079ZM30.929,0H27.949V-9.51h2.979Zm0-11.716H27.949v-2h2.979ZM38.241-.009a3.588,3.588,0,0,1-.286-.677,5.189,5.189,0,0,1-.18-.791,3.634,3.634,0,0,1-.954,1.208,2.3,2.3,0,0,1-1.481.453,3.293,3.293,0,0,1-2.325-.769,2.717,2.717,0,0,1-.831-2.1,2.535,2.535,0,0,1,1.063-2.184,5.513,5.513,0,0,1,3.226-.769H37.7v-.677a1.355,1.355,0,0,0-.29-.932,1.13,1.13,0,0,0-.888-.325,1.071,1.071,0,0,0-.769.242,1,1,0,0,0-.25.751l-2.883-.009L32.6-6.636a2.481,2.481,0,0,1,1.085-2.175,4.864,4.864,0,0,1,3.028-.875,4.429,4.429,0,0,1,2.861.879,3.037,3.037,0,0,1,1.094,2.514v3.586A7.315,7.315,0,0,0,40.794-1.3,7.531,7.531,0,0,0,41.177,0ZM36.149-1.934a1.81,1.81,0,0,0,.962-.255,1.459,1.459,0,0,0,.584-.606V-4.052H36.5a1.343,1.343,0,0,0-1.028.343,1.233,1.233,0,0,0-.316.87.841.841,0,0,0,.277.655A1.027,1.027,0,0,0,36.149-1.934ZM51.1-4.553A5.761,5.761,0,0,1,50.168-1.1,3.192,3.192,0,0,1,47.408.185a2.665,2.665,0,0,1-1.354-.334,2.944,2.944,0,0,1-.993-.967L44.886,0H42.293V-13.711h2.971v5.124a2.865,2.865,0,0,1,.918-.813,2.481,2.481,0,0,1,1.208-.286,3.159,3.159,0,0,1,2.773,1.345,6.2,6.2,0,0,1,.936,3.6Zm-2.962-.185A4.889,4.889,0,0,0,47.821-6.7a1.175,1.175,0,0,0-1.178-.7,1.782,1.782,0,0,0-.831.18,1.348,1.348,0,0,0-.549.523v4a1.3,1.3,0,0,0,.558.448,2.118,2.118,0,0,0,.839.149,1.182,1.182,0,0,0,1.178-.611,4.364,4.364,0,0,0,.3-1.841ZM55.521,0H52.541V-13.711h2.979Zm6.038.185a4.415,4.415,0,0,1-3.388-1.31,4.657,4.657,0,0,1-1.226-3.313v-.334A5.321,5.321,0,0,1,58.1-8.323a4.106,4.106,0,0,1,3.344-1.362,3.851,3.851,0,0,1,2.984,1.151,4.482,4.482,0,0,1,1.059,3.155v1.556H60.038l-.018.053a1.847,1.847,0,0,0,.554,1.208,1.934,1.934,0,0,0,1.389.461,6.019,6.019,0,0,0,1.419-.141,8.948,8.948,0,0,0,1.3-.448l.712,1.811a5.436,5.436,0,0,1-1.652.756A7.626,7.626,0,0,1,61.559.185ZM61.444-7.4a1.226,1.226,0,0,0-1.05.453A2.271,2.271,0,0,0,60-5.722l.018.044h2.566v-.229a1.976,1.976,0,0,0-.259-1.116A.994.994,0,0,0,61.444-7.4ZM71.7-2.672a.775.775,0,0,0-.4-.628,4.313,4.313,0,0,0-1.455-.5,5.742,5.742,0,0,1-2.5-1.006A2.28,2.28,0,0,1,66.5-6.68a2.674,2.674,0,0,1,1.055-2.131,4.338,4.338,0,0,1,2.856-.875,4.905,4.905,0,0,1,3.023.848A2.494,2.494,0,0,1,74.5-6.645l-.018.053H71.6a1.178,1.178,0,0,0-.281-.853,1.244,1.244,0,0,0-.923-.29,1.207,1.207,0,0,0-.782.255.8.8,0,0,0-.316.65.774.774,0,0,0,.365.642,4.126,4.126,0,0,0,1.472.475,5.914,5.914,0,0,1,2.584,1.024,2.348,2.348,0,0,1,.835,1.929A2.519,2.519,0,0,1,73.419-.646a4.992,4.992,0,0,1-3.01.831A4.514,4.514,0,0,1,67.337-.8,2.712,2.712,0,0,1,66.261-3l.018-.053h2.689a1.192,1.192,0,0,0,.409.976,1.8,1.8,0,0,0,1.112.3,1.484,1.484,0,0,0,.905-.233A.783.783,0,0,0,71.7-2.672Z" transform="translate(776 11849)" fill="#12263f"/>
    </g>
    <path id="Trazado_99270" data-name="Trazado 99270" d="M-57.5-5.273h-4.672V-1.2H-56.7V0h-7.008V-11.375h6.922v1.211h-5.383v3.68H-57.5Zm3.781-3.18.109,1.258a3.069,3.069,0,0,1,1.059-1.043A2.824,2.824,0,0,1-51.1-8.609a2.759,2.759,0,0,1,2.117.8,3.515,3.515,0,0,1,.75,2.473V0H-49.77V-5.3a2.287,2.287,0,0,0-.441-1.586,1.768,1.768,0,0,0-1.348-.469,2.386,2.386,0,0,0-1.207.285,2.072,2.072,0,0,0-.785.8V0H-55.09V-8.453ZM-45.355,0V-7.312h-1.32V-8.453h1.32v-1.07a2.9,2.9,0,0,1,.707-2.09,2.6,2.6,0,0,1,1.973-.738,3.4,3.4,0,0,1,.535.043q.27.043.6.121l-.187,1.172q-.141-.031-.34-.055a3.579,3.579,0,0,0-.418-.023,1.215,1.215,0,0,0-1,.4,1.809,1.809,0,0,0-.328,1.168v1.07h1.531v1.141h-1.531V0Zm4.266-4.3a4.654,4.654,0,0,1,1.016-3.09,3.406,3.406,0,0,1,2.758-1.215A3.439,3.439,0,0,1-34.539-7.4,4.639,4.639,0,0,1-33.52-4.3v.172a4.631,4.631,0,0,1-1.016,3.094A3.429,3.429,0,0,1-37.3.164a3.436,3.436,0,0,1-2.77-1.207,4.623,4.623,0,0,1-1.02-3.09Zm1.539.172a4.009,4.009,0,0,0,.566,2.219,1.875,1.875,0,0,0,1.684.875,1.87,1.87,0,0,0,1.672-.875,3.988,3.988,0,0,0,.57-2.219V-4.3a3.976,3.976,0,0,0-.574-2.211A1.882,1.882,0,0,0-37.316-7.4a1.856,1.856,0,0,0-1.668.883A4.018,4.018,0,0,0-39.551-4.3Zm7.563.063a5.641,5.641,0,0,1,.871-3.289,2.807,2.807,0,0,1,2.441-1.25,2.984,2.984,0,0,1,1.352.293,2.8,2.8,0,0,1,1,.848l.219-.984h1.18V3.25h-1.539V-.8a2.638,2.638,0,0,1-.961.719,3.135,3.135,0,0,1-1.266.242A2.9,2.9,0,0,1-31.113-.957a4.659,4.659,0,0,1-.875-2.949Zm1.539.164a3.684,3.684,0,0,0,.527,2.074,1.811,1.811,0,0,0,1.621.793,2,2,0,0,0,1.082-.281,2.312,2.312,0,0,0,.754-.789V-6.375a2.329,2.329,0,0,0-.754-.75A2.011,2.011,0,0,0-28.285-7.4a1.754,1.754,0,0,0-1.633.934,4.8,4.8,0,0,0-.531,2.395ZM-17.176-1.25A2.863,2.863,0,0,1-18.2-.2a2.8,2.8,0,0,1-1.445.367A2.716,2.716,0,0,1-21.8-.719a4.1,4.1,0,0,1-.773-2.75V-8.453h1.539v5a3.147,3.147,0,0,0,.4,1.859,1.481,1.481,0,0,0,1.242.508,2.531,2.531,0,0,0,1.355-.332,2.077,2.077,0,0,0,.809-.941V-8.453h1.539V0h-1.383ZM-9.949.164A3.576,3.576,0,0,1-12.789-1a4.48,4.48,0,0,1-1.02-3.062v-.344a4.386,4.386,0,0,1,1.051-3.012,3.3,3.3,0,0,1,2.566-1.191A3.067,3.067,0,0,1-7.648-7.555,4.345,4.345,0,0,1-6.8-4.75v.813h-5.406l-.023.039a3.494,3.494,0,0,0,.563,2.066,1.965,1.965,0,0,0,1.719.793,3.872,3.872,0,0,0,1.371-.223,3.061,3.061,0,0,0,1.012-.613l.6,1a3.7,3.7,0,0,1-1.2.738A4.762,4.762,0,0,1-9.949.164ZM-10.191-7.4a1.673,1.673,0,0,0-1.332.621,2.938,2.938,0,0,0-.645,1.59l.016.039H-8.34v-.125A2.462,2.462,0,0,0-8.793-6.8,1.638,1.638,0,0,0-10.191-7.4Zm16.3,3.492A4.659,4.659,0,0,1,5.23-.957,2.893,2.893,0,0,1,2.816.164,3.354,3.354,0,0,1,1.445-.1a2.622,2.622,0,0,1-1-.785V3.25H-1.1v-11.7H.082L.324-7.359a2.792,2.792,0,0,1,1.031-.93,3.078,3.078,0,0,1,1.438-.32A2.809,2.809,0,0,1,5.234-7.363,5.638,5.638,0,0,1,6.105-4.07ZM4.566-4.07A4.467,4.467,0,0,0,4-6.434a1.835,1.835,0,0,0-1.668-.926,2.054,2.054,0,0,0-1.133.3,2.25,2.25,0,0,0-.758.824v4.086a2.186,2.186,0,0,0,.758.816,2.126,2.126,0,0,0,1.148.293A1.894,1.894,0,0,0,4-1.84a3.516,3.516,0,0,0,.563-2.066ZM12-7.094l-.789-.047a1.762,1.762,0,0,0-1.027.289,1.855,1.855,0,0,0-.645.813V0H8V-8.453H9.371L9.52-7.219a2.934,2.934,0,0,1,.887-1.023,2.073,2.073,0,0,1,1.215-.367,1.9,1.9,0,0,1,.328.027,2.175,2.175,0,0,1,.258.059ZM13.082-4.3A4.654,4.654,0,0,1,14.1-7.395a3.406,3.406,0,0,1,2.758-1.215A3.439,3.439,0,0,1,19.633-7.4,4.639,4.639,0,0,1,20.652-4.3v.172a4.631,4.631,0,0,1-1.016,3.094,3.429,3.429,0,0,1-2.766,1.2A3.436,3.436,0,0,1,14.1-1.043a4.623,4.623,0,0,1-1.02-3.09Zm1.539.172a4.009,4.009,0,0,0,.566,2.219,1.875,1.875,0,0,0,1.684.875,1.87,1.87,0,0,0,1.672-.875,3.988,3.988,0,0,0,.57-2.219V-4.3a3.976,3.976,0,0,0-.574-2.211A1.882,1.882,0,0,0,16.855-7.4a1.856,1.856,0,0,0-1.668.883A4.018,4.018,0,0,0,14.621-4.3ZM27.73,0q-.078-.383-.121-.676a4.96,4.96,0,0,1-.051-.59,3.589,3.589,0,0,1-1.121,1.02,2.867,2.867,0,0,1-1.488.41,2.763,2.763,0,0,1-2.012-.676,2.486,2.486,0,0,1-.691-1.863,2.183,2.183,0,0,1,.98-1.895,4.579,4.579,0,0,1,2.66-.684h1.672v-.836a1.551,1.551,0,0,0-.453-1.176A1.779,1.779,0,0,0,25.824-7.4a1.859,1.859,0,0,0-1.211.375,1.125,1.125,0,0,0-.461.9l-1.461.016-.016-.047a2.023,2.023,0,0,1,.863-1.687,3.578,3.578,0,0,1,2.371-.766,3.49,3.49,0,0,1,2.313.73A2.588,2.588,0,0,1,29.1-5.773V-1.7a7.923,7.923,0,0,0,.047.875A4.5,4.5,0,0,0,29.316,0ZM25.176-1.125a2.739,2.739,0,0,0,1.508-.43,2.042,2.042,0,0,0,.875-.984V-3.914H25.832a2.24,2.24,0,0,0-1.488.469,1.4,1.4,0,0,0-.559,1.1,1.159,1.159,0,0,0,.352.891A1.472,1.472,0,0,0,25.176-1.125Zm9.516.086a1.81,1.81,0,0,0,1.242-.473,1.494,1.494,0,0,0,.531-1.16h1.391l.023.047a2.428,2.428,0,0,1-.937,1.941,3.312,3.312,0,0,1-2.25.848,3.319,3.319,0,0,1-2.75-1.211,4.674,4.674,0,0,1-.969-3.016v-.328a4.654,4.654,0,0,1,.973-3,3.317,3.317,0,0,1,2.746-1.215,3.189,3.189,0,0,1,2.316.875,2.775,2.775,0,0,1,.871,2.148l-.016.047h-1.4a1.865,1.865,0,0,0-.5-1.316,1.658,1.658,0,0,0-1.27-.543,1.777,1.777,0,0,0-1.652.879,4.114,4.114,0,0,0-.52,2.129v.328a4.192,4.192,0,0,0,.512,2.148A1.776,1.776,0,0,0,34.691-1.039Zm7.156-9.453v2.039h1.6v1.141h-1.6V-2.18a1.149,1.149,0,0,0,.246.836.89.89,0,0,0,.652.242,1.429,1.429,0,0,0,.3-.035,2.2,2.2,0,0,0,.273-.074l.211,1.055a1.36,1.36,0,0,1-.508.23,2.562,2.562,0,0,1-.664.09A1.993,1.993,0,0,1,40.863-.4a2.46,2.46,0,0,1-.555-1.777V-7.312H38.965V-8.453h1.344v-2.039ZM46.762,0H45.223V-8.453h1.539Zm0-10.617H45.223v-1.57h1.539Zm5.188,8.125.133.594h.047l.148-.594,1.945-5.961h1.57L52.684,0H51.52L48.371-8.453h1.578ZM56.7-4.3a4.654,4.654,0,0,1,1.016-3.09,3.406,3.406,0,0,1,2.758-1.215A3.439,3.439,0,0,1,63.25-7.4,4.639,4.639,0,0,1,64.27-4.3v.172a4.631,4.631,0,0,1-1.016,3.094,3.429,3.429,0,0,1-2.766,1.2,3.436,3.436,0,0,1-2.77-1.207,4.623,4.623,0,0,1-1.02-3.09Zm1.539.172A4.009,4.009,0,0,0,58.8-1.914a1.875,1.875,0,0,0,1.684.875,1.87,1.87,0,0,0,1.672-.875,3.988,3.988,0,0,0,.57-2.219V-4.3a3.976,3.976,0,0,0-.574-2.211A1.882,1.882,0,0,0,60.473-7.4a1.856,1.856,0,0,0-1.668.883A4.018,4.018,0,0,0,58.238-4.3Z" transform="translate(815 11889)" fill="#12263f"/>
  </g>
</svg>
