<svg xmlns="http://www.w3.org/2000/svg" width="61.828" height="60" viewBox="0 0 61.828 60">
  <g id="Grupo_53543" data-name="Grupo 53543" transform="translate(-141 -9873.501)">
    <ellipse id="Elipse_1195" data-name="Elipse 1195" cx="30.914" cy="30" rx="30.914" ry="30" transform="translate(141 9873.501)" fill="#9a4cbc"/>
    <path id="Trazado_99210" data-name="Trazado 99210" d="M18.076,21.808l.029.088a6.856,6.856,0,0,1-2.058,5.53,8.73,8.73,0,0,1-6,1.882A8.54,8.54,0,0,1,3.7,26.891a8.6,8.6,0,0,1-2.4-6.328V16.109A8.791,8.791,0,0,1,3.611,9.789a8.032,8.032,0,0,1,6.1-2.424,9.4,9.4,0,0,1,6.277,1.89,6.662,6.662,0,0,1,2.161,5.493l-.044.088H13.286a3.92,3.92,0,0,0-.835-2.812,3.726,3.726,0,0,0-2.739-.85,2.9,2.9,0,0,0-2.563,1.34,6.337,6.337,0,0,0-.894,3.567v4.482a5.965,5.965,0,0,0,.981,3.589A3.269,3.269,0,0,0,10.049,25.5a3.132,3.132,0,0,0,2.454-.85,4.261,4.261,0,0,0,.754-2.842Z" transform="translate(161.837 9883.501)" fill="#fff"/>
  </g>
</svg>
