<svg xmlns="http://www.w3.org/2000/svg" width="76" height="76" viewBox="0 0 76 76">
  <g id="Grupo_53532" data-name="Grupo 53532" transform="translate(-231 -8684)">
    <g id="Elipse_25" data-name="Elipse 25" transform="translate(231 8684)" fill="#f3f9ff" stroke="#9a4cbc" stroke-width="2">
      <circle cx="38" cy="38" r="38" stroke="none"/>
      <circle cx="38" cy="38" r="37" fill="none"/>
    </g>
    <g id="hospitalizacion" transform="translate(243 8654.295)">
      <g id="Grupo_53323" data-name="Grupo 53323" transform="translate(0.776 61.678)">
        <path id="Trazado_98706" data-name="Trazado 98706" d="M47.425,192.59H8.943a1.38,1.38,0,0,0-1.38,1.38V215.5H48.805V193.97A1.38,1.38,0,0,0,47.425,192.59Z" transform="translate(-7.563 -192.59)" fill="#eedfda"/>
      </g>
      <g id="Grupo_53324" data-name="Grupo 53324" transform="translate(38.374 61.678)">
        <path id="Trazado_98707" data-name="Trazado 98707" d="M376.135,192.59h-2.252a1.392,1.392,0,0,1,1.392,1.392V215.5h2.252V193.982A1.392,1.392,0,0,0,376.135,192.59Z" transform="translate(-373.883 -192.59)" fill="#c9beb9"/>
      </g>
      <g id="Grupo_53325" data-name="Grupo 53325" transform="translate(4.855 55.081)">
        <path id="Trazado_98708" data-name="Trazado 98708" d="M79.755,146.787a2.71,2.71,0,0,1,.066-1.391,6.821,6.821,0,0,0,.319-2.067V135.3a6.825,6.825,0,0,0-.313-2.05,2.711,2.711,0,0,1-.063-1.385l.572-2.655a.737.737,0,0,0-.876-.876l-2.581.557a2.7,2.7,0,0,1-1.422-.075,6.806,6.806,0,0,0-2.148-.346H54.344a6.806,6.806,0,0,0-2.148.346,2.7,2.7,0,0,1-1.422.075l-2.581-.557a.737.737,0,0,0-.876.876l.572,2.655a2.711,2.711,0,0,1-.063,1.385,6.825,6.825,0,0,0-.313,2.05v8.029a6.82,6.82,0,0,0,.319,2.067,2.711,2.711,0,0,1,.066,1.391l-.58,2.692a.737.737,0,0,0,.876.876l2.692-.58a2.71,2.71,0,0,1,1.391.066,6.82,6.82,0,0,0,2.067.319H73.309a6.82,6.82,0,0,0,2.067-.319,2.711,2.711,0,0,1,1.391-.066l2.692.58a.737.737,0,0,0,.876-.876Z" transform="translate(-47.3 -128.317)" fill="#80b4fb"/>
      </g>
      <g id="Grupo_53326" data-name="Grupo 53326" transform="translate(4.855 55.081)">
        <path id="Trazado_98709" data-name="Trazado 98709" d="M79.756,146.787a2.71,2.71,0,0,1,.066-1.391,6.821,6.821,0,0,0,.319-2.067V135.3a6.825,6.825,0,0,0-.313-2.05,2.711,2.711,0,0,1-.063-1.385l.572-2.655a.737.737,0,0,0-.876-.876l-2.581.557a2.705,2.705,0,0,1-1.37-.06c.012.047.025.094.039.14a6.825,6.825,0,0,1,.313,2.05v8.029a6.82,6.82,0,0,1-.319,2.067,2.712,2.712,0,0,0-.066,1.391l.58,2.692a.737.737,0,0,1-.876.876l-2.692-.58a2.71,2.71,0,0,0-1.391.066,6.82,6.82,0,0,1-2.067.319H50.065A6.82,6.82,0,0,1,48,145.561c-.043-.014-.086-.025-.129-.036a2.711,2.711,0,0,1,.029,1.263l-.58,2.692a.737.737,0,0,0,.876.876l2.692-.58a2.71,2.71,0,0,1,1.391.066,6.821,6.821,0,0,0,2.067.319H73.31a6.821,6.821,0,0,0,2.067-.319,2.712,2.712,0,0,1,1.391-.066l2.692.58a.737.737,0,0,0,.876-.876Z" transform="translate(-47.301 -128.317)" fill="#61a2f9"/>
      </g>
      <g id="Grupo_53327" data-name="Grupo 53327" transform="translate(3.682 70.788)">
        <path id="Trazado_98710" data-name="Trazado 98710" d="M62.216,281.343H44.933a9.058,9.058,0,0,0-9.058,9.058v4.463h35.4V290.4A9.058,9.058,0,0,0,62.216,281.343Z" transform="translate(-35.875 -281.343)" fill="#f9f5f5"/>
      </g>
      <g id="Grupo_53328" data-name="Grupo 53328" transform="translate(26.122 70.788)">
        <path id="Trazado_98711" data-name="Trazado 98711" d="M258.336,281.343h-3.824a9.134,9.134,0,0,1,9.134,9.134v4.386h3.824v-4.386A9.134,9.134,0,0,0,258.336,281.343Z" transform="translate(-254.512 -281.343)" fill="#eedfda"/>
      </g>
      <g id="Grupo_53329" data-name="Grupo 53329" transform="translate(16.924 66.851)">
        <path id="Trazado_98712" data-name="Trazado 98712" d="M172.4,249.363H166.29a1.4,1.4,0,0,1-1.4-1.4v-4.974H173.8v4.974A1.4,1.4,0,0,1,172.4,249.363Z" transform="translate(-164.888 -242.987)" fill="#ffcbbe"/>
      </g>
      <g id="Grupo_53330" data-name="Grupo 53330" transform="translate(22.127 66.851)">
        <path id="Trazado_98713" data-name="Trazado 98713" d="M217,242.987v4.962a1.413,1.413,0,0,1-1.413,1.413h2.3a1.413,1.413,0,0,0,1.413-1.413v-4.962Z" transform="translate(-215.583 -242.987)" fill="#ffa68d"/>
      </g>
      <g id="Grupo_53337" data-name="Grupo 53337" transform="translate(12.167 51.736)">
        <g id="Grupo_53331" data-name="Grupo 53331" transform="translate(2.458 0)">
          <path id="Trazado_98714" data-name="Trazado 98714" d="M152.719,95.721h-6.944a3.284,3.284,0,0,0-3.284,3.284v4.79H156v-4.79A3.284,3.284,0,0,0,152.719,95.721Z" transform="translate(-142.49 -95.721)" fill="#c56e37"/>
        </g>
        <g id="Grupo_53332" data-name="Grupo 53332" transform="translate(10.993 0)">
          <path id="Trazado_98715" data-name="Trazado 98715" d="M227.312,95.721h-1.666a3.09,3.09,0,0,1,3.09,3.09V103.8h1.888V99.033A3.312,3.312,0,0,0,227.312,95.721Z" transform="translate(-225.646 -95.721)" fill="#8f4e24"/>
        </g>
        <g id="Grupo_53333" data-name="Grupo 53333" transform="translate(0 7.786)">
          <path id="Trazado_98716" data-name="Trazado 98716" d="M121.729,173.8c.4,1.237.815,2.5-.24,2.847s-2.409-.909-2.811-2.146a2.2,2.2,0,0,1,1.182-2.862C120.916,171.293,121.327,172.56,121.729,173.8Z" transform="translate(-118.543 -171.579)" fill="#ffcbbe"/>
        </g>
        <g id="Grupo_53334" data-name="Grupo 53334" transform="translate(14.814 7.786)">
          <path id="Trazado_98717" data-name="Trazado 98717" d="M263.307,173.8c-.4,1.237-.815,2.5.24,2.847s2.409-.909,2.811-2.146a2.2,2.2,0,0,0-1.182-2.862C264.12,171.293,263.71,172.56,263.307,173.8Z" transform="translate(-262.879 -171.579)" fill="#ffcbbe"/>
        </g>
        <g id="Grupo_53335" data-name="Grupo 53335" transform="translate(2.458 4.037)">
          <path id="Trazado_98718" data-name="Trazado 98718" d="M152.276,135.056h-6.058a3.727,3.727,0,0,0-3.727,3.727v4.389a6.7,6.7,0,0,0,6.7,6.7h.113a6.7,6.7,0,0,0,6.7-6.7v-4.389A3.728,3.728,0,0,0,152.276,135.056Z" transform="translate(-142.49 -135.056)" fill="#ffcbbe"/>
        </g>
        <g id="Grupo_53336" data-name="Grupo 53336" transform="translate(3.351 4.198)">
          <path id="Trazado_98719" data-name="Trazado 98719" d="M161.144,136.627a3.757,3.757,0,0,1,.161,1.09v4.3a6.755,6.755,0,0,1-10.112,5.863,6.756,6.756,0,0,0,12.62-3.356v-4.3A3.76,3.76,0,0,0,161.144,136.627Z" transform="translate(-151.193 -136.627)" fill="#ffa68d"/>
        </g>
      </g>
      <g id="Grupo_53338" data-name="Grupo 53338" transform="translate(26.981 59.522)">
        <path id="Trazado_98720" data-name="Trazado 98720" d="M263.307,173.8c-.4,1.237-.815,2.5.24,2.847s2.409-.909,2.811-2.146a2.2,2.2,0,0,0-1.182-2.862C264.12,171.293,263.71,172.56,263.307,173.8Z" transform="translate(-262.879 -171.579)" fill="#ffa68d"/>
      </g>
      <g id="Grupo_53339" data-name="Grupo 53339" transform="translate(44.162 50.991)">
        <path id="Trazado_98721" data-name="Trazado 98721" d="M434.115,99.7h-.064a3.773,3.773,0,0,1-3.773-3.773V89.139a.678.678,0,0,1,.678-.678h6.254a.678.678,0,0,1,.678.678v6.792A3.773,3.773,0,0,1,434.115,99.7Z" transform="translate(-430.278 -88.461)" fill="#f9f5f5"/>
      </g>
      <g id="Grupo_53340" data-name="Grupo 53340" transform="translate(46.832 50.991)">
        <path id="Trazado_98722" data-name="Trazado 98722" d="M460.547,88.46h-2.271a.684.684,0,0,1,.684.684V95.9a3.807,3.807,0,0,1-2.67,3.633,3.808,3.808,0,0,0,4.941-3.633V89.144a.684.684,0,0,0-.684-.684Z" transform="translate(-456.29 -88.46)" fill="#eedfda"/>
      </g>
      <g id="Grupo_53341" data-name="Grupo 53341" transform="translate(44.162 54.684)">
        <path id="Trazado_98723" data-name="Trazado 98723" d="M430.278,124.45v3.745a3.805,3.805,0,1,0,7.611,0V124.45Z" transform="translate(-430.278 -124.45)" fill="#bed8fb"/>
      </g>
      <g id="Grupo_53342" data-name="Grupo 53342" transform="translate(46.832 54.684)">
        <path id="Trazado_98724" data-name="Trazado 98724" d="M458.96,124.45v3.745a3.807,3.807,0,0,1-2.67,3.633,3.808,3.808,0,0,0,4.941-3.633V124.45Z" transform="translate(-456.29 -124.45)" fill="#9dc6fb"/>
      </g>
      <g id="Grupo_53343" data-name="Grupo 53343" transform="translate(0.796 76.595)">
        <path id="Trazado_98725" data-name="Trazado 98725" d="M35.926,337.93H20.757A16.227,16.227,0,0,0,9.5,342.452a5.664,5.664,0,0,0-1.744,4.09v3.1a.581.581,0,0,0,.581.581H48.381a.581.581,0,0,0,.581-.581v-3.072a5.669,5.669,0,0,0-1.733-4.08,16.229,16.229,0,0,0-11.3-4.562Z" transform="translate(-7.752 -337.93)" fill="#80b4fb"/>
      </g>
      <g id="Grupo_53344" data-name="Grupo 53344" transform="translate(21.543 76.596)">
        <path id="Trazado_98726" data-name="Trazado 98726" d="M228.623,342.494a16.229,16.229,0,0,0-11.3-4.563h-7.427a16.229,16.229,0,0,1,11.3,4.563,5.669,5.669,0,0,1,1.733,4.08v3.072a.581.581,0,0,1-.581.581h7.427a.581.581,0,0,0,.581-.581v-3.072A5.669,5.669,0,0,0,228.623,342.494Z" transform="translate(-209.893 -337.931)" fill="#61a2f9"/>
      </g>
      <g id="Grupo_53345" data-name="Grupo 53345" transform="translate(0 46.705)">
        <circle id="Elipse_1208" data-name="Elipse 1208" cx="0.93" cy="0.93" r="0.93" transform="translate(17.204 13.604) rotate(-5.682)" fill="#23147b"/>
        <circle id="Elipse_1209" data-name="Elipse 1209" cx="0.93" cy="0.93" r="0.93" transform="translate(23.536 13.601) rotate(-5.682)" fill="#23147b"/>
        <path id="Trazado_98727" data-name="Trazado 98727" d="M189.541,219.565h-2.795a.776.776,0,1,0,0,1.552h2.795a.776.776,0,0,0,0-1.552Z" transform="translate(-166.883 -201.823)" fill="#23147b"/>
        <path id="Trazado_98728" data-name="Trazado 98728" d="M51.089,50.214H48.744V48.257h3.029a.776.776,0,0,0,0-1.552h-39.9a.776.776,0,0,0,0,1.552H47.191v1.957H44.847a1.462,1.462,0,0,0-1.46,1.46v6.754a4.585,4.585,0,0,0,2.387,4.02l-.507.815a4.164,4.164,0,0,0-.184,4.044L47.191,71.5a2.6,2.6,0,0,1-.537,3.044l-3.859,3.491V63.07A2.171,2.171,0,0,0,40.626,60.9H38.383a7.565,7.565,0,0,0-.26-1.121,1.939,1.939,0,0,1-.045-.988l.572-2.655a1.513,1.513,0,0,0-1.8-1.8c-.8.106-2.774.8-3.594.5a7.617,7.617,0,0,0-.937-.246.776.776,0,0,0-.3,1.524,6.044,6.044,0,0,1,.745.2,3.482,3.482,0,0,0,1.83.1l2.522-.544-.56,2.6c-.291,1.113.381,2.312.359,3.6v8.029a6.049,6.049,0,0,1-.283,1.832,3.465,3.465,0,0,0-.128.576,9.87,9.87,0,0,0-6.561-2.49H26.615v-.763a7.5,7.5,0,0,0,2.155-3.956A4.248,4.248,0,0,0,31.2,62.681a2.978,2.978,0,0,0-1.681-3.84h0a1.888,1.888,0,0,0-.6-.094v-3.7a4.093,4.093,0,0,0-4.088-4.088H17.937a4.094,4.094,0,0,0-4.045,3.5H11.9c-1.1-.112-2.207.553-3.406.439l-2.581-.557a1.514,1.514,0,0,0-1.8,1.8l.572,2.655a1.937,1.937,0,0,1-.045.988A7.562,7.562,0,0,0,4.38,60.9H2.41V49.93a1.675,1.675,0,0,1,1.673-1.673H8.3a.776.776,0,0,0,0-1.552H4.083A3.229,3.229,0,0,0,.858,49.93V61.347A2.163,2.163,0,0,0,0,63.07L.019,88.31a1.359,1.359,0,0,0,1.358,1.358H41.425a1.359,1.359,0,0,0,1.358-1.358l.012-8.178L47.7,75.693l.01-.009a4.163,4.163,0,0,0,.867-4.878l-2.108-4.194a2.6,2.6,0,0,1,.115-2.527l.7-1.125a4.6,4.6,0,0,0,.684.051h0A4.583,4.583,0,0,0,51.885,60.8a4.8,4.8,0,0,0,.664-2.374V51.675A1.462,1.462,0,0,0,51.089,50.214ZM41.242,63.07V79.443l-.848.768q-.266-.24-.539-.468a9.848,9.848,0,0,0-1.51-5.076,5.015,5.015,0,0,1-.229-2.272,7.6,7.6,0,0,0,.355-2.3V62.454h2.155a.616.616,0,0,1,.616.616ZM17.7,70.4a7.524,7.524,0,0,0,7.363,0v1.41a.638.638,0,0,1-.637.637H18.337a.638.638,0,0,1-.637-.637ZM29.038,60.317a1.441,1.441,0,0,1,.684,1.884c-.264.812-1.093,1.637-1.674,1.666a.776.776,0,0,0-.732.683,5.979,5.979,0,0,1-11.871,0,.776.776,0,0,0-.732-.683c-.581-.029-1.41-.855-1.674-1.666a1.441,1.441,0,0,1,.684-1.884.281.281,0,0,1,.082-.019c.051,0,.1.036.186.163a.776.776,0,0,0,.869.289c.4-.114.616-.679.54-1.219a2.986,2.986,0,0,1,2.983-2.983h6a2.986,2.986,0,0,1,2.983,2.983c-.018.413-.048.965.54,1.219a.775.775,0,0,0,.869-.289c.134-.188.168-.177.268-.145ZM15.4,55.048a2.539,2.539,0,0,1,2.536-2.536h6.889a2.539,2.539,0,0,1,2.536,2.536V56.12A4.516,4.516,0,0,0,24.379,55h-6A4.516,4.516,0,0,0,15.4,56.12ZM8.166,56.414a3.487,3.487,0,0,0,1.83-.1,6.031,6.031,0,0,1,1.9-.307h1.95v2.737a1.878,1.878,0,0,0-.6.094,2.978,2.978,0,0,0-1.681,3.84,4.246,4.246,0,0,0,2.428,2.612,7.5,7.5,0,0,0,2.155,3.956v.763H12.816A9.869,9.869,0,0,0,6.255,72.5a3.472,3.472,0,0,0-.128-.576,6.048,6.048,0,0,1-.283-1.832V62.064c-.066-1.11.647-2.321.359-3.6l-.56-2.6ZM1.553,63.07a.616.616,0,0,1,.616-.616H4.291v7.638a7.6,7.6,0,0,0,.355,2.3,5.23,5.23,0,0,1-.229,2.272,9.848,9.848,0,0,0-1.51,5.083q-.465.387-.905.808a6.362,6.362,0,0,0-.45.478V63.07ZM41.23,88.115H1.572V85.208a4.91,4.91,0,0,1,1.5-3.53,15.447,15.447,0,0,1,7.711-4.014.776.776,0,1,0-.3-1.523,16.947,16.947,0,0,0-5.911,2.387,8.37,8.37,0,0,1,8.239-6.964h3.331v.249A2.192,2.192,0,0,0,18.337,74h6.089a2.192,2.192,0,0,0,2.19-2.19v-.249h3.331a8.37,8.37,0,0,1,8.238,6.954,16.972,16.972,0,0,0-9.214-2.7H14.258a.776.776,0,1,0,0,1.552H28.97a15.419,15.419,0,0,1,9.613,3.338l.022.017q.585.465,1.13.99a4.917,4.917,0,0,1,1.5,3.521v2.877ZM51,51.767v2.141H44.939V51.767Zm-.238,7.84a3.159,3.159,0,0,1-2.791,1.851,3.032,3.032,0,0,1-3.029-3.029V55.461H51v2.968A3.02,3.02,0,0,1,50.758,59.607Z" transform="translate(0 -46.705)" fill="#23147b"/>
      </g>
    </g>
  </g>
</svg>
